<?xml version="1.0" encoding="utf-8" standalone="no"?>
<!DOCTYPE svg PUBLIC "-//W3C//DTD SVG 1.1//EN"
  "http://www.w3.org/Graphics/SVG/1.1/DTD/svg11.dtd">
<svg xmlns:xlink="http://www.w3.org/1999/xlink" width="620.867188pt" height="393.158906pt" viewBox="0 0 620.867188 393.158906" xmlns="http://www.w3.org/2000/svg" version="1.1">
 <metadata>
  <rdf:RDF xmlns:dc="http://purl.org/dc/elements/1.1/" xmlns:cc="http://creativecommons.org/ns#" xmlns:rdf="http://www.w3.org/1999/02/22-rdf-syntax-ns#">
   <cc:Work>
    <dc:type rdf:resource="http://purl.org/dc/dcmitype/StillImage"/>
    <dc:date>2026-07-05T01:11:52.595676</dc:date>
    <dc:format>image/svg+xml</dc:format>
    <dc:creator>
     <cc:Agent>
      <dc:title>Matplotlib v3.11.0, https://matplotlib.org/</dc:title>
     </cc:Agent>
    </dc:creator>
   </cc:Work>
  </rdf:RDF>
 </metadata>
 <defs>
  <style type="text/css">*{stroke-linejoin: round; stroke-linecap: butt}</style>
 </defs>
 <g id="figure_1">
  <g id="patch_1">
   <path d="M 0 393.158906 
L 620.867188 393.158906 
L 620.867188 0 
L 0 0 
z
" style="fill: #ffffff"/>
  </g>
  <g id="axes_1">
   <g id="patch_2">
    <path d="M 55.667187 354.958125 
L 613.667187 354.958125 
L 613.667187 22.318125 
L 55.667187 22.318125 
z
" style="fill: #ffffff"/>
   </g>
   <g id="PathCollection_1">
    <defs>
     <path id="m4a8e582e57" d="M 0 3 
C 0.795609 3 1.55874 2.683901 2.12132 2.12132 
C 2.683901 1.55874 3 0.795609 3 0 
C 3 -0.795609 2.683901 -1.55874 2.12132 -2.12132 
C 1.55874 -2.683901 0.795609 -3 0 -3 
C -0.795609 -3 -1.55874 -2.683901 -2.12132 -2.12132 
C -2.683901 -1.55874 -3 -0.795609 -3 0 
C -3 0.795609 -2.683901 1.55874 -2.12132 2.12132 
C -1.55874 2.683901 -0.795609 3 0 3 
z
" style="stroke: #ff0000"/>
    </defs>
    <g clip-path="url(#p516dfb9ae8)">
     <use xlink:href="#m4a8e582e57" x="377.492265" y="247.832316" style="fill: #ff0000; stroke: #ff0000"/>
    </g>
   </g>
   <g id="patch_3">
    <path d="M 381.177819 243.559693 
L 381.15799 243.604894 
L 381.156378 243.584993 
L 377.492298 247.832722 
L 377.492232 247.83191 
L 381.156312 243.584181 
L 381.1547 243.564281 
z
" clip-path="url(#p516dfb9ae8)" style="stroke: #000000; stroke-width: 0.5; stroke-linejoin: miter"/>
   </g>
   <g id="PathCollection_2">
    <g clip-path="url(#p516dfb9ae8)">
     <use xlink:href="#m4a8e582e57" x="381.156345" y="243.584587" style="fill: #ff0000; stroke: #ff0000"/>
    </g>
   </g>
   <g id="patch_4">
    <path d="M 386.414375 204.85141 
L 386.409111 204.936685 
L 386.404216 204.927177 
L 381.156445 243.584781 
L 381.156245 243.584393 
L 386.404016 204.926789 
L 386.399121 204.917282 
z
" clip-path="url(#p516dfb9ae8)" style="stroke: #000000; stroke-width: 0.5; stroke-linejoin: miter"/>
   </g>
   <g id="PathCollection_3">
    <g clip-path="url(#p516dfb9ae8)">
     <use xlink:href="#m4a8e582e57" x="386.404116" y="204.926983" style="fill: #ff0000; stroke: #ff0000"/>
    </g>
   </g>
   <g id="patch_5">
    <path d="M 374.459773 218.12203 
L 374.479758 218.077827 
L 374.4813 218.097806 
L 386.404085 204.926576 
L 386.404148 204.927391 
L 374.481363 218.098621 
L 374.482906 218.118601 
z
" clip-path="url(#p516dfb9ae8)" style="stroke: #000000; stroke-width: 0.5; stroke-linejoin: miter"/>
   </g>
   <g id="PathCollection_4">
    <g clip-path="url(#p516dfb9ae8)">
     <use xlink:href="#m4a8e582e57" x="374.481332" y="218.098214" style="fill: #ff0000; stroke: #ff0000"/>
    </g>
   </g>
   <g id="patch_6">
    <path d="M 257.540215 218.098214 
L 257.562674 218.076975 
L 257.562674 218.097789 
L 374.481332 218.097789 
L 374.481332 218.098638 
L 257.562674 218.098638 
L 257.562674 218.119452 
z
" clip-path="url(#p516dfb9ae8)" style="stroke: #000000; stroke-width: 0.5; stroke-linejoin: miter"/>
   </g>
   <g id="PathCollection_5">
    <g clip-path="url(#p516dfb9ae8)">
     <use xlink:href="#m4a8e582e57" x="257.562674" y="218.098214" style="fill: #ff0000; stroke: #ff0000"/>
    </g>
   </g>
   <g id="patch_7">
    <path d="M 254.32136 220.664254 
L 254.342193 220.626063 
L 254.34332 220.646435 
L 257.562651 218.097798 
L 257.562697 218.098629 
L 254.343366 220.647267 
L 254.344493 220.667639 
z
" clip-path="url(#p516dfb9ae8)" style="stroke: #000000; stroke-width: 0.5; stroke-linejoin: miter"/>
   </g>
   <g id="PathCollection_6">
    <g clip-path="url(#p516dfb9ae8)">
     <use xlink:href="#m4a8e582e57" x="254.343343" y="220.646851" style="fill: #ff0000; stroke: #ff0000"/>
    </g>
   </g>
   <g id="patch_8">
    <path d="M 256.744295 247.912917 
L 256.73187 247.839028 
L 256.737091 247.83245 
L 254.343236 220.646985 
L 254.343449 220.646717 
L 256.737304 247.832182 
L 256.742524 247.825604 
z
" clip-path="url(#p516dfb9ae8)" style="stroke: #000000; stroke-width: 0.5; stroke-linejoin: miter"/>
   </g>
   <g id="PathCollection_7">
    <g clip-path="url(#p516dfb9ae8)">
     <use xlink:href="#m4a8e582e57" x="256.737197" y="247.832316" style="fill: #ff0000; stroke: #ff0000"/>
    </g>
   </g>
   <g id="patch_9">
    <path d="M 377.514724 247.832316 
L 377.492265 247.853555 
L 377.492265 247.832741 
L 256.737197 247.832741 
L 256.737197 247.831891 
L 377.492265 247.831891 
L 377.492265 247.811078 
z
" clip-path="url(#p516dfb9ae8)" style="stroke: #000000; stroke-width: 0.5; stroke-linejoin: miter"/>
   </g>
   <g id="PathCollection_8">
    <g clip-path="url(#p516dfb9ae8)">
     <use xlink:href="#m4a8e582e57" x="377.492265" y="247.832316" style="fill: #ff0000; stroke: #ff0000"/>
    </g>
   </g>
   <g id="matplotlib.axis_1">
    <g id="xtick_1">
     <g id="line2d_1">
      <path d="M 102.486063 354.958125 
L 102.486063 22.318125 
" clip-path="url(#p516dfb9ae8)" style="fill: none; stroke: #b0b0b0; stroke-width: 0.8; stroke-linecap: square"/>
     </g>
     <g id="line2d_2">
      <defs>
       <path id="mbe08d473fe" d="M 0 0 
L 0 3.5 
" style="stroke: #000000; stroke-width: 0.8"/>
      </defs>
      <g>
       <use xlink:href="#mbe08d473fe" x="102.486063" y="354.958125" style="stroke: #000000; stroke-width: 0.8"/>
      </g>
     </g>
     <g id="text_1">
      <!-- 500 -->
      <g transform="translate(92.942313 369.555781) scale(0.1 -0.1)">
       <defs>
        <path id="DejaVuSans-18" d="M 691 4666 
L 3169 4666 
L 3169 4134 
L 1269 4134 
L 1269 2991 
Q 1406 3038 1543 3061 
Q 1681 3084 1819 3084 
Q 2600 3084 3056 2656 
Q 3513 2228 3513 1497 
Q 3513 744 3044 326 
Q 2575 -91 1722 -91 
Q 1428 -91 1123 -41 
Q 819 9 494 109 
L 494 744 
Q 775 591 1075 516 
Q 1375 441 1709 441 
Q 2250 441 2565 725 
Q 2881 1009 2881 1497 
Q 2881 1984 2565 2268 
Q 2250 2553 1709 2553 
Q 1456 2553 1204 2497 
Q 953 2441 691 2322 
L 691 4666 
z
" transform="scale(0.015625)"/>
        <path id="DejaVuSans-13" d="M 2034 4250 
Q 1547 4250 1301 3770 
Q 1056 3291 1056 2328 
Q 1056 1369 1301 889 
Q 1547 409 2034 409 
Q 2525 409 2770 889 
Q 3016 1369 3016 2328 
Q 3016 3291 2770 3770 
Q 2525 4250 2034 4250 
z
M 2034 4750 
Q 2819 4750 3233 4129 
Q 3647 3509 3647 2328 
Q 3647 1150 3233 529 
Q 2819 -91 2034 -91 
Q 1250 -91 836 529 
Q 422 1150 422 2328 
Q 422 3509 836 4129 
Q 1250 4750 2034 4750 
z
" transform="scale(0.015625)"/>
       </defs>
       <use xlink:href="#DejaVuSans-18"/>
       <use xlink:href="#DejaVuSans-13" transform="translate(63.625 0)"/>
       <use xlink:href="#DejaVuSans-13" transform="translate(127.25 0)"/>
      </g>
     </g>
    </g>
    <g id="xtick_2">
     <g id="line2d_3">
      <path d="M 214.782835 354.958125 
L 214.782835 22.318125 
" clip-path="url(#p516dfb9ae8)" style="fill: none; stroke: #b0b0b0; stroke-width: 0.8; stroke-linecap: square"/>
     </g>
     <g id="line2d_4">
      <g>
       <use xlink:href="#mbe08d473fe" x="214.782835" y="354.958125" style="stroke: #000000; stroke-width: 0.8"/>
      </g>
     </g>
     <g id="text_2">
      <!-- 1000 -->
      <g transform="translate(202.057835 369.555781) scale(0.1 -0.1)">
       <defs>
        <path id="DejaVuSans-14" d="M 794 531 
L 1825 531 
L 1825 4091 
L 703 3866 
L 703 4441 
L 1819 4666 
L 2450 4666 
L 2450 531 
L 3481 531 
L 3481 0 
L 794 0 
L 794 531 
z
" transform="scale(0.015625)"/>
       </defs>
       <use xlink:href="#DejaVuSans-14"/>
       <use xlink:href="#DejaVuSans-13" transform="translate(63.625 0)"/>
       <use xlink:href="#DejaVuSans-13" transform="translate(127.25 0)"/>
       <use xlink:href="#DejaVuSans-13" transform="translate(190.875 0)"/>
      </g>
     </g>
    </g>
    <g id="xtick_3">
     <g id="line2d_5">
      <path d="M 327.079606 354.958125 
L 327.079606 22.318125 
" clip-path="url(#p516dfb9ae8)" style="fill: none; stroke: #b0b0b0; stroke-width: 0.8; stroke-linecap: square"/>
     </g>
     <g id="line2d_6">
      <g>
       <use xlink:href="#mbe08d473fe" x="327.079606" y="354.958125" style="stroke: #000000; stroke-width: 0.8"/>
      </g>
     </g>
     <g id="text_3">
      <!-- 1500 -->
      <g transform="translate(314.354606 369.555781) scale(0.1 -0.1)">
       <use xlink:href="#DejaVuSans-14"/>
       <use xlink:href="#DejaVuSans-18" transform="translate(63.625 0)"/>
       <use xlink:href="#DejaVuSans-13" transform="translate(127.25 0)"/>
       <use xlink:href="#DejaVuSans-13" transform="translate(190.875 0)"/>
      </g>
     </g>
    </g>
    <g id="xtick_4">
     <g id="line2d_7">
      <path d="M 439.376377 354.958125 
L 439.376377 22.318125 
" clip-path="url(#p516dfb9ae8)" style="fill: none; stroke: #b0b0b0; stroke-width: 0.8; stroke-linecap: square"/>
     </g>
     <g id="line2d_8">
      <g>
       <use xlink:href="#mbe08d473fe" x="439.376377" y="354.958125" style="stroke: #000000; stroke-width: 0.8"/>
      </g>
     </g>
     <g id="text_4">
      <!-- 2000 -->
      <g transform="translate(426.651377 369.555781) scale(0.1 -0.1)">
       <defs>
        <path id="DejaVuSans-15" d="M 1228 531 
L 3431 531 
L 3431 0 
L 469 0 
L 469 531 
Q 828 903 1448 1529 
Q 2069 2156 2228 2338 
Q 2531 2678 2651 2914 
Q 2772 3150 2772 3378 
Q 2772 3750 2511 3984 
Q 2250 4219 1831 4219 
Q 1534 4219 1204 4116 
Q 875 4013 500 3803 
L 500 4441 
Q 881 4594 1212 4672 
Q 1544 4750 1819 4750 
Q 2544 4750 2975 4387 
Q 3406 4025 3406 3419 
Q 3406 3131 3298 2873 
Q 3191 2616 2906 2266 
Q 2828 2175 2409 1742 
Q 1991 1309 1228 531 
z
" transform="scale(0.015625)"/>
       </defs>
       <use xlink:href="#DejaVuSans-15"/>
       <use xlink:href="#DejaVuSans-13" transform="translate(63.625 0)"/>
       <use xlink:href="#DejaVuSans-13" transform="translate(127.25 0)"/>
       <use xlink:href="#DejaVuSans-13" transform="translate(190.875 0)"/>
      </g>
     </g>
    </g>
    <g id="xtick_5">
     <g id="line2d_9">
      <path d="M 551.673148 354.958125 
L 551.673148 22.318125 
" clip-path="url(#p516dfb9ae8)" style="fill: none; stroke: #b0b0b0; stroke-width: 0.8; stroke-linecap: square"/>
     </g>
     <g id="line2d_10">
      <g>
       <use xlink:href="#mbe08d473fe" x="551.673148" y="354.958125" style="stroke: #000000; stroke-width: 0.8"/>
      </g>
     </g>
     <g id="text_5">
      <!-- 2500 -->
      <g transform="translate(538.948148 369.555781) scale(0.1 -0.1)">
       <use xlink:href="#DejaVuSans-15"/>
       <use xlink:href="#DejaVuSans-18" transform="translate(63.625 0)"/>
       <use xlink:href="#DejaVuSans-13" transform="translate(127.25 0)"/>
       <use xlink:href="#DejaVuSans-13" transform="translate(190.875 0)"/>
      </g>
     </g>
    </g>
    <g id="text_6">
     <!-- Entropy (J/kg-K) -->
     <g transform="translate(295.438281 383.556562) scale(0.1 -0.1)">
      <defs>
       <path id="DejaVuSans-28" d="M 628 4666 
L 3578 4666 
L 3578 4134 
L 1259 4134 
L 1259 2753 
L 3481 2753 
L 3481 2222 
L 1259 2222 
L 1259 531 
L 3634 531 
L 3634 0 
L 628 0 
L 628 4666 
z
" transform="scale(0.015625)"/>
       <path id="DejaVuSans-51" d="M 3513 2113 
L 3513 0 
L 2938 0 
L 2938 2094 
Q 2938 2591 2744 2837 
Q 2550 3084 2163 3084 
Q 1697 3084 1428 2787 
Q 1159 2491 1159 1978 
L 1159 0 
L 581 0 
L 581 3500 
L 1159 3500 
L 1159 2956 
Q 1366 3272 1645 3428 
Q 1925 3584 2291 3584 
Q 2894 3584 3203 3211 
Q 3513 2838 3513 2113 
z
" transform="scale(0.015625)"/>
       <path id="DejaVuSans-57" d="M 1172 4494 
L 1172 3500 
L 2356 3500 
L 2356 3053 
L 1172 3053 
L 1172 1153 
Q 1172 725 1289 603 
Q 1406 481 1766 481 
L 2356 481 
L 2356 0 
L 1766 0 
Q 1100 0 847 248 
Q 594 497 594 1153 
L 594 3053 
L 172 3053 
L 172 3500 
L 594 3500 
L 594 4494 
L 1172 4494 
z
" transform="scale(0.015625)"/>
       <path id="DejaVuSans-55" d="M 2631 2963 
Q 2534 3019 2420 3045 
Q 2306 3072 2169 3072 
Q 1681 3072 1420 2755 
Q 1159 2438 1159 1844 
L 1159 0 
L 581 0 
L 581 3500 
L 1159 3500 
L 1159 2956 
Q 1341 3275 1631 3429 
Q 1922 3584 2338 3584 
Q 2397 3584 2469 3576 
Q 2541 3569 2628 3553 
L 2631 2963 
z
" transform="scale(0.015625)"/>
       <path id="DejaVuSans-52" d="M 1959 3097 
Q 1497 3097 1228 2736 
Q 959 2375 959 1747 
Q 959 1119 1226 758 
Q 1494 397 1959 397 
Q 2419 397 2687 759 
Q 2956 1122 2956 1747 
Q 2956 2369 2687 2733 
Q 2419 3097 1959 3097 
z
M 1959 3584 
Q 2709 3584 3137 3096 
Q 3566 2609 3566 1747 
Q 3566 888 3137 398 
Q 2709 -91 1959 -91 
Q 1206 -91 779 398 
Q 353 888 353 1747 
Q 353 2609 779 3096 
Q 1206 3584 1959 3584 
z
" transform="scale(0.015625)"/>
       <path id="DejaVuSans-53" d="M 1159 525 
L 1159 -1331 
L 581 -1331 
L 581 3500 
L 1159 3500 
L 1159 2969 
Q 1341 3281 1617 3432 
Q 1894 3584 2278 3584 
Q 2916 3584 3314 3078 
Q 3713 2572 3713 1747 
Q 3713 922 3314 415 
Q 2916 -91 2278 -91 
Q 1894 -91 1617 61 
Q 1341 213 1159 525 
z
M 3116 1747 
Q 3116 2381 2855 2742 
Q 2594 3103 2138 3103 
Q 1681 3103 1420 2742 
Q 1159 2381 1159 1747 
Q 1159 1113 1420 752 
Q 1681 391 2138 391 
Q 2594 391 2855 752 
Q 3116 1113 3116 1747 
z
" transform="scale(0.015625)"/>
       <path id="DejaVuSans-5c" d="M 2059 -325 
Q 1816 -950 1584 -1140 
Q 1353 -1331 966 -1331 
L 506 -1331 
L 506 -850 
L 844 -850 
Q 1081 -850 1212 -737 
Q 1344 -625 1503 -206 
L 1606 56 
L 191 3500 
L 800 3500 
L 1894 763 
L 2988 3500 
L 3597 3500 
L 2059 -325 
z
" transform="scale(0.015625)"/>
       <path id="DejaVuSans-3" transform="scale(0.015625)"/>
       <path id="DejaVuSans-b" d="M 1984 4856 
Q 1566 4138 1362 3434 
Q 1159 2731 1159 2009 
Q 1159 1288 1364 580 
Q 1569 -128 1984 -844 
L 1484 -844 
Q 1016 -109 783 600 
Q 550 1309 550 2009 
Q 550 2706 781 3412 
Q 1013 4119 1484 4856 
L 1984 4856 
z
" transform="scale(0.015625)"/>
       <path id="DejaVuSans-2d" d="M 628 4666 
L 1259 4666 
L 1259 325 
Q 1259 -519 939 -900 
Q 619 -1281 -91 -1281 
L -331 -1281 
L -331 -750 
L -134 -750 
Q 284 -750 456 -515 
Q 628 -281 628 325 
L 628 4666 
z
" transform="scale(0.015625)"/>
       <path id="DejaVuSans-12" d="M 1625 4666 
L 2156 4666 
L 531 -594 
L 0 -594 
L 1625 4666 
z
" transform="scale(0.015625)"/>
       <path id="DejaVuSans-4e" d="M 581 4863 
L 1159 4863 
L 1159 1991 
L 2875 3500 
L 3609 3500 
L 1753 1863 
L 3688 0 
L 2938 0 
L 1159 1709 
L 1159 0 
L 581 0 
L 581 4863 
z
" transform="scale(0.015625)"/>
       <path id="DejaVuSans-4a" d="M 2906 1791 
Q 2906 2416 2648 2759 
Q 2391 3103 1925 3103 
Q 1463 3103 1205 2759 
Q 947 2416 947 1791 
Q 947 1169 1205 825 
Q 1463 481 1925 481 
Q 2391 481 2648 825 
Q 2906 1169 2906 1791 
z
M 3481 434 
Q 3481 -459 3084 -895 
Q 2688 -1331 1869 -1331 
Q 1566 -1331 1297 -1286 
Q 1028 -1241 775 -1147 
L 775 -588 
Q 1028 -725 1275 -790 
Q 1522 -856 1778 -856 
Q 2344 -856 2625 -561 
Q 2906 -266 2906 331 
L 2906 616 
Q 2728 306 2450 153 
Q 2172 0 1784 0 
Q 1141 0 747 490 
Q 353 981 353 1791 
Q 353 2603 747 3093 
Q 1141 3584 1784 3584 
Q 2172 3584 2450 3431 
Q 2728 3278 2906 2969 
L 2906 3500 
L 3481 3500 
L 3481 434 
z
" transform="scale(0.015625)"/>
       <path id="DejaVuSans-10" d="M 313 2009 
L 1997 2009 
L 1997 1497 
L 313 1497 
L 313 2009 
z
" transform="scale(0.015625)"/>
       <path id="DejaVuSans-2e" d="M 628 4666 
L 1259 4666 
L 1259 2694 
L 3353 4666 
L 4166 4666 
L 1850 2491 
L 4331 0 
L 3500 0 
L 1259 2247 
L 1259 0 
L 628 0 
L 628 4666 
z
" transform="scale(0.015625)"/>
       <path id="DejaVuSans-c" d="M 513 4856 
L 1013 4856 
Q 1481 4119 1714 3412 
Q 1947 2706 1947 2009 
Q 1947 1309 1714 600 
Q 1481 -109 1013 -844 
L 513 -844 
Q 928 -128 1133 580 
Q 1338 1288 1338 2009 
Q 1338 2731 1133 3434 
Q 928 4138 513 4856 
z
" transform="scale(0.015625)"/>
      </defs>
      <use xlink:href="#DejaVuSans-28"/>
      <use xlink:href="#DejaVuSans-51" transform="translate(63.1875 0)"/>
      <use xlink:href="#DejaVuSans-57" transform="translate(126.5625 0)"/>
      <use xlink:href="#DejaVuSans-55" transform="translate(165.765625 0)"/>
      <use xlink:href="#DejaVuSans-52" transform="translate(204.671875 0)"/>
      <use xlink:href="#DejaVuSans-53" transform="translate(265.859375 0)"/>
      <use xlink:href="#DejaVuSans-5c" transform="translate(329.34375 0)"/>
      <use xlink:href="#DejaVuSans-3" transform="translate(388.53125 0)"/>
      <use xlink:href="#DejaVuSans-b" transform="translate(420.3125 0)"/>
      <use xlink:href="#DejaVuSans-2d" transform="translate(459.328125 0)"/>
      <use xlink:href="#DejaVuSans-12" transform="translate(488.828125 0)"/>
      <use xlink:href="#DejaVuSans-4e" transform="translate(522.515625 0)"/>
      <use xlink:href="#DejaVuSans-4a" transform="translate(580.421875 0)"/>
      <use xlink:href="#DejaVuSans-10" transform="translate(643.90625 0)"/>
      <use xlink:href="#DejaVuSans-2e" transform="translate(679.984375 0)"/>
      <use xlink:href="#DejaVuSans-c" transform="translate(745.5625 0)"/>
     </g>
    </g>
   </g>
   <g id="matplotlib.axis_2">
    <g id="ytick_1">
     <g id="line2d_11">
      <path d="M 55.667187 337.034624 
L 613.667187 337.034624 
" clip-path="url(#p516dfb9ae8)" style="fill: none; stroke: #b0b0b0; stroke-width: 0.8; stroke-linecap: square"/>
     </g>
     <g id="line2d_12">
      <defs>
       <path id="m82fc1655cd" d="M 0 0 
L -3.5 0 
" style="stroke: #000000; stroke-width: 0.8"/>
      </defs>
      <g>
       <use xlink:href="#m82fc1655cd" x="55.667187" y="337.034624" style="stroke: #000000; stroke-width: 0.8"/>
      </g>
     </g>
     <g id="text_7">
      <!-- −100 -->
      <g transform="translate(21.2 340.833452) scale(0.1 -0.1)">
       <defs>
        <path id="DejaVuSans-c9c" d="M 678 2272 
L 4684 2272 
L 4684 1741 
L 678 1741 
L 678 2272 
z
" transform="scale(0.015625)"/>
       </defs>
       <use xlink:href="#DejaVuSans-c9c"/>
       <use xlink:href="#DejaVuSans-14" transform="translate(83.796875 0)"/>
       <use xlink:href="#DejaVuSans-13" transform="translate(147.421875 0)"/>
       <use xlink:href="#DejaVuSans-13" transform="translate(211.046875 0)"/>
      </g>
     </g>
    </g>
    <g id="ytick_2">
     <g id="line2d_13">
      <path d="M 55.667187 294.557334 
L 613.667187 294.557334 
" clip-path="url(#p516dfb9ae8)" style="fill: none; stroke: #b0b0b0; stroke-width: 0.8; stroke-linecap: square"/>
     </g>
     <g id="line2d_14">
      <g>
       <use xlink:href="#m82fc1655cd" x="55.667187" y="294.557334" style="stroke: #000000; stroke-width: 0.8"/>
      </g>
     </g>
     <g id="text_8">
      <!-- −50 -->
      <g transform="translate(27.5625 298.356163) scale(0.1 -0.1)">
       <use xlink:href="#DejaVuSans-c9c"/>
       <use xlink:href="#DejaVuSans-18" transform="translate(83.796875 0)"/>
       <use xlink:href="#DejaVuSans-13" transform="translate(147.421875 0)"/>
      </g>
     </g>
    </g>
    <g id="ytick_3">
     <g id="line2d_15">
      <path d="M 55.667187 252.080045 
L 613.667187 252.080045 
" clip-path="url(#p516dfb9ae8)" style="fill: none; stroke: #b0b0b0; stroke-width: 0.8; stroke-linecap: square"/>
     </g>
     <g id="line2d_16">
      <g>
       <use xlink:href="#m82fc1655cd" x="55.667187" y="252.080045" style="stroke: #000000; stroke-width: 0.8"/>
      </g>
     </g>
     <g id="text_9">
      <!-- 0 -->
      <g transform="translate(42.304688 255.878873) scale(0.1 -0.1)">
       <use xlink:href="#DejaVuSans-13"/>
      </g>
     </g>
    </g>
    <g id="ytick_4">
     <g id="line2d_17">
      <path d="M 55.667187 209.602756 
L 613.667187 209.602756 
" clip-path="url(#p516dfb9ae8)" style="fill: none; stroke: #b0b0b0; stroke-width: 0.8; stroke-linecap: square"/>
     </g>
     <g id="line2d_18">
      <g>
       <use xlink:href="#m82fc1655cd" x="55.667187" y="209.602756" style="stroke: #000000; stroke-width: 0.8"/>
      </g>
     </g>
     <g id="text_10">
      <!-- 50 -->
      <g transform="translate(35.942187 213.401584) scale(0.1 -0.1)">
       <use xlink:href="#DejaVuSans-18"/>
       <use xlink:href="#DejaVuSans-13" transform="translate(63.625 0)"/>
      </g>
     </g>
    </g>
    <g id="ytick_5">
     <g id="line2d_19">
      <path d="M 55.667187 167.125466 
L 613.667187 167.125466 
" clip-path="url(#p516dfb9ae8)" style="fill: none; stroke: #b0b0b0; stroke-width: 0.8; stroke-linecap: square"/>
     </g>
     <g id="line2d_20">
      <g>
       <use xlink:href="#m82fc1655cd" x="55.667187" y="167.125466" style="stroke: #000000; stroke-width: 0.8"/>
      </g>
     </g>
     <g id="text_11">
      <!-- 100 -->
      <g transform="translate(29.579687 170.924294) scale(0.1 -0.1)">
       <use xlink:href="#DejaVuSans-14"/>
       <use xlink:href="#DejaVuSans-13" transform="translate(63.625 0)"/>
       <use xlink:href="#DejaVuSans-13" transform="translate(127.25 0)"/>
      </g>
     </g>
    </g>
    <g id="ytick_6">
     <g id="line2d_21">
      <path d="M 55.667187 124.648177 
L 613.667187 124.648177 
" clip-path="url(#p516dfb9ae8)" style="fill: none; stroke: #b0b0b0; stroke-width: 0.8; stroke-linecap: square"/>
     </g>
     <g id="line2d_22">
      <g>
       <use xlink:href="#m82fc1655cd" x="55.667187" y="124.648177" style="stroke: #000000; stroke-width: 0.8"/>
      </g>
     </g>
     <g id="text_12">
      <!-- 150 -->
      <g transform="translate(29.579687 128.447005) scale(0.1 -0.1)">
       <use xlink:href="#DejaVuSans-14"/>
       <use xlink:href="#DejaVuSans-18" transform="translate(63.625 0)"/>
       <use xlink:href="#DejaVuSans-13" transform="translate(127.25 0)"/>
      </g>
     </g>
    </g>
    <g id="ytick_7">
     <g id="line2d_23">
      <path d="M 55.667187 82.170887 
L 613.667187 82.170887 
" clip-path="url(#p516dfb9ae8)" style="fill: none; stroke: #b0b0b0; stroke-width: 0.8; stroke-linecap: square"/>
     </g>
     <g id="line2d_24">
      <g>
       <use xlink:href="#m82fc1655cd" x="55.667187" y="82.170887" style="stroke: #000000; stroke-width: 0.8"/>
      </g>
     </g>
     <g id="text_13">
      <!-- 200 -->
      <g transform="translate(29.579687 85.969716) scale(0.1 -0.1)">
       <use xlink:href="#DejaVuSans-15"/>
       <use xlink:href="#DejaVuSans-13" transform="translate(63.625 0)"/>
       <use xlink:href="#DejaVuSans-13" transform="translate(127.25 0)"/>
      </g>
     </g>
    </g>
    <g id="ytick_8">
     <g id="line2d_25">
      <path d="M 55.667187 39.693598 
L 613.667187 39.693598 
" clip-path="url(#p516dfb9ae8)" style="fill: none; stroke: #b0b0b0; stroke-width: 0.8; stroke-linecap: square"/>
     </g>
     <g id="line2d_26">
      <g>
       <use xlink:href="#m82fc1655cd" x="55.667187" y="39.693598" style="stroke: #000000; stroke-width: 0.8"/>
      </g>
     </g>
     <g id="text_14">
      <!-- 250 -->
      <g transform="translate(29.579687 43.492426) scale(0.1 -0.1)">
       <use xlink:href="#DejaVuSans-15"/>
       <use xlink:href="#DejaVuSans-18" transform="translate(63.625 0)"/>
       <use xlink:href="#DejaVuSans-13" transform="translate(127.25 0)"/>
      </g>
     </g>
    </g>
    <g id="text_15">
     <!-- Temperature (°C) -->
     <g transform="translate(14.797656 231.792812) rotate(-90) scale(0.1 -0.1)">
      <defs>
       <path id="DejaVuSans-37" d="M -19 4666 
L 3928 4666 
L 3928 4134 
L 2272 4134 
L 2272 0 
L 1638 0 
L 1638 4134 
L -19 4134 
L -19 4666 
z
" transform="scale(0.015625)"/>
       <path id="DejaVuSans-48" d="M 3597 1894 
L 3597 1613 
L 953 1613 
Q 991 1019 1311 708 
Q 1631 397 2203 397 
Q 2534 397 2845 478 
Q 3156 559 3463 722 
L 3463 178 
Q 3153 47 2828 -22 
Q 2503 -91 2169 -91 
Q 1331 -91 842 396 
Q 353 884 353 1716 
Q 353 2575 817 3079 
Q 1281 3584 2069 3584 
Q 2775 3584 3186 3129 
Q 3597 2675 3597 1894 
z
M 3022 2063 
Q 3016 2534 2758 2815 
Q 2500 3097 2075 3097 
Q 1594 3097 1305 2825 
Q 1016 2553 972 2059 
L 3022 2063 
z
" transform="scale(0.015625)"/>
       <path id="DejaVuSans-50" d="M 3328 2828 
Q 3544 3216 3844 3400 
Q 4144 3584 4550 3584 
Q 5097 3584 5394 3201 
Q 5691 2819 5691 2113 
L 5691 0 
L 5113 0 
L 5113 2094 
Q 5113 2597 4934 2840 
Q 4756 3084 4391 3084 
Q 3944 3084 3684 2787 
Q 3425 2491 3425 1978 
L 3425 0 
L 2847 0 
L 2847 2094 
Q 2847 2600 2669 2842 
Q 2491 3084 2119 3084 
Q 1678 3084 1418 2786 
Q 1159 2488 1159 1978 
L 1159 0 
L 581 0 
L 581 3500 
L 1159 3500 
L 1159 2956 
Q 1356 3278 1631 3431 
Q 1906 3584 2284 3584 
Q 2666 3584 2933 3390 
Q 3200 3197 3328 2828 
z
" transform="scale(0.015625)"/>
       <path id="DejaVuSans-44" d="M 2194 1759 
Q 1497 1759 1228 1600 
Q 959 1441 959 1056 
Q 959 750 1161 570 
Q 1363 391 1709 391 
Q 2188 391 2477 730 
Q 2766 1069 2766 1631 
L 2766 1759 
L 2194 1759 
z
M 3341 1997 
L 3341 0 
L 2766 0 
L 2766 531 
Q 2569 213 2275 61 
Q 1981 -91 1556 -91 
Q 1019 -91 701 211 
Q 384 513 384 1019 
Q 384 1609 779 1909 
Q 1175 2209 1959 2209 
L 2766 2209 
L 2766 2266 
Q 2766 2663 2505 2880 
Q 2244 3097 1772 3097 
Q 1472 3097 1187 3025 
Q 903 2953 641 2809 
L 641 3341 
Q 956 3463 1253 3523 
Q 1550 3584 1831 3584 
Q 2591 3584 2966 3190 
Q 3341 2797 3341 1997 
z
" transform="scale(0.015625)"/>
       <path id="DejaVuSans-58" d="M 544 1381 
L 544 3500 
L 1119 3500 
L 1119 1403 
Q 1119 906 1312 657 
Q 1506 409 1894 409 
Q 2359 409 2629 706 
Q 2900 1003 2900 1516 
L 2900 3500 
L 3475 3500 
L 3475 0 
L 2900 0 
L 2900 538 
Q 2691 219 2414 64 
Q 2138 -91 1772 -91 
Q 1169 -91 856 284 
Q 544 659 544 1381 
z
M 1991 3584 
L 1991 3584 
z
" transform="scale(0.015625)"/>
       <path id="DejaVuSans-72" d="M 1600 4347 
Q 1350 4347 1178 4173 
Q 1006 4000 1006 3750 
Q 1006 3503 1178 3333 
Q 1350 3163 1600 3163 
Q 1850 3163 2022 3333 
Q 2194 3503 2194 3750 
Q 2194 3997 2020 4172 
Q 1847 4347 1600 4347 
z
M 1600 4750 
Q 1800 4750 1984 4673 
Q 2169 4597 2303 4453 
Q 2447 4313 2519 4134 
Q 2591 3956 2591 3750 
Q 2591 3338 2302 3052 
Q 2013 2766 1594 2766 
Q 1172 2766 890 3047 
Q 609 3328 609 3750 
Q 609 4169 896 4459 
Q 1184 4750 1600 4750 
z
" transform="scale(0.015625)"/>
       <path id="DejaVuSans-26" d="M 4122 4306 
L 4122 3641 
Q 3803 3938 3442 4084 
Q 3081 4231 2675 4231 
Q 1875 4231 1450 3742 
Q 1025 3253 1025 2328 
Q 1025 1406 1450 917 
Q 1875 428 2675 428 
Q 3081 428 3442 575 
Q 3803 722 4122 1019 
L 4122 359 
Q 3791 134 3420 21 
Q 3050 -91 2638 -91 
Q 1578 -91 968 557 
Q 359 1206 359 2328 
Q 359 3453 968 4101 
Q 1578 4750 2638 4750 
Q 3056 4750 3426 4639 
Q 3797 4528 4122 4306 
z
" transform="scale(0.015625)"/>
      </defs>
      <use xlink:href="#DejaVuSans-37"/>
      <use xlink:href="#DejaVuSans-48" transform="translate(44.09375 0)"/>
      <use xlink:href="#DejaVuSans-50" transform="translate(105.625 0)"/>
      <use xlink:href="#DejaVuSans-53" transform="translate(203.03125 0)"/>
      <use xlink:href="#DejaVuSans-48" transform="translate(266.515625 0)"/>
      <use xlink:href="#DejaVuSans-55" transform="translate(328.046875 0)"/>
      <use xlink:href="#DejaVuSans-44" transform="translate(369.15625 0)"/>
      <use xlink:href="#DejaVuSans-57" transform="translate(430.4375 0)"/>
      <use xlink:href="#DejaVuSans-58" transform="translate(469.640625 0)"/>
      <use xlink:href="#DejaVuSans-55" transform="translate(533.015625 0)"/>
      <use xlink:href="#DejaVuSans-48" transform="translate(571.921875 0)"/>
      <use xlink:href="#DejaVuSans-3" transform="translate(633.453125 0)"/>
      <use xlink:href="#DejaVuSans-b" transform="translate(665.234375 0)"/>
      <use xlink:href="#DejaVuSans-72" transform="translate(704.25 0)"/>
      <use xlink:href="#DejaVuSans-26" transform="translate(754.25 0)"/>
      <use xlink:href="#DejaVuSans-c" transform="translate(824.078125 0)"/>
     </g>
    </g>
   </g>
   <g id="line2d_27">
    <path d="M 82.860409 339.838125 
L 93.939564 333.701485 
L 105.475916 327.053458 
L 117.15006 320.064506 
L 128.956016 312.73463 
L 140.887848 305.06383 
L 152.940614 297.052105 
L 165.355831 288.528993 
L 177.874587 279.664957 
L 190.733462 270.289534 
L 204.150774 260.232263 
L 218.555089 249.152217 
L 234.577568 236.538012 
L 255.622394 219.662251 
L 282.021008 198.524934 
L 293.026454 190.001823 
L 301.292639 183.865182 
L 307.838047 179.262702 
L 313.288783 175.682995 
L 317.812205 172.9556 
L 321.918668 170.739591 
L 325.197599 169.205431 
L 328.27229 168.012195 
L 331.155165 167.159884 
L 333.718652 166.648497 
L 337.159722 166.307573 
L 337.159722 166.307573 
" clip-path="url(#p516dfb9ae8)" style="fill: none; stroke: #0000ff; stroke-width: 1.5; stroke-linecap: square"/>
   </g>
   <g id="line2d_28">
    <path d="M 431.270699 339.838125 
L 426.304736 336.42888 
L 421.738283 333.019636 
L 417.540218 329.610391 
L 413.682113 326.201146 
L 409.968509 322.62144 
L 406.57334 319.041733 
L 403.330385 315.291564 
L 400.382223 311.541394 
L 397.588523 307.620763 
L 395.064244 303.700132 
L 392.691819 299.609038 
L 390.47842 295.347482 
L 388.42861 290.915464 
L 386.544448 286.312984 
L 384.76831 281.369579 
L 383.169911 276.255712 
L 381.69983 270.800921 
L 380.368077 265.005205 
L 379.148169 258.698102 
L 378.02742 251.709151 
L 376.977673 243.697426 
L 375.94141 233.981079 
L 372.854202 203.297877 
L 371.905278 197.161237 
L 370.923835 192.217832 
L 369.898656 188.126738 
L 368.780089 184.547031 
L 367.594459 181.478711 
L 366.297964 178.751316 
L 365.01245 176.535307 
L 363.567002 174.48976 
L 362.092446 172.785137 
L 360.455268 171.250977 
L 358.8732 170.057742 
L 357.17505 169.034968 
L 355.355063 168.182657 
L 353.412621 167.500808 
L 351.371681 166.989422 
L 349.358857 166.648497 
L 347.864231 166.478035 
L 345.330987 166.307573 
L 345.330987 166.307573 
" clip-path="url(#p516dfb9ae8)" style="fill: none; stroke: #ff0000; stroke-width: 1.5; stroke-linecap: square"/>
   </g>
   <g id="line2d_29">
    <path d="M 82.858161 339.838125 
L 93.937356 333.701485 
L 105.473869 327.053458 
L 117.148419 320.064506 
L 128.955259 312.73463 
L 134.840221 308.984461 
L 398.508361 308.813999 
L 407.497141 298.24534 
L 417.494494 286.142522 
L 428.047716 273.01693 
L 439.135277 258.868565 
L 450.473823 244.03835 
L 462.054732 228.526287 
L 473.868421 212.332375 
L 485.905259 195.456614 
L 498.155951 177.899004 
L 510.611689 159.659546 
L 523.264197 140.738238 
L 536.10574 121.135081 
L 549.237453 100.679613 
L 562.540057 79.542296 
L 576.007543 57.723131 
L 588.303551 37.438125 
L 588.303551 37.438125 
" clip-path="url(#p516dfb9ae8)" style="fill: none; stroke-dasharray: 1.85,0.8; stroke-dashoffset: 0; stroke: #000000; stroke-width: 0.5"/>
   </g>
   <g id="line2d_30">
    <path d="M 82.848805 339.838125 
L 93.927714 333.701485 
L 105.463892 327.053458 
L 117.138056 320.064506 
L 128.944449 312.73463 
L 140.877535 305.06383 
L 152.933066 297.052105 
L 165.353882 288.528993 
L 168.278489 286.483446 
L 386.710627 286.312984 
L 394.955454 276.426175 
L 404.322467 264.834743 
L 414.498493 251.879613 
L 425.192159 237.90171 
L 436.384734 222.901034 
L 447.932196 207.048046 
L 459.701089 190.51321 
L 471.802726 173.126062 
L 484.108124 155.057065 
L 496.723265 136.135757 
L 509.524611 116.532601 
L 522.506074 96.247595 
L 535.767668 75.110278 
L 549.19379 53.291113 
L 558.791776 37.438125 
L 558.791776 37.438125 
" clip-path="url(#p516dfb9ae8)" style="fill: none; stroke-dasharray: 1.85,0.8; stroke-dashoffset: 0; stroke: #000000; stroke-width: 0.5"/>
   </g>
   <g id="line2d_31">
    <path d="M 82.837113 339.838125 
L 93.915666 333.701485 
L 105.451425 327.053458 
L 117.125108 320.064506 
L 128.930941 312.73463 
L 140.863373 305.06383 
L 152.918128 297.052105 
L 165.337991 288.528993 
L 178.10342 279.494495 
L 184.933683 274.55109 
L 382.745177 274.380628 
L 390.273885 265.34613 
L 399.066664 254.436547 
L 408.668882 242.163266 
L 418.921651 228.69675 
L 429.79953 214.036998 
L 441.031201 198.524934 
L 452.605937 182.16056 
L 464.511907 164.943875 
L 476.736889 146.874878 
L 489.268655 127.95357 
L 502.095196 108.179951 
L 515.097597 87.724484 
L 528.376129 66.416704 
L 541.816681 44.427077 
L 546.035725 37.438125 
L 546.035725 37.438125 
" clip-path="url(#p516dfb9ae8)" style="fill: none; stroke-dasharray: 1.85,0.8; stroke-dashoffset: 0; stroke: #0000ff; stroke-width: 0.5"/>
   </g>
   <g id="line2d_32">
    <path d="M 82.813739 339.838125 
L 93.891579 333.701485 
L 105.426504 327.053458 
L 117.099225 320.064506 
L 128.903943 312.73463 
L 140.835067 305.06383 
L 152.888274 297.052105 
L 165.306239 288.528993 
L 178.069298 279.494495 
L 191.167191 269.94861 
L 203.476596 260.743649 
L 379.558356 260.573187 
L 386.431097 252.391 
L 394.436423 242.50419 
L 403.391116 231.083221 
L 413.126127 218.298553 
L 423.484022 204.32065 
L 434.318925 189.319974 
L 445.614707 173.296524 
L 457.238442 156.420763 
L 469.294296 138.522229 
L 481.653846 119.771383 
L 494.307082 100.168226 
L 507.243877 79.712759 
L 520.454188 58.40498 
L 533.209188 37.438125 
L 533.209188 37.438125 
" clip-path="url(#p516dfb9ae8)" style="fill: none; stroke-dasharray: 1.85,0.8; stroke-dashoffset: 0; stroke: #0000ff; stroke-width: 0.5"/>
   </g>
   <g id="line2d_33">
    <path d="M 82.790379 339.838125 
L 93.867508 333.701485 
L 105.401599 327.053458 
L 117.073362 320.064506 
L 128.876967 312.73463 
L 140.806788 305.06383 
L 152.858452 297.052105 
L 165.274525 288.528993 
L 178.035224 279.494495 
L 191.130108 269.94861 
L 205.010915 259.550414 
L 215.481886 251.538689 
L 378.120808 251.368226 
L 384.631835 243.697426 
L 392.143052 234.492465 
L 400.610973 223.753345 
L 409.86407 211.650526 
L 419.744731 198.354472 
L 430.229643 183.865182 
L 441.176287 168.353119 
L 452.569634 151.818283 
L 464.394236 134.260673 
L 476.523407 115.850752 
L 489.057351 96.418057 
L 501.873816 76.133052 
L 514.963837 54.995735 
L 525.647337 37.438125 
L 525.647337 37.438125 
" clip-path="url(#p516dfb9ae8)" style="fill: none; stroke-dasharray: 1.85,0.8; stroke-dashoffset: 0; stroke: #0000ff; stroke-width: 0.5"/>
   </g>
   <g id="line2d_34">
    <path d="M 82.767032 339.838125 
L 93.843453 333.701485 
L 105.376712 327.053458 
L 117.047518 320.064506 
L 128.850014 312.73463 
L 140.778536 305.06383 
L 152.828662 297.052105 
L 165.242849 288.528993 
L 178.001199 279.494495 
L 191.093088 269.94861 
L 204.969816 259.550414 
L 220.061537 247.958982 
L 224.440868 244.549737 
L 377.172859 244.379275 
L 383.325571 237.219861 
L 390.490706 228.526287 
L 398.484808 218.469016 
L 407.27452 207.048046 
L 416.700147 194.433841 
L 426.738185 180.6264 
L 437.365135 165.625724 
L 448.441657 149.602274 
L 459.953489 132.556051 
L 471.886081 114.487054 
L 484.224769 95.395284 
L 496.848115 75.451203 
L 509.747983 54.65481 
L 520.240701 37.438125 
L 520.240701 37.438125 
" clip-path="url(#p516dfb9ae8)" style="fill: none; stroke-dasharray: 1.85,0.8; stroke-dashoffset: 0; stroke: #0000ff; stroke-width: 0.5"/>
   </g>
   <g id="line2d_35">
    <path d="M 82.743699 339.838125 
L 93.819412 333.701485 
L 105.351842 327.053458 
L 117.021694 320.064506 
L 128.823083 312.73463 
L 140.75031 305.06383 
L 152.798903 297.052105 
L 165.211212 288.528993 
L 177.967221 279.494495 
L 191.05613 269.94861 
L 204.928802 259.550414 
L 220.014547 247.958982 
L 231.785991 238.754021 
L 376.536048 238.583559 
L 382.469036 231.76507 
L 389.282926 223.582883 
L 396.936328 214.036998 
L 405.392221 203.127415 
L 414.488668 191.024596 
L 424.201914 177.728542 
L 434.508564 163.239252 
L 445.386067 147.556727 
L 456.698616 130.851428 
L 468.432818 113.123356 
L 480.574992 94.372511 
L 493.11131 74.598892 
L 505.923109 53.972962 
L 516.014808 37.438125 
L 516.014808 37.438125 
" clip-path="url(#p516dfb9ae8)" style="fill: none; stroke-dasharray: 1.85,0.8; stroke-dashoffset: 0; stroke: #0000ff; stroke-width: 0.5"/>
   </g>
   <g id="line2d_36">
    <path d="M 82.720379 339.838125 
L 93.795386 333.701485 
L 105.326989 327.053458 
L 116.995889 320.064506 
L 128.796175 312.73463 
L 140.72211 305.06383 
L 152.769175 297.052105 
L 165.179613 288.528993 
L 177.933292 279.494495 
L 191.019234 269.94861 
L 204.887873 259.550414 
L 219.967683 247.958982 
L 238.000767 233.810617 
L 376.02239 233.640154 
L 381.733846 227.162589 
L 388.195727 219.491789 
L 395.511598 210.457291 
L 403.639657 200.059095 
L 412.414757 188.467663 
L 421.812358 175.682995 
L 431.808741 161.705092 
L 442.381352 146.533954 
L 453.394143 130.340042 
L 464.946219 112.952894 
L 476.907544 94.542973 
L 489.265119 75.110278 
L 501.900667 54.825273 
L 512.5356 37.438125 
L 512.5356 37.438125 
" clip-path="url(#p516dfb9ae8)" style="fill: none; stroke-dasharray: 1.85,0.8; stroke-dashoffset: 0; stroke: #0000ff; stroke-width: 0.5"/>
   </g>
   <g id="line2d_37">
    <path d="M 82.697073 339.838125 
L 93.771376 333.701485 
L 105.302153 327.053458 
L 116.970103 320.064506 
L 128.769289 312.73463 
L 140.693936 305.06383 
L 152.739478 297.052105 
L 165.148052 288.528993 
L 177.89941 279.494495 
L 190.9824 269.94861 
L 204.847029 259.550414 
L 219.920945 247.958982 
L 238.374558 233.469692 
L 243.327225 229.549061 
L 375.514319 229.378599 
L 381.004755 223.241958 
L 387.256924 215.912082 
L 394.369827 207.218508 
L 402.165967 197.331699 
L 410.618193 186.251654 
L 419.700461 173.978373 
L 429.388213 160.511857 
L 439.658486 145.852105 
L 450.489694 129.999117 
L 461.748865 113.123356 
L 473.533593 95.054359 
L 485.716571 75.962589 
L 498.285277 55.848046 
L 509.571539 37.438125 
L 509.571539 37.438125 
" clip-path="url(#p516dfb9ae8)" style="fill: none; stroke-dasharray: 1.85,0.8; stroke-dashoffset: 0; stroke: #0000ff; stroke-width: 0.5"/>
   </g>
   <g id="line2d_38">
    <path d="M 82.673781 339.838125 
L 93.74738 333.701485 
L 105.277333 327.053458 
L 116.944337 320.064506 
L 128.742425 312.73463 
L 140.665789 305.06383 
L 152.709812 297.052105 
L 165.116529 288.528993 
L 177.865576 279.494495 
L 190.945627 269.94861 
L 204.581906 259.720876 
L 219.655155 248.129444 
L 237.886355 233.810617 
L 248.210119 225.628429 
L 375.158791 225.457967 
L 380.419285 219.662251 
L 386.456663 212.6733 
L 393.226135 204.491113 
L 400.826205 194.945228 
L 409.08427 184.206107 
L 417.973732 172.273751 
L 427.469873 159.148159 
L 437.549818 144.829331 
L 448.192254 129.317268 
L 459.264217 112.782432 
L 470.864244 95.054359 
L 482.865159 76.303514 
L 495.254931 56.529895 
L 506.984418 37.438125 
L 506.984418 37.438125 
" clip-path="url(#p516dfb9ae8)" style="fill: none; stroke-dasharray: 1.85,0.8; stroke-dashoffset: 0; stroke: #0000ff; stroke-width: 0.5"/>
   </g>
   <g id="line2d_39">
    <path d="M 82.650501 339.838125 
L 93.7234 333.701485 
L 105.252531 327.053458 
L 116.91859 320.064506 
L 128.715584 312.73463 
L 140.637667 305.06383 
L 152.680178 297.052105 
L 165.085044 288.528993 
L 177.594789 279.664957 
L 190.678577 270.119072 
L 204.316925 259.891338 
L 219.170418 248.470369 
L 237.183581 234.322003 
L 252.657661 222.048723 
L 374.84956 221.87826 
L 380.027893 216.253007 
L 385.841039 209.60498 
L 392.397827 201.763717 
L 399.658836 192.729219 
L 407.591054 182.501485 
L 416.165199 171.080515 
L 425.354872 158.46631 
L 435.136142 144.658869 
L 445.487081 129.658193 
L 456.387247 113.464281 
L 467.706413 96.247595 
L 479.541488 77.837674 
L 491.767667 58.40498 
L 504.373184 37.949512 
L 504.685089 37.438125 
L 504.685089 37.438125 
" clip-path="url(#p516dfb9ae8)" style="fill: none; stroke-dasharray: 1.85,0.8; stroke-dashoffset: 0; stroke: #0000ff; stroke-width: 0.5"/>
   </g>
   <g id="line2d_40">
    <path d="M 82.627236 339.838125 
L 93.699434 333.701485 
L 105.227746 327.053458 
L 116.892863 320.064506 
L 128.688764 312.73463 
L 140.609572 305.06383 
L 152.650574 297.052105 
L 165.053596 288.528993 
L 177.561095 279.664957 
L 190.641984 270.119072 
L 204.276475 259.891338 
L 219.124344 248.470369 
L 236.912183 234.492465 
L 256.89073 218.639478 
L 374.673618 218.469016 
L 379.762961 213.014224 
L 385.491254 206.536659 
L 391.964927 198.865859 
L 399.00653 190.172285 
L 406.726766 180.285476 
L 415.094366 169.205431 
L 424.081772 156.93215 
L 433.664399 143.465633 
L 443.820004 128.805881 
L 454.528075 112.952894 
L 465.769281 95.906671 
L 477.416396 77.837674 
L 489.564674 58.575442 
L 502.091881 38.290436 
L 502.612684 37.438125 
L 502.612684 37.438125 
" clip-path="url(#p516dfb9ae8)" style="fill: none; stroke-dasharray: 1.85,0.8; stroke-dashoffset: 0; stroke: #000000; stroke-width: 0.5"/>
   </g>
   <g id="line2d_41">
    <path d="M 82.395315 339.838125 
L 93.460597 333.701485 
L 104.980813 327.053458 
L 116.636636 320.064506 
L 128.421782 312.73463 
L 140.33003 305.06383 
L 152.356216 297.052105 
L 164.497268 288.699455 
L 176.990073 279.835419 
L 189.819528 270.459996 
L 203.205014 260.402725 
L 217.57813 249.32268 
L 234.008934 236.36755 
L 280.873311 199.206783 
L 286.813445 194.774765 
L 371.632571 194.604303 
L 375.51262 191.195058 
L 379.818146 187.103965 
L 384.511784 182.331022 
L 389.725007 176.705769 
L 395.421367 170.228204 
L 401.715177 162.727866 
L 408.570558 154.204754 
L 415.959669 144.658869 
L 423.985429 133.919748 
L 432.617728 121.987392 
L 441.831443 108.8618 
L 451.604986 94.542973 
L 461.919184 79.03091 
L 472.756447 62.325611 
L 484.10017 44.427077 
L 488.462318 37.438125 
L 488.462318 37.438125 
" clip-path="url(#p516dfb9ae8)" style="fill: none; stroke-dasharray: 1.85,0.8; stroke-dashoffset: 0; stroke: #000000; stroke-width: 0.5"/>
   </g>
   <g id="line2d_42">
    <path d="M 82.164715 339.838125 
L 93.223228 333.701485 
L 104.445879 327.22392 
L 116.103313 320.234968 
L 127.887844 312.905092 
L 139.79303 305.234292 
L 151.81334 297.222567 
L 163.945159 288.869918 
L 176.424276 280.005881 
L 189.234118 270.630459 
L 202.591257 260.573187 
L 216.703659 249.663604 
L 232.426746 237.219861 
L 253.571309 220.173638 
L 276.689867 201.593255 
L 287.013677 193.58153 
L 294.60195 187.956276 
L 300.70792 183.69472 
L 305.733313 180.455938 
L 308.319842 178.921778 
L 366.52388 178.751316 
L 369.430041 177.046693 
L 372.488003 175.001146 
L 375.905467 172.444213 
L 379.624978 169.375893 
L 383.615033 165.796186 
L 388.029109 161.53463 
L 392.827425 156.591225 
L 398.136307 150.795509 
L 403.916582 144.147482 
L 410.14034 136.647144 
L 416.91992 128.124033 
L 424.225106 118.578148 
L 432.156101 107.839027 
L 440.562418 96.077133 
L 449.545949 83.122003 
L 459.084602 68.973638 
L 469.269659 53.461575 
L 479.536249 37.438125 
L 479.536249 37.438125 
" clip-path="url(#p516dfb9ae8)" style="fill: none; stroke-dasharray: 1.85,0.8; stroke-dashoffset: 0; stroke: #000000; stroke-width: 0.5"/>
   </g>
   <g id="line2d_43">
    <path d="M 81.935417 339.838125 
L 92.987302 333.701485 
L 104.202426 327.22392 
L 115.85103 320.234968 
L 127.625386 312.905092 
L 139.518747 305.234292 
L 151.525188 297.222567 
L 163.640561 288.869918 
L 176.099506 280.005881 
L 188.884179 270.630459 
L 201.985802 260.743649 
L 215.842106 250.004529 
L 231.08253 237.90171 
L 249.592009 222.901034 
L 282.970338 195.797539 
L 292.81503 188.126738 
L 300.376494 182.501485 
L 306.45772 178.239929 
L 311.440105 175.001146 
L 315.769481 172.444213 
L 319.359149 170.569128 
L 322.407073 169.205431 
L 325.218098 168.182657 
L 327.715829 167.500808 
L 329.487815 167.159884 
L 330.749303 166.989422 
L 350.964877 166.818959 
L 355.155169 166.478035 
L 358.27598 165.966648 
L 361.072891 165.284799 
L 364.181901 164.262026 
L 367.050955 163.06879 
L 370.1212 161.53463 
L 373.335269 159.659546 
L 376.672177 157.443536 
L 380.126019 154.886603 
L 383.898243 151.818283 
L 387.947468 148.238576 
L 392.422711 143.97702 
L 397.278576 139.033615 
L 402.485487 133.408362 
L 408.169724 126.930797 
L 414.298213 119.600921 
L 420.846986 111.418734 
L 427.926914 102.213773 
L 435.511079 91.986039 
L 443.698608 80.56507 
L 452.461664 67.950865 
L 461.777253 54.143424 
L 471.625764 39.142747 
L 472.729048 37.438125 
L 472.729048 37.438125 
" clip-path="url(#p516dfb9ae8)" style="fill: none; stroke-dasharray: 1.85,0.8; stroke-dashoffset: 0; stroke: #000000; stroke-width: 0.5"/>
   </g>
   <g id="line2d_44">
    <path d="M 81.707398 339.838125 
L 92.752794 333.701485 
L 103.960559 327.22392 
L 115.321769 320.405431 
L 127.096142 313.075555 
L 138.987225 305.404754 
L 150.988784 297.393029 
L 163.096212 289.04038 
L 175.307457 280.346806 
L 187.853041 271.141845 
L 200.72059 261.425498 
L 214.342152 250.85684 
L 228.912516 239.265408 
L 245.684995 225.628429 
L 293.444195 186.592578 
L 302.082524 179.944551 
L 309.076323 174.830684 
L 314.790348 170.910053 
L 319.899635 167.67127 
L 324.355178 165.114337 
L 328.384501 163.06879 
L 331.877355 161.53463 
L 335.568514 160.170932 
L 339.533699 158.977697 
L 344.3763 157.784461 
L 356.709593 154.886603 
L 360.664731 153.693367 
L 364.407526 152.32967 
L 367.937562 150.795509 
L 371.30286 149.090887 
L 374.830967 147.04534 
L 378.477277 144.658869 
L 382.224606 141.931473 
L 386.273429 138.692691 
L 390.391158 135.112984 
L 394.942959 130.851428 
L 399.710932 126.078486 
L 404.843893 120.623694 
L 410.463003 114.316592 
L 416.388127 107.32764 
L 422.744505 99.486378 
L 429.63965 90.622341 
L 437.042734 80.735532 
L 444.929938 69.825949 
L 453.399923 57.723131 
L 462.427226 44.427077 
L 467.072779 37.438125 
L 467.072779 37.438125 
" clip-path="url(#p516dfb9ae8)" style="fill: none; stroke-dasharray: 1.85,0.8; stroke-dashoffset: 0; stroke: #000000; stroke-width: 0.5"/>
   </g>
   <g id="line2d_45">
    <path d="M 81.480639 339.838125 
L 92.519681 333.701485 
L 103.720248 327.22392 
L 115.073256 320.405431 
L 126.569163 313.246017 
L 138.198606 305.745679 
L 149.953123 297.904416 
L 162.069306 289.551766 
L 174.28458 280.858193 
L 186.828507 271.653232 
L 199.687002 261.936885 
L 213.072168 251.538689 
L 227.188266 240.288181 
L 243.074768 227.333052 
L 264.011474 209.945904 
L 289.712961 188.638125 
L 300.757926 179.774089 
L 309.162052 173.296524 
L 316.141153 168.182657 
L 322.077245 164.091564 
L 327.397763 160.682319 
L 332.326292 157.784461 
L 337.129548 155.227527 
L 341.756805 153.011518 
L 347.277753 150.625047 
L 364.346846 143.465633 
L 368.773122 141.249624 
L 373.018003 138.863153 
L 377.089327 136.30622 
L 381.020005 133.578824 
L 385.061933 130.510504 
L 389.399177 126.930797 
L 393.801295 123.010166 
L 398.622341 118.407685 
L 403.64831 113.293818 
L 409.025135 107.498102 
L 414.72646 101.020538 
L 420.874177 93.690662 
L 427.438699 85.508474 
L 434.398385 76.473976 
L 441.861472 66.416704 
L 449.803586 55.336659 
L 458.322046 43.063379 
L 462.142746 37.438125 
L 462.142746 37.438125 
" clip-path="url(#p516dfb9ae8)" style="fill: none; stroke-dasharray: 1.85,0.8; stroke-dashoffset: 0; stroke: #000000; stroke-width: 0.5"/>
   </g>
   <g id="line2d_46">
    <path d="M 81.255121 339.838125 
L 92.287939 333.701485 
L 103.481466 327.22392 
L 114.826463 320.405431 
L 126.313199 313.246017 
L 137.932069 305.745679 
L 149.674303 297.904416 
L 161.532688 289.722229 
L 173.738005 281.028655 
L 186.038917 271.994157 
L 198.661533 262.448272 
L 211.813796 252.220538 
L 225.693491 241.140493 
L 240.912989 228.69675 
L 259.096252 213.525611 
L 298.802176 180.285476 
L 309.209656 171.932826 
L 317.6259 165.455261 
L 324.851389 160.170932 
L 331.283606 155.738914 
L 337.369002 151.818283 
L 343.335708 148.238576 
L 350.025113 144.488407 
L 368.590757 134.260673 
L 373.796841 131.021891 
L 378.568625 127.783108 
L 383.183896 124.373863 
L 387.661941 120.794157 
L 392.413567 116.703063 
L 397.216016 112.271045 
L 402.243146 107.32764 
L 407.634893 101.702387 
L 413.20526 95.565746 
L 419.095355 88.747257 
L 425.424167 81.076456 
L 432.162359 72.553345 
L 439.288328 63.177922 
L 446.908823 52.779726 
L 454.999888 41.358756 
L 457.719666 37.438125 
L 457.719666 37.438125 
" clip-path="url(#p516dfb9ae8)" style="fill: none; stroke-dasharray: 1.85,0.8; stroke-dashoffset: 0; stroke: #000000; stroke-width: 0.5"/>
   </g>
   <g id="line2d_47">
    <path d="M 81.030824 339.838125 
L 92.057545 333.701485 
L 103.244184 327.22392 
L 114.581356 320.405431 
L 126.059148 313.246017 
L 137.667728 305.745679 
L 149.398032 297.904416 
L 161.242472 289.722229 
L 173.430972 281.028655 
L 185.711756 271.994157 
L 198.309457 262.448272 
L 211.213939 252.391 
L 224.845909 241.481417 
L 239.396156 229.549061 
L 256.080238 215.571158 
L 282.729688 192.899681 
L 301.525365 177.046693 
L 312.972006 167.67127 
L 322.259236 160.341394 
L 330.386925 154.204754 
L 337.982698 148.749963 
L 345.486375 143.636096 
L 354.40296 137.84038 
L 369.66402 127.95357 
L 375.775821 123.692015 
L 381.251449 119.600921 
L 386.357214 115.509827 
L 391.522378 111.077809 
L 396.728903 106.304867 
L 401.973528 101.191 
L 407.42142 95.565746 
L 413.056672 89.429106 
L 419.016095 82.610617 
L 425.276684 75.110278 
L 431.956195 66.757629 
L 439.028749 57.552668 
L 446.475151 47.495397 
L 453.680161 37.438125 
L 453.680161 37.438125 
" clip-path="url(#p516dfb9ae8)" style="fill: none; stroke-dasharray: 1.85,0.8; stroke-dashoffset: 0; stroke: #000000; stroke-width: 0.5"/>
   </g>
   <g id="patch_10">
    <path d="M 55.667187 354.958125 
L 55.667187 22.318125 
" style="fill: none; stroke: #000000; stroke-width: 0.8; stroke-linejoin: miter; stroke-linecap: square"/>
   </g>
   <g id="patch_11">
    <path d="M 613.667187 354.958125 
L 613.667187 22.318125 
" style="fill: none; stroke: #000000; stroke-width: 0.8; stroke-linejoin: miter; stroke-linecap: square"/>
   </g>
   <g id="patch_12">
    <path d="M 55.667187 354.958125 
L 613.667187 354.958125 
" style="fill: none; stroke: #000000; stroke-width: 0.8; stroke-linejoin: miter; stroke-linecap: square"/>
   </g>
   <g id="patch_13">
    <path d="M 55.667187 22.318125 
L 613.667187 22.318125 
" style="fill: none; stroke: #000000; stroke-width: 0.8; stroke-linejoin: miter; stroke-linecap: square"/>
   </g>
   <g id="text_16">
    <!-- 0.1 bar -->
    <g transform="translate(66.456911 354.838125) scale(0.06 -0.06)">
     <defs>
      <path id="DejaVuSans-11" d="M 684 794 
L 1344 794 
L 1344 0 
L 684 0 
L 684 794 
z
" transform="scale(0.015625)"/>
      <path id="DejaVuSans-45" d="M 3116 1747 
Q 3116 2381 2855 2742 
Q 2594 3103 2138 3103 
Q 1681 3103 1420 2742 
Q 1159 2381 1159 1747 
Q 1159 1113 1420 752 
Q 1681 391 2138 391 
Q 2594 391 2855 752 
Q 3116 1113 3116 1747 
z
M 1159 2969 
Q 1341 3281 1617 3432 
Q 1894 3584 2278 3584 
Q 2916 3584 3314 3078 
Q 3713 2572 3713 1747 
Q 3713 922 3314 415 
Q 2916 -91 2278 -91 
Q 1894 -91 1617 61 
Q 1341 213 1159 525 
L 1159 0 
L 581 0 
L 581 4863 
L 1159 4863 
L 1159 2969 
z
" transform="scale(0.015625)"/>
     </defs>
     <use xlink:href="#DejaVuSans-13"/>
     <use xlink:href="#DejaVuSans-11" transform="translate(63.625 0)"/>
     <use xlink:href="#DejaVuSans-14" transform="translate(95.40625 0)"/>
     <use xlink:href="#DejaVuSans-3" transform="translate(159.03125 0)"/>
     <use xlink:href="#DejaVuSans-45" transform="translate(190.8125 0)"/>
     <use xlink:href="#DejaVuSans-44" transform="translate(254.296875 0)"/>
     <use xlink:href="#DejaVuSans-55" transform="translate(315.578125 0)"/>
    </g>
   </g>
   <g id="text_17">
    <!-- 0.5 bar -->
    <g transform="translate(94.241505 338.985137) scale(0.06 -0.06)">
     <use xlink:href="#DejaVuSans-13"/>
     <use xlink:href="#DejaVuSans-11" transform="translate(63.625 0)"/>
     <use xlink:href="#DejaVuSans-18" transform="translate(95.40625 0)"/>
     <use xlink:href="#DejaVuSans-3" transform="translate(159.03125 0)"/>
     <use xlink:href="#DejaVuSans-45" transform="translate(190.8125 0)"/>
     <use xlink:href="#DejaVuSans-44" transform="translate(254.296875 0)"/>
     <use xlink:href="#DejaVuSans-55" transform="translate(315.578125 0)"/>
    </g>
   </g>
   <g id="text_18">
    <!-- 10.0 bar -->
    <g transform="translate(398.152122 179.773412) scale(0.06 -0.06)">
     <use xlink:href="#DejaVuSans-14"/>
     <use xlink:href="#DejaVuSans-13" transform="translate(63.625 0)"/>
     <use xlink:href="#DejaVuSans-11" transform="translate(127.25 0)"/>
     <use xlink:href="#DejaVuSans-13" transform="translate(159.03125 0)"/>
     <use xlink:href="#DejaVuSans-3" transform="translate(222.65625 0)"/>
     <use xlink:href="#DejaVuSans-45" transform="translate(254.4375 0)"/>
     <use xlink:href="#DejaVuSans-44" transform="translate(317.921875 0)"/>
     <use xlink:href="#DejaVuSans-55" transform="translate(379.203125 0)"/>
    </g>
   </g>
   <g id="text_19">
    <!-- 20.0 bar -->
    <g transform="translate(392.607021 163.749963) scale(0.06 -0.06)">
     <use xlink:href="#DejaVuSans-15"/>
     <use xlink:href="#DejaVuSans-13" transform="translate(63.625 0)"/>
     <use xlink:href="#DejaVuSans-11" transform="translate(127.25 0)"/>
     <use xlink:href="#DejaVuSans-13" transform="translate(159.03125 0)"/>
     <use xlink:href="#DejaVuSans-3" transform="translate(222.65625 0)"/>
     <use xlink:href="#DejaVuSans-45" transform="translate(254.4375 0)"/>
     <use xlink:href="#DejaVuSans-44" transform="translate(317.921875 0)"/>
     <use xlink:href="#DejaVuSans-55" transform="translate(379.203125 0)"/>
    </g>
   </g>
   <g id="text_20">
    <!-- 30.0 bar -->
    <g transform="translate(392.938557 147.896975) scale(0.06 -0.06)">
     <defs>
      <path id="DejaVuSans-16" d="M 2597 2516 
Q 3050 2419 3304 2112 
Q 3559 1806 3559 1356 
Q 3559 666 3084 287 
Q 2609 -91 1734 -91 
Q 1441 -91 1130 -33 
Q 819 25 488 141 
L 488 750 
Q 750 597 1062 519 
Q 1375 441 1716 441 
Q 2309 441 2620 675 
Q 2931 909 2931 1356 
Q 2931 1769 2642 2001 
Q 2353 2234 1838 2234 
L 1294 2234 
L 1294 2753 
L 1863 2753 
Q 2328 2753 2575 2939 
Q 2822 3125 2822 3475 
Q 2822 3834 2567 4026 
Q 2313 4219 1838 4219 
Q 1578 4219 1281 4162 
Q 984 4106 628 3988 
L 628 4550 
Q 988 4650 1302 4700 
Q 1616 4750 1894 4750 
Q 2613 4750 3031 4423 
Q 3450 4097 3450 3541 
Q 3450 3153 3228 2886 
Q 3006 2619 2597 2516 
z
" transform="scale(0.015625)"/>
     </defs>
     <use xlink:href="#DejaVuSans-16"/>
     <use xlink:href="#DejaVuSans-13" transform="translate(63.625 0)"/>
     <use xlink:href="#DejaVuSans-11" transform="translate(127.25 0)"/>
     <use xlink:href="#DejaVuSans-13" transform="translate(159.03125 0)"/>
     <use xlink:href="#DejaVuSans-3" transform="translate(222.65625 0)"/>
     <use xlink:href="#DejaVuSans-45" transform="translate(254.4375 0)"/>
     <use xlink:href="#DejaVuSans-44" transform="translate(317.921875 0)"/>
     <use xlink:href="#DejaVuSans-55" transform="translate(379.203125 0)"/>
    </g>
   </g>
   <g id="text_21">
    <!-- 40.0 bar -->
    <g transform="translate(396.155594 132.043987) scale(0.06 -0.06)">
     <defs>
      <path id="DejaVuSans-17" d="M 2419 4116 
L 825 1625 
L 2419 1625 
L 2419 4116 
z
M 2253 4666 
L 3047 4666 
L 3047 1625 
L 3713 1625 
L 3713 1100 
L 3047 1100 
L 3047 0 
L 2419 0 
L 2419 1100 
L 313 1100 
L 313 1709 
L 2253 4666 
z
" transform="scale(0.015625)"/>
     </defs>
     <use xlink:href="#DejaVuSans-17"/>
     <use xlink:href="#DejaVuSans-13" transform="translate(63.625 0)"/>
     <use xlink:href="#DejaVuSans-11" transform="translate(127.25 0)"/>
     <use xlink:href="#DejaVuSans-13" transform="translate(159.03125 0)"/>
     <use xlink:href="#DejaVuSans-3" transform="translate(222.65625 0)"/>
     <use xlink:href="#DejaVuSans-45" transform="translate(254.4375 0)"/>
     <use xlink:href="#DejaVuSans-44" transform="translate(317.921875 0)"/>
     <use xlink:href="#DejaVuSans-55" transform="translate(379.203125 0)"/>
    </g>
   </g>
   <g id="text_22">
    <!-- 50.0 bar -->
    <g transform="translate(401.303013 116.020538) scale(0.06 -0.06)">
     <use xlink:href="#DejaVuSans-18"/>
     <use xlink:href="#DejaVuSans-13" transform="translate(63.625 0)"/>
     <use xlink:href="#DejaVuSans-11" transform="translate(127.25 0)"/>
     <use xlink:href="#DejaVuSans-13" transform="translate(159.03125 0)"/>
     <use xlink:href="#DejaVuSans-3" transform="translate(222.65625 0)"/>
     <use xlink:href="#DejaVuSans-45" transform="translate(254.4375 0)"/>
     <use xlink:href="#DejaVuSans-44" transform="translate(317.921875 0)"/>
     <use xlink:href="#DejaVuSans-55" transform="translate(379.203125 0)"/>
    </g>
   </g>
   <g id="text_23">
    <!-- 60.0 bar -->
    <g transform="translate(407.487661 100.16755) scale(0.06 -0.06)">
     <defs>
      <path id="DejaVuSans-19" d="M 2113 2584 
Q 1688 2584 1439 2293 
Q 1191 2003 1191 1497 
Q 1191 994 1439 701 
Q 1688 409 2113 409 
Q 2538 409 2786 701 
Q 3034 994 3034 1497 
Q 3034 2003 2786 2293 
Q 2538 2584 2113 2584 
z
M 3366 4563 
L 3366 3988 
Q 3128 4100 2886 4159 
Q 2644 4219 2406 4219 
Q 1781 4219 1451 3797 
Q 1122 3375 1075 2522 
Q 1259 2794 1537 2939 
Q 1816 3084 2150 3084 
Q 2853 3084 3261 2657 
Q 3669 2231 3669 1497 
Q 3669 778 3244 343 
Q 2819 -91 2113 -91 
Q 1303 -91 875 529 
Q 447 1150 447 2328 
Q 447 3434 972 4092 
Q 1497 4750 2381 4750 
Q 2619 4750 2861 4703 
Q 3103 4656 3366 4563 
z
" transform="scale(0.015625)"/>
     </defs>
     <use xlink:href="#DejaVuSans-19"/>
     <use xlink:href="#DejaVuSans-13" transform="translate(63.625 0)"/>
     <use xlink:href="#DejaVuSans-11" transform="translate(127.25 0)"/>
     <use xlink:href="#DejaVuSans-13" transform="translate(159.03125 0)"/>
     <use xlink:href="#DejaVuSans-3" transform="translate(222.65625 0)"/>
     <use xlink:href="#DejaVuSans-45" transform="translate(254.4375 0)"/>
     <use xlink:href="#DejaVuSans-44" transform="translate(317.921875 0)"/>
     <use xlink:href="#DejaVuSans-55" transform="translate(379.203125 0)"/>
    </g>
   </g>
   <g id="text_24">
    <!-- 70.0 bar -->
    <g transform="translate(414.566284 84.1441) scale(0.06 -0.06)">
     <defs>
      <path id="DejaVuSans-1a" d="M 525 4666 
L 3525 4666 
L 3525 4397 
L 1831 0 
L 1172 0 
L 2766 4134 
L 525 4134 
L 525 4666 
z
" transform="scale(0.015625)"/>
     </defs>
     <use xlink:href="#DejaVuSans-1a"/>
     <use xlink:href="#DejaVuSans-13" transform="translate(63.625 0)"/>
     <use xlink:href="#DejaVuSans-11" transform="translate(127.25 0)"/>
     <use xlink:href="#DejaVuSans-13" transform="translate(159.03125 0)"/>
     <use xlink:href="#DejaVuSans-3" transform="translate(222.65625 0)"/>
     <use xlink:href="#DejaVuSans-45" transform="translate(254.4375 0)"/>
     <use xlink:href="#DejaVuSans-44" transform="translate(317.921875 0)"/>
     <use xlink:href="#DejaVuSans-55" transform="translate(379.203125 0)"/>
    </g>
   </g>
   <g id="text_25">
    <!-- 80.0 bar -->
    <g transform="translate(421.997784 68.291113) scale(0.06 -0.06)">
     <defs>
      <path id="DejaVuSans-1b" d="M 2034 2216 
Q 1584 2216 1326 1975 
Q 1069 1734 1069 1313 
Q 1069 891 1326 650 
Q 1584 409 2034 409 
Q 2484 409 2743 651 
Q 3003 894 3003 1313 
Q 3003 1734 2745 1975 
Q 2488 2216 2034 2216 
z
M 1403 2484 
Q 997 2584 770 2862 
Q 544 3141 544 3541 
Q 544 4100 942 4425 
Q 1341 4750 2034 4750 
Q 2731 4750 3128 4425 
Q 3525 4100 3525 3541 
Q 3525 3141 3298 2862 
Q 3072 2584 2669 2484 
Q 3125 2378 3379 2068 
Q 3634 1759 3634 1313 
Q 3634 634 3220 271 
Q 2806 -91 2034 -91 
Q 1263 -91 848 271 
Q 434 634 434 1313 
Q 434 1759 690 2068 
Q 947 2378 1403 2484 
z
M 1172 3481 
Q 1172 3119 1398 2916 
Q 1625 2713 2034 2713 
Q 2441 2713 2670 2916 
Q 2900 3119 2900 3481 
Q 2900 3844 2670 4047 
Q 2441 4250 2034 4250 
Q 1625 4250 1398 4047 
Q 1172 3844 1172 3481 
z
" transform="scale(0.015625)"/>
     </defs>
     <use xlink:href="#DejaVuSans-1b"/>
     <use xlink:href="#DejaVuSans-13" transform="translate(63.625 0)"/>
     <use xlink:href="#DejaVuSans-11" transform="translate(127.25 0)"/>
     <use xlink:href="#DejaVuSans-13" transform="translate(159.03125 0)"/>
     <use xlink:href="#DejaVuSans-3" transform="translate(222.65625 0)"/>
     <use xlink:href="#DejaVuSans-45" transform="translate(254.4375 0)"/>
     <use xlink:href="#DejaVuSans-44" transform="translate(317.921875 0)"/>
     <use xlink:href="#DejaVuSans-55" transform="translate(379.203125 0)"/>
    </g>
   </g>
   <g id="text_26">
    <!-- Temperature-Entropy Diagram for R134a -->
    <g transform="translate(212.15375 16.318125) scale(0.12 -0.12)">
     <defs>
      <path id="DejaVuSans-27" d="M 1259 4147 
L 1259 519 
L 2022 519 
Q 2988 519 3436 956 
Q 3884 1394 3884 2338 
Q 3884 3275 3436 3711 
Q 2988 4147 2022 4147 
L 1259 4147 
z
M 628 4666 
L 1925 4666 
Q 3281 4666 3915 4102 
Q 4550 3538 4550 2338 
Q 4550 1131 3912 565 
Q 3275 0 1925 0 
L 628 0 
L 628 4666 
z
" transform="scale(0.015625)"/>
      <path id="DejaVuSans-4c" d="M 603 3500 
L 1178 3500 
L 1178 0 
L 603 0 
L 603 3500 
z
M 603 4863 
L 1178 4863 
L 1178 4134 
L 603 4134 
L 603 4863 
z
" transform="scale(0.015625)"/>
      <path id="DejaVuSans-49" d="M 2375 4863 
L 2375 4384 
L 1825 4384 
Q 1516 4384 1395 4259 
Q 1275 4134 1275 3809 
L 1275 3500 
L 2222 3500 
L 2222 3053 
L 1275 3053 
L 1275 0 
L 697 0 
L 697 3053 
L 147 3053 
L 147 3500 
L 697 3500 
L 697 3744 
Q 697 4328 969 4595 
Q 1241 4863 1831 4863 
L 2375 4863 
z
" transform="scale(0.015625)"/>
      <path id="DejaVuSans-35" d="M 2841 2188 
Q 3044 2119 3236 1894 
Q 3428 1669 3622 1275 
L 4263 0 
L 3584 0 
L 2988 1197 
Q 2756 1666 2539 1819 
Q 2322 1972 1947 1972 
L 1259 1972 
L 1259 0 
L 628 0 
L 628 4666 
L 2053 4666 
Q 2853 4666 3247 4331 
Q 3641 3997 3641 3322 
Q 3641 2881 3436 2590 
Q 3231 2300 2841 2188 
z
M 1259 4147 
L 1259 2491 
L 2053 2491 
Q 2509 2491 2742 2702 
Q 2975 2913 2975 3322 
Q 2975 3731 2742 3939 
Q 2509 4147 2053 4147 
L 1259 4147 
z
" transform="scale(0.015625)"/>
     </defs>
     <use xlink:href="#DejaVuSans-37"/>
     <use xlink:href="#DejaVuSans-48" transform="translate(44.09375 0)"/>
     <use xlink:href="#DejaVuSans-50" transform="translate(105.625 0)"/>
     <use xlink:href="#DejaVuSans-53" transform="translate(203.03125 0)"/>
     <use xlink:href="#DejaVuSans-48" transform="translate(266.515625 0)"/>
     <use xlink:href="#DejaVuSans-55" transform="translate(328.046875 0)"/>
     <use xlink:href="#DejaVuSans-44" transform="translate(369.15625 0)"/>
     <use xlink:href="#DejaVuSans-57" transform="translate(430.4375 0)"/>
     <use xlink:href="#DejaVuSans-58" transform="translate(469.640625 0)"/>
     <use xlink:href="#DejaVuSans-55" transform="translate(533.015625 0)"/>
     <use xlink:href="#DejaVuSans-48" transform="translate(571.921875 0)"/>
     <use xlink:href="#DejaVuSans-10" transform="translate(633.453125 0)"/>
     <use xlink:href="#DejaVuSans-28" transform="translate(669.53125 0)"/>
     <use xlink:href="#DejaVuSans-51" transform="translate(732.71875 0)"/>
     <use xlink:href="#DejaVuSans-57" transform="translate(796.09375 0)"/>
     <use xlink:href="#DejaVuSans-55" transform="translate(835.296875 0)"/>
     <use xlink:href="#DejaVuSans-52" transform="translate(874.203125 0)"/>
     <use xlink:href="#DejaVuSans-53" transform="translate(935.390625 0)"/>
     <use xlink:href="#DejaVuSans-5c" transform="translate(998.875 0)"/>
     <use xlink:href="#DejaVuSans-3" transform="translate(1058.0625 0)"/>
     <use xlink:href="#DejaVuSans-27" transform="translate(1089.84375 0)"/>
     <use xlink:href="#DejaVuSans-4c" transform="translate(1166.84375 0)"/>
     <use xlink:href="#DejaVuSans-44" transform="translate(1194.625 0)"/>
     <use xlink:href="#DejaVuSans-4a" transform="translate(1255.90625 0)"/>
     <use xlink:href="#DejaVuSans-55" transform="translate(1319.390625 0)"/>
     <use xlink:href="#DejaVuSans-44" transform="translate(1360.5 0)"/>
     <use xlink:href="#DejaVuSans-50" transform="translate(1421.78125 0)"/>
     <use xlink:href="#DejaVuSans-3" transform="translate(1519.1875 0)"/>
     <use xlink:href="#DejaVuSans-49" transform="translate(1550.96875 0)"/>
     <use xlink:href="#DejaVuSans-52" transform="translate(1586.171875 0)"/>
     <use xlink:href="#DejaVuSans-55" transform="translate(1647.359375 0)"/>
     <use xlink:href="#DejaVuSans-3" transform="translate(1688.46875 0)"/>
     <use xlink:href="#DejaVuSans-35" transform="translate(1720.25 0)"/>
     <use xlink:href="#DejaVuSans-14" transform="translate(1789.734375 0)"/>
     <use xlink:href="#DejaVuSans-16" transform="translate(1853.359375 0)"/>
     <use xlink:href="#DejaVuSans-17" transform="translate(1916.984375 0)"/>
     <use xlink:href="#DejaVuSans-44" transform="translate(1980.609375 0)"/>
    </g>
   </g>
  </g>
 </g>
 <defs>
  <clipPath id="p516dfb9ae8">
   <rect x="55.667187" y="22.318125" width="558" height="332.64"/>
  </clipPath>
 </defs>
</svg>
