<svg xmlns="http://www.w3.org/2000/svg" width="760" height="360" viewBox="0 0 760 360">
<rect width="100%" height="100%" fill="#fff"/>
<text x="30" y="30" font-family="Arial" font-size="18" font-weight="700">Aperçu du diagramme T-S du cycle</text>
<line x1="72" y1="288" x2="692" y2="288" stroke="#111827"/>
<line x1="72" y1="58" x2="72" y2="288" stroke="#111827"/>
<text x="382.0" y="338" font-family="Arial" font-size="12" text-anchor="middle">Entropie spécifique</text>
<text x="18" y="173.0" font-family="Arial" font-size="12" text-anchor="middle" transform="rotate(-90 18,173.0)">Température (degC)</text>
<line x1="72" y1="58.0" x2="692" y2="58.0" stroke="#e5e7eb"/>
<line x1="72" y1="104.0" x2="692" y2="104.0" stroke="#e5e7eb"/>
<line x1="72" y1="150.0" x2="692" y2="150.0" stroke="#e5e7eb"/>
<line x1="72" y1="196.0" x2="692" y2="196.0" stroke="#e5e7eb"/>
<line x1="72" y1="242.0" x2="692" y2="242.0" stroke="#e5e7eb"/>
<line x1="72" y1="288.0" x2="692" y2="288.0" stroke="#e5e7eb"/>
<polyline points="72.0,288.0 160.6,269.1 249.1,58.0 337.7,125.9 426.3,156.0 514.9,167.3 603.4,288.0 692.0,288.0" fill="none" stroke="#2670a8" stroke-width="2.4"/>
<text x="710" y="78" font-family="Arial" font-size="12" fill="#2670a8">Cycle R134a</text>
<polyline points="72.0,288.0 160.6,258.4 249.1,212.9 337.7,167.3 426.3,121.8 514.9,89.9 603.4,71.7 692.0,58.0" fill="none" stroke="#d97706" stroke-width="2.4"/>
<text x="710" y="98" font-family="Arial" font-size="12" fill="#d97706">Saturation</text>
</svg>