<?xml version="1.0" encoding="utf-8" standalone="no"?>
<!DOCTYPE svg PUBLIC "-//W3C//DTD SVG 1.1//EN"
  "http://www.w3.org/Graphics/SVG/1.1/DTD/svg11.dtd">
<svg xmlns:xlink="http://www.w3.org/1999/xlink" width="952.56pt" height="532.878438pt" viewBox="0 0 952.56 532.878438" xmlns="http://www.w3.org/2000/svg" version="1.1">
 <metadata>
  <rdf:RDF xmlns:dc="http://purl.org/dc/elements/1.1/" xmlns:cc="http://creativecommons.org/ns#" xmlns:rdf="http://www.w3.org/1999/02/22-rdf-syntax-ns#">
   <cc:Work>
    <dc:type rdf:resource="http://purl.org/dc/dcmitype/StillImage"/>
    <dc:date>2026-07-10T23:03:20.953190</dc:date>
    <dc:format>image/svg+xml</dc:format>
    <dc:creator>
     <cc:Agent>
      <dc:title>Matplotlib v3.11.0, https://matplotlib.org/</dc:title>
     </cc:Agent>
    </dc:creator>
   </cc:Work>
  </rdf:RDF>
 </metadata>
 <defs>
  <style type="text/css">*{stroke-linejoin: round; stroke-linecap: butt}</style>
 </defs>
 <g id="figure_1">
  <g id="patch_1">
   <path d="M 0 532.878438 
L 952.56 532.878438 
L 952.56 0 
L 0 0 
z
" style="fill: #ffffff"/>
  </g>
  <g id="axes_1">
   <g id="patch_2">
    <path d="M 437.513058 174.978037 
L 515.046942 174.978037 
Q 534.430413 174.978037 534.430413 159.431658 
L 534.430413 128.3389 
Q 534.430413 112.792521 515.046942 112.792521 
L 437.513058 112.792521 
Q 418.129587 112.792521 418.129587 128.3389 
L 418.129587 159.431658 
Q 418.129587 174.978037 437.513058 174.978037 
z
" clip-path="url(#p776403cfd0)" style="fill: #008000; stroke: #ff0000; stroke-width: 0.6; stroke-linejoin: miter"/>
   </g>
   <g id="patch_3">
    <path d="M 695.959339 174.978037 
L 773.493223 174.978037 
Q 792.876694 174.978037 792.876694 159.431658 
L 792.876694 128.3389 
Q 792.876694 112.792521 773.493223 112.792521 
L 695.959339 112.792521 
Q 676.575868 112.792521 676.575868 128.3389 
L 676.575868 159.431658 
Q 676.575868 174.978037 695.959339 174.978037 
z
" clip-path="url(#p776403cfd0)" style="fill: #008000; stroke: #ff0000; stroke-width: 0.6; stroke-linejoin: miter"/>
   </g>
   <g id="patch_4">
    <path d="M 372.901488 434.084354 
L 450.435372 434.084354 
Q 469.818843 434.084354 469.818843 418.537975 
L 469.818843 387.445217 
Q 469.818843 371.898838 450.435372 371.898838 
L 372.901488 371.898838 
Q 353.518017 371.898838 353.518017 387.445217 
L 353.518017 418.537975 
Q 353.518017 434.084354 372.901488 434.084354 
z
" clip-path="url(#p776403cfd0)" style="fill: #008000; stroke: #ff0000; stroke-width: 0.6; stroke-linejoin: miter"/>
   </g>
   <g id="patch_5">
    <path d="M 631.347769 434.084354 
L 708.881653 434.084354 
Q 728.265124 434.084354 728.265124 418.537975 
L 728.265124 387.445217 
Q 728.265124 371.898838 708.881653 371.898838 
L 631.347769 371.898838 
Q 611.964298 371.898838 611.964298 387.445217 
L 611.964298 418.537975 
Q 611.964298 434.084354 631.347769 434.084354 
z
" clip-path="url(#p776403cfd0)" style="fill: #008000; stroke: #ff0000; stroke-width: 0.6; stroke-linejoin: miter"/>
   </g>
   <g id="patch_6">
    <path d="M 69.227107 165.909316 
L 107.99405 165.909316 
Q 127.377521 165.909316 127.377521 150.362937 
L 127.377521 137.407621 
Q 127.377521 121.861242 107.99405 121.861242 
L 69.227107 121.861242 
Q 49.843636 121.861242 49.843636 137.407621 
L 49.843636 150.362937 
Q 49.843636 165.909316 69.227107 165.909316 
z
" clip-path="url(#p776403cfd0)" style="fill: #add8e6"/>
   </g>
   <g id="patch_7">
    <path d="M 586.119669 165.909316 
L 624.886612 165.909316 
Q 644.270083 165.909316 644.270083 150.362937 
L 644.270083 137.407621 
Q 644.270083 121.861242 624.886612 121.861242 
L 586.119669 121.861242 
Q 566.736198 121.861242 566.736198 137.407621 
L 566.736198 150.362937 
Q 566.736198 165.909316 586.119669 165.909316 
z
" clip-path="url(#p776403cfd0)" style="fill: #add8e6"/>
   </g>
   <g id="patch_8">
    <path d="M 456.896529 243.641211 
L 495.663471 243.641211 
Q 515.046942 243.641211 515.046942 228.094832 
L 515.046942 215.139516 
Q 515.046942 199.593137 495.663471 199.593137 
L 456.896529 199.593137 
Q 437.513058 199.593137 437.513058 215.139516 
L 437.513058 228.094832 
Q 437.513058 243.641211 456.896529 243.641211 
z
" clip-path="url(#p776403cfd0)" style="fill: #1f77b4"/>
   </g>
   <g id="patch_9">
    <path d="M 456.896529 88.177421 
L 495.663471 88.177421 
Q 515.046942 88.177421 515.046942 72.631042 
L 515.046942 59.675726 
Q 515.046942 44.129347 495.663471 44.129347 
L 456.896529 44.129347 
Q 437.513058 44.129347 437.513058 59.675726 
L 437.513058 72.631042 
Q 437.513058 88.177421 456.896529 88.177421 
z
" clip-path="url(#p776403cfd0)" style="fill: #1f77b4"/>
   </g>
   <g id="patch_10">
    <path d="M 844.56595 165.909316 
L 883.332893 165.909316 
Q 902.716364 165.909316 902.716364 150.362937 
L 902.716364 137.407621 
Q 902.716364 121.861242 883.332893 121.861242 
L 844.56595 121.861242 
Q 825.182479 121.861242 825.182479 137.407621 
L 825.182479 150.362937 
Q 825.182479 165.909316 844.56595 165.909316 
z
" clip-path="url(#p776403cfd0)" style="fill: #add8e6"/>
   </g>
   <g id="patch_11">
    <path d="M 715.34281 243.641211 
L 754.109752 243.641211 
Q 773.493223 243.641211 773.493223 228.094832 
L 773.493223 215.139516 
Q 773.493223 199.593137 754.109752 199.593137 
L 715.34281 199.593137 
Q 695.959339 199.593137 695.959339 215.139516 
L 695.959339 228.094832 
Q 695.959339 243.641211 715.34281 243.641211 
z
" clip-path="url(#p776403cfd0)" style="fill: #1f77b4"/>
   </g>
   <g id="patch_12">
    <path d="M 715.34281 88.177421 
L 754.109752 88.177421 
Q 773.493223 88.177421 773.493223 72.631042 
L 773.493223 59.675726 
Q 773.493223 44.129347 754.109752 44.129347 
L 715.34281 44.129347 
Q 695.959339 44.129347 695.959339 59.675726 
L 695.959339 72.631042 
Q 695.959339 88.177421 715.34281 88.177421 
z
" clip-path="url(#p776403cfd0)" style="fill: #1f77b4"/>
   </g>
   <g id="patch_13">
    <path d="M 69.227107 425.015633 
L 107.99405 425.015633 
Q 127.377521 425.015633 127.377521 409.469254 
L 127.377521 396.513938 
Q 127.377521 380.967559 107.99405 380.967559 
L 69.227107 380.967559 
Q 49.843636 380.967559 49.843636 396.513938 
L 49.843636 409.469254 
Q 49.843636 425.015633 69.227107 425.015633 
z
" clip-path="url(#p776403cfd0)" style="fill: #add8e6"/>
   </g>
   <g id="patch_14">
    <path d="M 521.508099 425.015633 
L 560.275041 425.015633 
Q 579.658512 425.015633 579.658512 409.469254 
L 579.658512 396.513938 
Q 579.658512 380.967559 560.275041 380.967559 
L 521.508099 380.967559 
Q 502.124628 380.967559 502.124628 396.513938 
L 502.124628 409.469254 
Q 502.124628 425.015633 521.508099 425.015633 
z
" clip-path="url(#p776403cfd0)" style="fill: #add8e6"/>
   </g>
   <g id="patch_15">
    <path d="M 392.284959 502.747528 
L 431.051901 502.747528 
Q 450.435372 502.747528 450.435372 487.201149 
L 450.435372 474.245833 
Q 450.435372 458.699454 431.051901 458.699454 
L 392.284959 458.699454 
Q 372.901488 458.699454 372.901488 474.245833 
L 372.901488 487.201149 
Q 372.901488 502.747528 392.284959 502.747528 
z
" clip-path="url(#p776403cfd0)" style="fill: #9edae5"/>
   </g>
   <g id="patch_16">
    <path d="M 392.284959 347.283738 
L 431.051901 347.283738 
Q 450.435372 347.283738 450.435372 331.737359 
L 450.435372 318.782043 
Q 450.435372 303.235664 431.051901 303.235664 
L 392.284959 303.235664 
Q 372.901488 303.235664 372.901488 318.782043 
L 372.901488 331.737359 
Q 372.901488 347.283738 392.284959 347.283738 
z
" clip-path="url(#p776403cfd0)" style="fill: #9edae5"/>
   </g>
   <g id="patch_17">
    <path d="M 779.95438 425.015633 
L 818.721322 425.015633 
Q 838.104793 425.015633 838.104793 409.469254 
L 838.104793 396.513938 
Q 838.104793 380.967559 818.721322 380.967559 
L 779.95438 380.967559 
Q 760.570909 380.967559 760.570909 396.513938 
L 760.570909 409.469254 
Q 760.570909 425.015633 779.95438 425.015633 
z
" clip-path="url(#p776403cfd0)" style="fill: #add8e6"/>
   </g>
   <g id="patch_18">
    <path d="M 650.73124 502.747528 
L 689.498182 502.747528 
Q 708.881653 502.747528 708.881653 487.201149 
L 708.881653 474.245833 
Q 708.881653 458.699454 689.498182 458.699454 
L 650.73124 458.699454 
Q 631.347769 458.699454 631.347769 474.245833 
L 631.347769 487.201149 
Q 631.347769 502.747528 650.73124 502.747528 
z
" clip-path="url(#p776403cfd0)" style="fill: #1f77b4"/>
   </g>
   <g id="patch_19">
    <path d="M 650.73124 347.283738 
L 689.498182 347.283738 
Q 708.881653 347.283738 708.881653 331.737359 
L 708.881653 318.782043 
Q 708.881653 303.235664 689.498182 303.235664 
L 650.73124 303.235664 
Q 631.347769 303.235664 631.347769 318.782043 
L 631.347769 331.737359 
Q 631.347769 347.283738 650.73124 347.283738 
z
" clip-path="url(#p776403cfd0)" style="fill: #1f77b4"/>
   </g>
   <g id="patch_20">
    <path d="M 97.273632 143.885279 
Q 282.446661 143.885279 466.501657 143.885279 
" clip-path="url(#p776403cfd0)" style="fill: none; stroke: #000000; stroke-linecap: round"/>
    <path d="M 462.501657 141.885279 
L 466.501657 143.885279 
L 462.501657 145.885279 
" clip-path="url(#p776403cfd0)" style="fill: none; stroke: #000000; stroke-linecap: round"/>
   </g>
   <g id="patch_21">
    <path d="M 484.944039 143.885279 
Q 540.895044 143.885279 595.728015 143.885279 
" clip-path="url(#p776403cfd0)" style="fill: none; stroke: #000000; stroke-linecap: round"/>
    <path d="M 591.728015 141.885279 
L 595.728015 143.885279 
L 591.728015 145.885279 
" clip-path="url(#p776403cfd0)" style="fill: none; stroke: #000000; stroke-linecap: round"/>
   </g>
   <g id="patch_22">
    <path d="M 476.28 135.226788 
Q 476.28 105.021929 476.28 75.935104 
" clip-path="url(#p776403cfd0)" style="fill: none; stroke: #000000; stroke-linecap: round"/>
    <path d="M 474.28 79.935104 
L 476.28 75.935104 
L 478.28 79.935104 
" clip-path="url(#p776403cfd0)" style="fill: none; stroke: #000000; stroke-linecap: round"/>
   </g>
   <g id="patch_23">
    <path d="M 614.16718 143.885279 
Q 670.118185 143.885279 724.951156 143.885279 
" clip-path="url(#p776403cfd0)" style="fill: none; stroke: #000000; stroke-linecap: round"/>
    <path d="M 720.951156 141.885279 
L 724.951156 143.885279 
L 720.951156 145.885279 
" clip-path="url(#p776403cfd0)" style="fill: none; stroke: #000000; stroke-linecap: round"/>
   </g>
   <g id="patch_24">
    <path d="M 476.28 212.958683 
Q 476.28 182.753825 476.28 153.667 
" clip-path="url(#p776403cfd0)" style="fill: none; stroke: #000000; stroke-linecap: round"/>
    <path d="M 474.28 157.667 
L 476.28 153.667 
L 478.28 157.667 
" clip-path="url(#p776403cfd0)" style="fill: none; stroke: #000000; stroke-linecap: round"/>
   </g>
   <g id="patch_25">
    <path d="M 743.39032 143.885279 
Q 799.341325 143.885279 854.174296 143.885279 
" clip-path="url(#p776403cfd0)" style="fill: none; stroke: #000000; stroke-linecap: round"/>
    <path d="M 850.174296 141.885279 
L 854.174296 143.885279 
L 850.174296 145.885279 
" clip-path="url(#p776403cfd0)" style="fill: none; stroke: #000000; stroke-linecap: round"/>
   </g>
   <g id="patch_26">
    <path d="M 734.726281 135.226788 
Q 734.726281 105.021929 734.726281 75.935104 
" clip-path="url(#p776403cfd0)" style="fill: none; stroke: #000000; stroke-linecap: round"/>
    <path d="M 732.726281 79.935104 
L 734.726281 75.935104 
L 736.726281 79.935104 
" clip-path="url(#p776403cfd0)" style="fill: none; stroke: #000000; stroke-linecap: round"/>
   </g>
   <g id="patch_27">
    <path d="M 734.726281 212.958683 
Q 734.726281 182.753825 734.726281 153.667 
" clip-path="url(#p776403cfd0)" style="fill: none; stroke: #000000; stroke-linecap: round"/>
    <path d="M 732.726281 157.667 
L 734.726281 153.667 
L 736.726281 157.667 
" clip-path="url(#p776403cfd0)" style="fill: none; stroke: #000000; stroke-linecap: round"/>
   </g>
   <g id="patch_28">
    <path d="M 733.392859 74.709079 
Q 702.420737 273.43689 671.620785 471.060003 
" clip-path="url(#p776403cfd0)" style="fill: none; stroke: #000000; stroke-linecap: round"/>
    <path d="M 674.2129 467.415701 
L 671.620785 471.060003 
L 670.260613 466.799729 
" clip-path="url(#p776403cfd0)" style="fill: none; stroke: #000000; stroke-linecap: round"/>
   </g>
   <g id="patch_29">
    <path d="M 97.27166 402.991596 
Q 250.140469 402.991596 401.891244 402.991596 
" clip-path="url(#p776403cfd0)" style="fill: none; stroke: #000000; stroke-linecap: round"/>
    <path d="M 397.891244 400.991596 
L 401.891244 402.991596 
L 397.891244 404.991596 
" clip-path="url(#p776403cfd0)" style="fill: none; stroke: #000000; stroke-linecap: round"/>
   </g>
   <g id="patch_30">
    <path d="M 420.332469 402.991596 
Q 476.283474 402.991596 531.116445 402.991596 
" clip-path="url(#p776403cfd0)" style="fill: none; stroke: #000000; stroke-linecap: round"/>
    <path d="M 527.116445 400.991596 
L 531.116445 402.991596 
L 527.116445 404.991596 
" clip-path="url(#p776403cfd0)" style="fill: none; stroke: #000000; stroke-linecap: round"/>
   </g>
   <g id="patch_31">
    <path d="M 411.66843 394.333106 
Q 411.66843 364.128247 411.66843 335.041422 
" clip-path="url(#p776403cfd0)" style="fill: none; stroke: #000000; stroke-linecap: round"/>
    <path d="M 409.66843 339.041422 
L 411.66843 335.041422 
L 413.66843 339.041422 
" clip-path="url(#p776403cfd0)" style="fill: none; stroke: #000000; stroke-linecap: round"/>
   </g>
   <g id="patch_32">
    <path d="M 549.55561 402.991596 
Q 605.506615 402.991596 660.339586 402.991596 
" clip-path="url(#p776403cfd0)" style="fill: none; stroke: #000000; stroke-linecap: round"/>
    <path d="M 656.339586 400.991596 
L 660.339586 402.991596 
L 656.339586 404.991596 
" clip-path="url(#p776403cfd0)" style="fill: none; stroke: #000000; stroke-linecap: round"/>
   </g>
   <g id="patch_33">
    <path d="M 411.66843 472.065001 
Q 411.66843 441.860142 411.66843 412.773317 
" clip-path="url(#p776403cfd0)" style="fill: none; stroke: #000000; stroke-linecap: round"/>
    <path d="M 409.66843 416.773317 
L 411.66843 412.773317 
L 413.66843 416.773317 
" clip-path="url(#p776403cfd0)" style="fill: none; stroke: #000000; stroke-linecap: round"/>
   </g>
   <g id="patch_34">
    <path d="M 678.77875 402.991596 
Q 734.729755 402.991596 789.562726 402.991596 
" clip-path="url(#p776403cfd0)" style="fill: none; stroke: #000000; stroke-linecap: round"/>
    <path d="M 785.562726 400.991596 
L 789.562726 402.991596 
L 785.562726 404.991596 
" clip-path="url(#p776403cfd0)" style="fill: none; stroke: #000000; stroke-linecap: round"/>
   </g>
   <g id="patch_35">
    <path d="M 670.114711 394.333106 
Q 670.114711 364.128247 670.114711 335.041422 
" clip-path="url(#p776403cfd0)" style="fill: none; stroke: #000000; stroke-linecap: round"/>
    <path d="M 668.114711 339.041422 
L 670.114711 335.041422 
L 672.114711 339.041422 
" clip-path="url(#p776403cfd0)" style="fill: none; stroke: #000000; stroke-linecap: round"/>
   </g>
   <g id="patch_36">
    <path d="M 670.114711 472.065001 
Q 670.114711 441.860142 670.114711 412.773317 
" clip-path="url(#p776403cfd0)" style="fill: none; stroke: #000000; stroke-linecap: round"/>
    <path d="M 668.114711 416.773317 
L 670.114711 412.773317 
L 672.114711 416.773317 
" clip-path="url(#p776403cfd0)" style="fill: none; stroke: #000000; stroke-linecap: round"/>
   </g>
   <g id="text_1">
    <!-- E1 -->
    <g transform="translate(472.475625 138.242466) scale(0.06 -0.06)">
     <defs>
      <path id="DejaVuSans-28" d="M 628 4666 
L 3578 4666 
L 3578 4134 
L 1259 4134 
L 1259 2753 
L 3481 2753 
L 3481 2222 
L 1259 2222 
L 1259 531 
L 3634 531 
L 3634 0 
L 628 0 
L 628 4666 
z
" transform="scale(0.015625)"/>
      <path id="DejaVuSans-14" d="M 794 531 
L 1825 531 
L 1825 4091 
L 703 3866 
L 703 4441 
L 1819 4666 
L 2450 4666 
L 2450 531 
L 3481 531 
L 3481 0 
L 794 0 
L 794 531 
z
" transform="scale(0.015625)"/>
     </defs>
     <use xlink:href="#DejaVuSans-28"/>
     <use xlink:href="#DejaVuSans-14" transform="translate(63.1875 0)"/>
    </g>
    <!-- Q=420.0 kW -->
    <g transform="translate(457.159219 145.444107) scale(0.06 -0.06)">
     <defs>
      <path id="DejaVuSans-34" d="M 2522 4238 
Q 1834 4238 1429 3725 
Q 1025 3213 1025 2328 
Q 1025 1447 1429 934 
Q 1834 422 2522 422 
Q 3209 422 3611 934 
Q 4013 1447 4013 2328 
Q 4013 3213 3611 3725 
Q 3209 4238 2522 4238 
z
M 3406 84 
L 4238 -825 
L 3475 -825 
L 2784 -78 
Q 2681 -84 2626 -87 
Q 2572 -91 2522 -91 
Q 1538 -91 948 567 
Q 359 1225 359 2328 
Q 359 3434 948 4092 
Q 1538 4750 2522 4750 
Q 3503 4750 4090 4092 
Q 4678 3434 4678 2328 
Q 4678 1516 4351 937 
Q 4025 359 3406 84 
z
" transform="scale(0.015625)"/>
      <path id="DejaVuSans-20" d="M 678 2906 
L 4684 2906 
L 4684 2381 
L 678 2381 
L 678 2906 
z
M 678 1631 
L 4684 1631 
L 4684 1100 
L 678 1100 
L 678 1631 
z
" transform="scale(0.015625)"/>
      <path id="DejaVuSans-17" d="M 2419 4116 
L 825 1625 
L 2419 1625 
L 2419 4116 
z
M 2253 4666 
L 3047 4666 
L 3047 1625 
L 3713 1625 
L 3713 1100 
L 3047 1100 
L 3047 0 
L 2419 0 
L 2419 1100 
L 313 1100 
L 313 1709 
L 2253 4666 
z
" transform="scale(0.015625)"/>
      <path id="DejaVuSans-15" d="M 1228 531 
L 3431 531 
L 3431 0 
L 469 0 
L 469 531 
Q 828 903 1448 1529 
Q 2069 2156 2228 2338 
Q 2531 2678 2651 2914 
Q 2772 3150 2772 3378 
Q 2772 3750 2511 3984 
Q 2250 4219 1831 4219 
Q 1534 4219 1204 4116 
Q 875 4013 500 3803 
L 500 4441 
Q 881 4594 1212 4672 
Q 1544 4750 1819 4750 
Q 2544 4750 2975 4387 
Q 3406 4025 3406 3419 
Q 3406 3131 3298 2873 
Q 3191 2616 2906 2266 
Q 2828 2175 2409 1742 
Q 1991 1309 1228 531 
z
" transform="scale(0.015625)"/>
      <path id="DejaVuSans-13" d="M 2034 4250 
Q 1547 4250 1301 3770 
Q 1056 3291 1056 2328 
Q 1056 1369 1301 889 
Q 1547 409 2034 409 
Q 2525 409 2770 889 
Q 3016 1369 3016 2328 
Q 3016 3291 2770 3770 
Q 2525 4250 2034 4250 
z
M 2034 4750 
Q 2819 4750 3233 4129 
Q 3647 3509 3647 2328 
Q 3647 1150 3233 529 
Q 2819 -91 2034 -91 
Q 1250 -91 836 529 
Q 422 1150 422 2328 
Q 422 3509 836 4129 
Q 1250 4750 2034 4750 
z
" transform="scale(0.015625)"/>
      <path id="DejaVuSans-11" d="M 684 794 
L 1344 794 
L 1344 0 
L 684 0 
L 684 794 
z
" transform="scale(0.015625)"/>
      <path id="DejaVuSans-3" transform="scale(0.015625)"/>
      <path id="DejaVuSans-4e" d="M 581 4863 
L 1159 4863 
L 1159 1991 
L 2875 3500 
L 3609 3500 
L 1753 1863 
L 3688 0 
L 2938 0 
L 1159 1709 
L 1159 0 
L 581 0 
L 581 4863 
z
" transform="scale(0.015625)"/>
      <path id="DejaVuSans-3a" d="M 213 4666 
L 850 4666 
L 1831 722 
L 2809 4666 
L 3519 4666 
L 4500 722 
L 5478 4666 
L 6119 4666 
L 4947 0 
L 4153 0 
L 3169 4050 
L 2175 0 
L 1381 0 
L 213 4666 
z
" transform="scale(0.015625)"/>
     </defs>
     <use xlink:href="#DejaVuSans-34"/>
     <use xlink:href="#DejaVuSans-20" transform="translate(78.71875 0)"/>
     <use xlink:href="#DejaVuSans-17" transform="translate(162.515625 0)"/>
     <use xlink:href="#DejaVuSans-15" transform="translate(226.140625 0)"/>
     <use xlink:href="#DejaVuSans-13" transform="translate(289.765625 0)"/>
     <use xlink:href="#DejaVuSans-11" transform="translate(353.390625 0)"/>
     <use xlink:href="#DejaVuSans-13" transform="translate(385.171875 0)"/>
     <use xlink:href="#DejaVuSans-3" transform="translate(448.796875 0)"/>
     <use xlink:href="#DejaVuSans-4e" transform="translate(480.578125 0)"/>
     <use xlink:href="#DejaVuSans-3a" transform="translate(538.484375 0)"/>
    </g>
    <!-- A=18.049 m2 -->
    <g transform="translate(455.432344 152.645279) scale(0.06 -0.06)">
     <defs>
      <path id="DejaVuSans-24" d="M 2188 4044 
L 1331 1722 
L 3047 1722 
L 2188 4044 
z
M 1831 4666 
L 2547 4666 
L 4325 0 
L 3669 0 
L 3244 1197 
L 1141 1197 
L 716 0 
L 50 0 
L 1831 4666 
z
" transform="scale(0.015625)"/>
      <path id="DejaVuSans-1b" d="M 2034 2216 
Q 1584 2216 1326 1975 
Q 1069 1734 1069 1313 
Q 1069 891 1326 650 
Q 1584 409 2034 409 
Q 2484 409 2743 651 
Q 3003 894 3003 1313 
Q 3003 1734 2745 1975 
Q 2488 2216 2034 2216 
z
M 1403 2484 
Q 997 2584 770 2862 
Q 544 3141 544 3541 
Q 544 4100 942 4425 
Q 1341 4750 2034 4750 
Q 2731 4750 3128 4425 
Q 3525 4100 3525 3541 
Q 3525 3141 3298 2862 
Q 3072 2584 2669 2484 
Q 3125 2378 3379 2068 
Q 3634 1759 3634 1313 
Q 3634 634 3220 271 
Q 2806 -91 2034 -91 
Q 1263 -91 848 271 
Q 434 634 434 1313 
Q 434 1759 690 2068 
Q 947 2378 1403 2484 
z
M 1172 3481 
Q 1172 3119 1398 2916 
Q 1625 2713 2034 2713 
Q 2441 2713 2670 2916 
Q 2900 3119 2900 3481 
Q 2900 3844 2670 4047 
Q 2441 4250 2034 4250 
Q 1625 4250 1398 4047 
Q 1172 3844 1172 3481 
z
" transform="scale(0.015625)"/>
      <path id="DejaVuSans-1c" d="M 703 97 
L 703 672 
Q 941 559 1184 500 
Q 1428 441 1663 441 
Q 2288 441 2617 861 
Q 2947 1281 2994 2138 
Q 2813 1869 2534 1725 
Q 2256 1581 1919 1581 
Q 1219 1581 811 2004 
Q 403 2428 403 3163 
Q 403 3881 828 4315 
Q 1253 4750 1959 4750 
Q 2769 4750 3195 4129 
Q 3622 3509 3622 2328 
Q 3622 1225 3098 567 
Q 2575 -91 1691 -91 
Q 1453 -91 1209 -44 
Q 966 3 703 97 
z
M 1959 2075 
Q 2384 2075 2632 2365 
Q 2881 2656 2881 3163 
Q 2881 3666 2632 3958 
Q 2384 4250 1959 4250 
Q 1534 4250 1286 3958 
Q 1038 3666 1038 3163 
Q 1038 2656 1286 2365 
Q 1534 2075 1959 2075 
z
" transform="scale(0.015625)"/>
      <path id="DejaVuSans-50" d="M 3328 2828 
Q 3544 3216 3844 3400 
Q 4144 3584 4550 3584 
Q 5097 3584 5394 3201 
Q 5691 2819 5691 2113 
L 5691 0 
L 5113 0 
L 5113 2094 
Q 5113 2597 4934 2840 
Q 4756 3084 4391 3084 
Q 3944 3084 3684 2787 
Q 3425 2491 3425 1978 
L 3425 0 
L 2847 0 
L 2847 2094 
Q 2847 2600 2669 2842 
Q 2491 3084 2119 3084 
Q 1678 3084 1418 2786 
Q 1159 2488 1159 1978 
L 1159 0 
L 581 0 
L 581 3500 
L 1159 3500 
L 1159 2956 
Q 1356 3278 1631 3431 
Q 1906 3584 2284 3584 
Q 2666 3584 2933 3390 
Q 3200 3197 3328 2828 
z
" transform="scale(0.015625)"/>
     </defs>
     <use xlink:href="#DejaVuSans-24"/>
     <use xlink:href="#DejaVuSans-20" transform="translate(68.40625 0)"/>
     <use xlink:href="#DejaVuSans-14" transform="translate(152.203125 0)"/>
     <use xlink:href="#DejaVuSans-1b" transform="translate(215.828125 0)"/>
     <use xlink:href="#DejaVuSans-11" transform="translate(279.453125 0)"/>
     <use xlink:href="#DejaVuSans-13" transform="translate(311.234375 0)"/>
     <use xlink:href="#DejaVuSans-17" transform="translate(374.859375 0)"/>
     <use xlink:href="#DejaVuSans-1c" transform="translate(438.484375 0)"/>
     <use xlink:href="#DejaVuSans-3" transform="translate(502.109375 0)"/>
     <use xlink:href="#DejaVuSans-50" transform="translate(533.890625 0)"/>
     <use xlink:href="#DejaVuSans-15" transform="translate(631.296875 0)"/>
    </g>
   </g>
   <g id="text_2">
    <!-- E3 -->
    <g transform="translate(730.921906 138.242466) scale(0.06 -0.06)">
     <defs>
      <path id="DejaVuSans-16" d="M 2597 2516 
Q 3050 2419 3304 2112 
Q 3559 1806 3559 1356 
Q 3559 666 3084 287 
Q 2609 -91 1734 -91 
Q 1441 -91 1130 -33 
Q 819 25 488 141 
L 488 750 
Q 750 597 1062 519 
Q 1375 441 1716 441 
Q 2309 441 2620 675 
Q 2931 909 2931 1356 
Q 2931 1769 2642 2001 
Q 2353 2234 1838 2234 
L 1294 2234 
L 1294 2753 
L 1863 2753 
Q 2328 2753 2575 2939 
Q 2822 3125 2822 3475 
Q 2822 3834 2567 4026 
Q 2313 4219 1838 4219 
Q 1578 4219 1281 4162 
Q 984 4106 628 3988 
L 628 4550 
Q 988 4650 1302 4700 
Q 1616 4750 1894 4750 
Q 2613 4750 3031 4423 
Q 3450 4097 3450 3541 
Q 3450 3153 3228 2886 
Q 3006 2619 2597 2516 
z
" transform="scale(0.015625)"/>
     </defs>
     <use xlink:href="#DejaVuSans-28"/>
     <use xlink:href="#DejaVuSans-16" transform="translate(63.1875 0)"/>
    </g>
    <!-- Q=15.0 kW -->
    <g transform="translate(717.51425 145.444107) scale(0.06 -0.06)">
     <defs>
      <path id="DejaVuSans-18" d="M 691 4666 
L 3169 4666 
L 3169 4134 
L 1269 4134 
L 1269 2991 
Q 1406 3038 1543 3061 
Q 1681 3084 1819 3084 
Q 2600 3084 3056 2656 
Q 3513 2228 3513 1497 
Q 3513 744 3044 326 
Q 2575 -91 1722 -91 
Q 1428 -91 1123 -41 
Q 819 9 494 109 
L 494 744 
Q 775 591 1075 516 
Q 1375 441 1709 441 
Q 2250 441 2565 725 
Q 2881 1009 2881 1497 
Q 2881 1984 2565 2268 
Q 2250 2553 1709 2553 
Q 1456 2553 1204 2497 
Q 953 2441 691 2322 
L 691 4666 
z
" transform="scale(0.015625)"/>
     </defs>
     <use xlink:href="#DejaVuSans-34"/>
     <use xlink:href="#DejaVuSans-20" transform="translate(78.71875 0)"/>
     <use xlink:href="#DejaVuSans-14" transform="translate(162.515625 0)"/>
     <use xlink:href="#DejaVuSans-18" transform="translate(226.140625 0)"/>
     <use xlink:href="#DejaVuSans-11" transform="translate(289.765625 0)"/>
     <use xlink:href="#DejaVuSans-13" transform="translate(321.546875 0)"/>
     <use xlink:href="#DejaVuSans-3" transform="translate(385.171875 0)"/>
     <use xlink:href="#DejaVuSans-4e" transform="translate(416.953125 0)"/>
     <use xlink:href="#DejaVuSans-3a" transform="translate(474.859375 0)"/>
    </g>
    <!-- A=1.413 m2 -->
    <g transform="translate(715.787375 152.645279) scale(0.06 -0.06)">
     <use xlink:href="#DejaVuSans-24"/>
     <use xlink:href="#DejaVuSans-20" transform="translate(68.40625 0)"/>
     <use xlink:href="#DejaVuSans-14" transform="translate(152.203125 0)"/>
     <use xlink:href="#DejaVuSans-11" transform="translate(215.828125 0)"/>
     <use xlink:href="#DejaVuSans-17" transform="translate(247.609375 0)"/>
     <use xlink:href="#DejaVuSans-14" transform="translate(311.234375 0)"/>
     <use xlink:href="#DejaVuSans-16" transform="translate(374.859375 0)"/>
     <use xlink:href="#DejaVuSans-3" transform="translate(438.484375 0)"/>
     <use xlink:href="#DejaVuSans-50" transform="translate(470.265625 0)"/>
     <use xlink:href="#DejaVuSans-15" transform="translate(567.671875 0)"/>
    </g>
   </g>
   <g id="text_3">
    <!-- E2 -->
    <g transform="translate(407.864055 397.348784) scale(0.06 -0.06)">
     <use xlink:href="#DejaVuSans-28"/>
     <use xlink:href="#DejaVuSans-15" transform="translate(63.1875 0)"/>
    </g>
    <!-- Q=130.0 kW -->
    <g transform="translate(392.547649 404.550424) scale(0.06 -0.06)">
     <use xlink:href="#DejaVuSans-34"/>
     <use xlink:href="#DejaVuSans-20" transform="translate(78.71875 0)"/>
     <use xlink:href="#DejaVuSans-14" transform="translate(162.515625 0)"/>
     <use xlink:href="#DejaVuSans-16" transform="translate(226.140625 0)"/>
     <use xlink:href="#DejaVuSans-13" transform="translate(289.765625 0)"/>
     <use xlink:href="#DejaVuSans-11" transform="translate(353.390625 0)"/>
     <use xlink:href="#DejaVuSans-13" transform="translate(385.171875 0)"/>
     <use xlink:href="#DejaVuSans-3" transform="translate(448.796875 0)"/>
     <use xlink:href="#DejaVuSans-4e" transform="translate(480.578125 0)"/>
     <use xlink:href="#DejaVuSans-3a" transform="translate(538.484375 0)"/>
    </g>
    <!-- A=8.329 m2 -->
    <g transform="translate(392.729524 411.751596) scale(0.06 -0.06)">
     <use xlink:href="#DejaVuSans-24"/>
     <use xlink:href="#DejaVuSans-20" transform="translate(68.40625 0)"/>
     <use xlink:href="#DejaVuSans-1b" transform="translate(152.203125 0)"/>
     <use xlink:href="#DejaVuSans-11" transform="translate(215.828125 0)"/>
     <use xlink:href="#DejaVuSans-16" transform="translate(247.609375 0)"/>
     <use xlink:href="#DejaVuSans-15" transform="translate(311.234375 0)"/>
     <use xlink:href="#DejaVuSans-1c" transform="translate(374.859375 0)"/>
     <use xlink:href="#DejaVuSans-3" transform="translate(438.484375 0)"/>
     <use xlink:href="#DejaVuSans-50" transform="translate(470.265625 0)"/>
     <use xlink:href="#DejaVuSans-15" transform="translate(567.671875 0)"/>
    </g>
   </g>
   <g id="text_4">
    <!-- E4 -->
    <g transform="translate(666.310336 397.348784) scale(0.06 -0.06)">
     <use xlink:href="#DejaVuSans-28"/>
     <use xlink:href="#DejaVuSans-17" transform="translate(63.1875 0)"/>
    </g>
    <!-- Q=3.1 kW -->
    <g transform="translate(654.811429 404.550424) scale(0.06 -0.06)">
     <use xlink:href="#DejaVuSans-34"/>
     <use xlink:href="#DejaVuSans-20" transform="translate(78.71875 0)"/>
     <use xlink:href="#DejaVuSans-16" transform="translate(162.515625 0)"/>
     <use xlink:href="#DejaVuSans-11" transform="translate(226.140625 0)"/>
     <use xlink:href="#DejaVuSans-14" transform="translate(257.921875 0)"/>
     <use xlink:href="#DejaVuSans-3" transform="translate(321.546875 0)"/>
     <use xlink:href="#DejaVuSans-4e" transform="translate(353.328125 0)"/>
     <use xlink:href="#DejaVuSans-3a" transform="translate(411.234375 0)"/>
    </g>
    <!-- A=0.305 m2 -->
    <g transform="translate(651.175804 411.751596) scale(0.06 -0.06)">
     <use xlink:href="#DejaVuSans-24"/>
     <use xlink:href="#DejaVuSans-20" transform="translate(68.40625 0)"/>
     <use xlink:href="#DejaVuSans-13" transform="translate(152.203125 0)"/>
     <use xlink:href="#DejaVuSans-11" transform="translate(215.828125 0)"/>
     <use xlink:href="#DejaVuSans-16" transform="translate(247.609375 0)"/>
     <use xlink:href="#DejaVuSans-13" transform="translate(311.234375 0)"/>
     <use xlink:href="#DejaVuSans-18" transform="translate(374.859375 0)"/>
     <use xlink:href="#DejaVuSans-3" transform="translate(438.484375 0)"/>
     <use xlink:href="#DejaVuSans-50" transform="translate(470.265625 0)"/>
     <use xlink:href="#DejaVuSans-15" transform="translate(567.671875 0)"/>
    </g>
   </g>
   <g id="text_5">
    <!-- H1_Tin -->
    <g transform="translate(78.471047 141.843521) scale(0.06 -0.06)">
     <defs>
      <path id="DejaVuSans-2b" d="M 628 4666 
L 1259 4666 
L 1259 2753 
L 3553 2753 
L 3553 4666 
L 4184 4666 
L 4184 0 
L 3553 0 
L 3553 2222 
L 1259 2222 
L 1259 0 
L 628 0 
L 628 4666 
z
" transform="scale(0.015625)"/>
      <path id="DejaVuSans-42" d="M 3263 -1063 
L 3263 -1509 
L -63 -1509 
L -63 -1063 
L 3263 -1063 
z
" transform="scale(0.015625)"/>
      <path id="DejaVuSans-37" d="M -19 4666 
L 3928 4666 
L 3928 4134 
L 2272 4134 
L 2272 0 
L 1638 0 
L 1638 4134 
L -19 4134 
L -19 4666 
z
" transform="scale(0.015625)"/>
      <path id="DejaVuSans-4c" d="M 603 3500 
L 1178 3500 
L 1178 0 
L 603 0 
L 603 3500 
z
M 603 4863 
L 1178 4863 
L 1178 4134 
L 603 4134 
L 603 4863 
z
" transform="scale(0.015625)"/>
      <path id="DejaVuSans-51" d="M 3513 2113 
L 3513 0 
L 2938 0 
L 2938 2094 
Q 2938 2591 2744 2837 
Q 2550 3084 2163 3084 
Q 1697 3084 1428 2787 
Q 1159 2491 1159 1978 
L 1159 0 
L 581 0 
L 581 3500 
L 1159 3500 
L 1159 2956 
Q 1366 3272 1645 3428 
Q 1925 3584 2291 3584 
Q 2894 3584 3203 3211 
Q 3513 2838 3513 2113 
z
" transform="scale(0.015625)"/>
     </defs>
     <use xlink:href="#DejaVuSans-2b"/>
     <use xlink:href="#DejaVuSans-14" transform="translate(75.203125 0)"/>
     <use xlink:href="#DejaVuSans-42" transform="translate(138.828125 0)"/>
     <use xlink:href="#DejaVuSans-37" transform="translate(188.828125 0)"/>
     <use xlink:href="#DejaVuSans-4c" transform="translate(246.828125 0)"/>
     <use xlink:href="#DejaVuSans-51" transform="translate(274.609375 0)"/>
    </g>
    <!-- 200.0°C -->
    <g transform="translate(76.427297 149.044693) scale(0.06 -0.06)">
     <defs>
      <path id="DejaVuSans-72" d="M 1600 4347 
Q 1350 4347 1178 4173 
Q 1006 4000 1006 3750 
Q 1006 3503 1178 3333 
Q 1350 3163 1600 3163 
Q 1850 3163 2022 3333 
Q 2194 3503 2194 3750 
Q 2194 3997 2020 4172 
Q 1847 4347 1600 4347 
z
M 1600 4750 
Q 1800 4750 1984 4673 
Q 2169 4597 2303 4453 
Q 2447 4313 2519 4134 
Q 2591 3956 2591 3750 
Q 2591 3338 2302 3052 
Q 2013 2766 1594 2766 
Q 1172 2766 890 3047 
Q 609 3328 609 3750 
Q 609 4169 896 4459 
Q 1184 4750 1600 4750 
z
" transform="scale(0.015625)"/>
      <path id="DejaVuSans-26" d="M 4122 4306 
L 4122 3641 
Q 3803 3938 3442 4084 
Q 3081 4231 2675 4231 
Q 1875 4231 1450 3742 
Q 1025 3253 1025 2328 
Q 1025 1406 1450 917 
Q 1875 428 2675 428 
Q 3081 428 3442 575 
Q 3803 722 4122 1019 
L 4122 359 
Q 3791 134 3420 21 
Q 3050 -91 2638 -91 
Q 1578 -91 968 557 
Q 359 1206 359 2328 
Q 359 3453 968 4101 
Q 1578 4750 2638 4750 
Q 3056 4750 3426 4639 
Q 3797 4528 4122 4306 
z
" transform="scale(0.015625)"/>
     </defs>
     <use xlink:href="#DejaVuSans-15"/>
     <use xlink:href="#DejaVuSans-13" transform="translate(63.625 0)"/>
     <use xlink:href="#DejaVuSans-13" transform="translate(127.25 0)"/>
     <use xlink:href="#DejaVuSans-11" transform="translate(190.875 0)"/>
     <use xlink:href="#DejaVuSans-13" transform="translate(222.65625 0)"/>
     <use xlink:href="#DejaVuSans-72" transform="translate(286.28125 0)"/>
     <use xlink:href="#DejaVuSans-26" transform="translate(336.28125 0)"/>
    </g>
   </g>
   <g id="text_6">
    <!-- 60.0°C -->
    <g transform="translate(595.228609 145.443873) scale(0.06 -0.06)">
     <defs>
      <path id="DejaVuSans-19" d="M 2113 2584 
Q 1688 2584 1439 2293 
Q 1191 2003 1191 1497 
Q 1191 994 1439 701 
Q 1688 409 2113 409 
Q 2538 409 2786 701 
Q 3034 994 3034 1497 
Q 3034 2003 2786 2293 
Q 2538 2584 2113 2584 
z
M 3366 4563 
L 3366 3988 
Q 3128 4100 2886 4159 
Q 2644 4219 2406 4219 
Q 1781 4219 1451 3797 
Q 1122 3375 1075 2522 
Q 1259 2794 1537 2939 
Q 1816 3084 2150 3084 
Q 2853 3084 3261 2657 
Q 3669 2231 3669 1497 
Q 3669 778 3244 343 
Q 2819 -91 2113 -91 
Q 1303 -91 875 529 
Q 447 1150 447 2328 
Q 447 3434 972 4092 
Q 1497 4750 2381 4750 
Q 2619 4750 2861 4703 
Q 3103 4656 3366 4563 
z
" transform="scale(0.015625)"/>
     </defs>
     <use xlink:href="#DejaVuSans-19"/>
     <use xlink:href="#DejaVuSans-13" transform="translate(63.625 0)"/>
     <use xlink:href="#DejaVuSans-11" transform="translate(127.25 0)"/>
     <use xlink:href="#DejaVuSans-13" transform="translate(159.03125 0)"/>
     <use xlink:href="#DejaVuSans-72" transform="translate(222.65625 0)"/>
     <use xlink:href="#DejaVuSans-26" transform="translate(272.65625 0)"/>
    </g>
   </g>
   <g id="text_7">
    <!-- 50.0°C -->
    <g transform="translate(466.005469 223.175768) scale(0.06 -0.06)">
     <use xlink:href="#DejaVuSans-18"/>
     <use xlink:href="#DejaVuSans-13" transform="translate(63.625 0)"/>
     <use xlink:href="#DejaVuSans-11" transform="translate(127.25 0)"/>
     <use xlink:href="#DejaVuSans-13" transform="translate(159.03125 0)"/>
     <use xlink:href="#DejaVuSans-72" transform="translate(222.65625 0)"/>
     <use xlink:href="#DejaVuSans-26" transform="translate(272.65625 0)"/>
    </g>
   </g>
   <g id="text_8">
    <!-- 155.0°C -->
    <g transform="translate(464.096719 67.711977) scale(0.06 -0.06)">
     <use xlink:href="#DejaVuSans-14"/>
     <use xlink:href="#DejaVuSans-18" transform="translate(63.625 0)"/>
     <use xlink:href="#DejaVuSans-18" transform="translate(127.25 0)"/>
     <use xlink:href="#DejaVuSans-11" transform="translate(190.875 0)"/>
     <use xlink:href="#DejaVuSans-13" transform="translate(222.65625 0)"/>
     <use xlink:href="#DejaVuSans-72" transform="translate(286.28125 0)"/>
     <use xlink:href="#DejaVuSans-26" transform="translate(336.28125 0)"/>
    </g>
   </g>
   <g id="text_9">
    <!-- 55.0°C -->
    <g transform="translate(853.67489 145.443873) scale(0.06 -0.06)">
     <use xlink:href="#DejaVuSans-18"/>
     <use xlink:href="#DejaVuSans-18" transform="translate(63.625 0)"/>
     <use xlink:href="#DejaVuSans-11" transform="translate(127.25 0)"/>
     <use xlink:href="#DejaVuSans-13" transform="translate(159.03125 0)"/>
     <use xlink:href="#DejaVuSans-72" transform="translate(222.65625 0)"/>
     <use xlink:href="#DejaVuSans-26" transform="translate(272.65625 0)"/>
    </g>
   </g>
   <g id="text_10">
    <!-- C2_Tin -->
    <g transform="translate(724.748 219.575416) scale(0.06 -0.06)">
     <use xlink:href="#DejaVuSans-26"/>
     <use xlink:href="#DejaVuSans-15" transform="translate(69.828125 0)"/>
     <use xlink:href="#DejaVuSans-42" transform="translate(133.453125 0)"/>
     <use xlink:href="#DejaVuSans-37" transform="translate(183.453125 0)"/>
     <use xlink:href="#DejaVuSans-4c" transform="translate(241.453125 0)"/>
     <use xlink:href="#DejaVuSans-51" transform="translate(269.234375 0)"/>
    </g>
    <!-- 45.0°C -->
    <g transform="translate(724.45175 226.776588) scale(0.06 -0.06)">
     <use xlink:href="#DejaVuSans-17"/>
     <use xlink:href="#DejaVuSans-18" transform="translate(63.625 0)"/>
     <use xlink:href="#DejaVuSans-11" transform="translate(127.25 0)"/>
     <use xlink:href="#DejaVuSans-13" transform="translate(159.03125 0)"/>
     <use xlink:href="#DejaVuSans-72" transform="translate(222.65625 0)"/>
     <use xlink:href="#DejaVuSans-26" transform="translate(272.65625 0)"/>
    </g>
   </g>
   <g id="text_11">
    <!-- 48.8°C -->
    <g transform="translate(724.45175 67.711977) scale(0.06 -0.06)">
     <use xlink:href="#DejaVuSans-17"/>
     <use xlink:href="#DejaVuSans-1b" transform="translate(63.625 0)"/>
     <use xlink:href="#DejaVuSans-11" transform="translate(127.25 0)"/>
     <use xlink:href="#DejaVuSans-1b" transform="translate(159.03125 0)"/>
     <use xlink:href="#DejaVuSans-72" transform="translate(222.65625 0)"/>
     <use xlink:href="#DejaVuSans-26" transform="translate(272.65625 0)"/>
    </g>
   </g>
   <g id="text_12">
    <!-- H2_Tin -->
    <g transform="translate(78.471047 400.949838) scale(0.06 -0.06)">
     <use xlink:href="#DejaVuSans-2b"/>
     <use xlink:href="#DejaVuSans-15" transform="translate(75.203125 0)"/>
     <use xlink:href="#DejaVuSans-42" transform="translate(138.828125 0)"/>
     <use xlink:href="#DejaVuSans-37" transform="translate(188.828125 0)"/>
     <use xlink:href="#DejaVuSans-4c" transform="translate(246.828125 0)"/>
     <use xlink:href="#DejaVuSans-51" transform="translate(274.609375 0)"/>
    </g>
    <!-- 125.0°C -->
    <g transform="translate(76.427297 408.15101) scale(0.06 -0.06)">
     <use xlink:href="#DejaVuSans-14"/>
     <use xlink:href="#DejaVuSans-15" transform="translate(63.625 0)"/>
     <use xlink:href="#DejaVuSans-18" transform="translate(127.25 0)"/>
     <use xlink:href="#DejaVuSans-11" transform="translate(190.875 0)"/>
     <use xlink:href="#DejaVuSans-13" transform="translate(222.65625 0)"/>
     <use xlink:href="#DejaVuSans-72" transform="translate(286.28125 0)"/>
     <use xlink:href="#DejaVuSans-26" transform="translate(336.28125 0)"/>
    </g>
   </g>
   <g id="text_13">
    <!-- 73.0°C -->
    <g transform="translate(530.617039 404.55019) scale(0.06 -0.06)">
     <defs>
      <path id="DejaVuSans-1a" d="M 525 4666 
L 3525 4666 
L 3525 4397 
L 1831 0 
L 1172 0 
L 2766 4134 
L 525 4134 
L 525 4666 
z
" transform="scale(0.015625)"/>
     </defs>
     <use xlink:href="#DejaVuSans-1a"/>
     <use xlink:href="#DejaVuSans-16" transform="translate(63.625 0)"/>
     <use xlink:href="#DejaVuSans-11" transform="translate(127.25 0)"/>
     <use xlink:href="#DejaVuSans-13" transform="translate(159.03125 0)"/>
     <use xlink:href="#DejaVuSans-72" transform="translate(222.65625 0)"/>
     <use xlink:href="#DejaVuSans-26" transform="translate(272.65625 0)"/>
    </g>
   </g>
   <g id="text_14">
    <!-- C1_Tin -->
    <g transform="translate(401.690149 478.681734) scale(0.06 -0.06)">
     <use xlink:href="#DejaVuSans-26"/>
     <use xlink:href="#DejaVuSans-14" transform="translate(69.828125 0)"/>
     <use xlink:href="#DejaVuSans-42" transform="translate(133.453125 0)"/>
     <use xlink:href="#DejaVuSans-37" transform="translate(183.453125 0)"/>
     <use xlink:href="#DejaVuSans-4c" transform="translate(241.453125 0)"/>
     <use xlink:href="#DejaVuSans-51" transform="translate(269.234375 0)"/>
    </g>
    <!-- 50.0°C -->
    <g transform="translate(401.393899 485.882905) scale(0.06 -0.06)">
     <use xlink:href="#DejaVuSans-18"/>
     <use xlink:href="#DejaVuSans-13" transform="translate(63.625 0)"/>
     <use xlink:href="#DejaVuSans-11" transform="translate(127.25 0)"/>
     <use xlink:href="#DejaVuSans-13" transform="translate(159.03125 0)"/>
     <use xlink:href="#DejaVuSans-72" transform="translate(222.65625 0)"/>
     <use xlink:href="#DejaVuSans-26" transform="translate(272.65625 0)"/>
    </g>
   </g>
   <g id="text_15">
    <!-- 115.0°C -->
    <g transform="translate(399.485149 326.818295) scale(0.06 -0.06)">
     <use xlink:href="#DejaVuSans-14"/>
     <use xlink:href="#DejaVuSans-14" transform="translate(63.625 0)"/>
     <use xlink:href="#DejaVuSans-18" transform="translate(127.25 0)"/>
     <use xlink:href="#DejaVuSans-11" transform="translate(190.875 0)"/>
     <use xlink:href="#DejaVuSans-13" transform="translate(222.65625 0)"/>
     <use xlink:href="#DejaVuSans-72" transform="translate(286.28125 0)"/>
     <use xlink:href="#DejaVuSans-26" transform="translate(336.28125 0)"/>
    </g>
   </g>
   <g id="text_16">
    <!-- 58.8°C -->
    <g transform="translate(789.06332 404.55019) scale(0.06 -0.06)">
     <use xlink:href="#DejaVuSans-18"/>
     <use xlink:href="#DejaVuSans-1b" transform="translate(63.625 0)"/>
     <use xlink:href="#DejaVuSans-11" transform="translate(127.25 0)"/>
     <use xlink:href="#DejaVuSans-1b" transform="translate(159.03125 0)"/>
     <use xlink:href="#DejaVuSans-72" transform="translate(222.65625 0)"/>
     <use xlink:href="#DejaVuSans-26" transform="translate(272.65625 0)"/>
    </g>
   </g>
   <g id="text_17">
    <!-- 48.8°C -->
    <g transform="translate(659.840179 482.282085) scale(0.06 -0.06)">
     <use xlink:href="#DejaVuSans-17"/>
     <use xlink:href="#DejaVuSans-1b" transform="translate(63.625 0)"/>
     <use xlink:href="#DejaVuSans-11" transform="translate(127.25 0)"/>
     <use xlink:href="#DejaVuSans-1b" transform="translate(159.03125 0)"/>
     <use xlink:href="#DejaVuSans-72" transform="translate(222.65625 0)"/>
     <use xlink:href="#DejaVuSans-26" transform="translate(272.65625 0)"/>
    </g>
   </g>
   <g id="text_18">
    <!-- 49.5°C -->
    <g transform="translate(659.840179 326.818295) scale(0.06 -0.06)">
     <use xlink:href="#DejaVuSans-17"/>
     <use xlink:href="#DejaVuSans-1c" transform="translate(63.625 0)"/>
     <use xlink:href="#DejaVuSans-11" transform="translate(127.25 0)"/>
     <use xlink:href="#DejaVuSans-18" transform="translate(159.03125 0)"/>
     <use xlink:href="#DejaVuSans-72" transform="translate(222.65625 0)"/>
     <use xlink:href="#DejaVuSans-26" transform="translate(272.65625 0)"/>
    </g>
   </g>
   <g id="text_19">
    <g clip-path="url(#p776403cfd0)">
     <!-- H1_Tin -->
     <g transform="translate(78.471047 141.843521) scale(0.06 -0.06)">
      <use xlink:href="#DejaVuSans-2b"/>
      <use xlink:href="#DejaVuSans-14" transform="translate(75.203125 0)"/>
      <use xlink:href="#DejaVuSans-42" transform="translate(138.828125 0)"/>
      <use xlink:href="#DejaVuSans-37" transform="translate(188.828125 0)"/>
      <use xlink:href="#DejaVuSans-4c" transform="translate(246.828125 0)"/>
      <use xlink:href="#DejaVuSans-51" transform="translate(274.609375 0)"/>
     </g>
    </g>
    <g clip-path="url(#p776403cfd0)">
     <!-- 200.0°C -->
     <g transform="translate(76.427297 149.044693) scale(0.06 -0.06)">
      <use xlink:href="#DejaVuSans-15"/>
      <use xlink:href="#DejaVuSans-13" transform="translate(63.625 0)"/>
      <use xlink:href="#DejaVuSans-13" transform="translate(127.25 0)"/>
      <use xlink:href="#DejaVuSans-11" transform="translate(190.875 0)"/>
      <use xlink:href="#DejaVuSans-13" transform="translate(222.65625 0)"/>
      <use xlink:href="#DejaVuSans-72" transform="translate(286.28125 0)"/>
      <use xlink:href="#DejaVuSans-26" transform="translate(336.28125 0)"/>
     </g>
    </g>
   </g>
   <g id="text_20">
    <g clip-path="url(#p776403cfd0)">
     <!-- 60.0°C -->
     <g transform="translate(595.228609 145.443873) scale(0.06 -0.06)">
      <use xlink:href="#DejaVuSans-19"/>
      <use xlink:href="#DejaVuSans-13" transform="translate(63.625 0)"/>
      <use xlink:href="#DejaVuSans-11" transform="translate(127.25 0)"/>
      <use xlink:href="#DejaVuSans-13" transform="translate(159.03125 0)"/>
      <use xlink:href="#DejaVuSans-72" transform="translate(222.65625 0)"/>
      <use xlink:href="#DejaVuSans-26" transform="translate(272.65625 0)"/>
     </g>
    </g>
   </g>
   <g id="text_21">
    <g clip-path="url(#p776403cfd0)">
     <!-- 50.0°C -->
     <g transform="translate(466.005469 223.175768) scale(0.06 -0.06)">
      <use xlink:href="#DejaVuSans-18"/>
      <use xlink:href="#DejaVuSans-13" transform="translate(63.625 0)"/>
      <use xlink:href="#DejaVuSans-11" transform="translate(127.25 0)"/>
      <use xlink:href="#DejaVuSans-13" transform="translate(159.03125 0)"/>
      <use xlink:href="#DejaVuSans-72" transform="translate(222.65625 0)"/>
      <use xlink:href="#DejaVuSans-26" transform="translate(272.65625 0)"/>
     </g>
    </g>
   </g>
   <g id="text_22">
    <g clip-path="url(#p776403cfd0)">
     <!-- 155.0°C -->
     <g transform="translate(464.096719 67.711977) scale(0.06 -0.06)">
      <use xlink:href="#DejaVuSans-14"/>
      <use xlink:href="#DejaVuSans-18" transform="translate(63.625 0)"/>
      <use xlink:href="#DejaVuSans-18" transform="translate(127.25 0)"/>
      <use xlink:href="#DejaVuSans-11" transform="translate(190.875 0)"/>
      <use xlink:href="#DejaVuSans-13" transform="translate(222.65625 0)"/>
      <use xlink:href="#DejaVuSans-72" transform="translate(286.28125 0)"/>
      <use xlink:href="#DejaVuSans-26" transform="translate(336.28125 0)"/>
     </g>
    </g>
   </g>
   <g id="text_23">
    <g clip-path="url(#p776403cfd0)">
     <!-- 55.0°C -->
     <g transform="translate(853.67489 145.443873) scale(0.06 -0.06)">
      <use xlink:href="#DejaVuSans-18"/>
      <use xlink:href="#DejaVuSans-18" transform="translate(63.625 0)"/>
      <use xlink:href="#DejaVuSans-11" transform="translate(127.25 0)"/>
      <use xlink:href="#DejaVuSans-13" transform="translate(159.03125 0)"/>
      <use xlink:href="#DejaVuSans-72" transform="translate(222.65625 0)"/>
      <use xlink:href="#DejaVuSans-26" transform="translate(272.65625 0)"/>
     </g>
    </g>
   </g>
   <g id="text_24">
    <g clip-path="url(#p776403cfd0)">
     <!-- C2_Tin -->
     <g transform="translate(724.748 219.575416) scale(0.06 -0.06)">
      <use xlink:href="#DejaVuSans-26"/>
      <use xlink:href="#DejaVuSans-15" transform="translate(69.828125 0)"/>
      <use xlink:href="#DejaVuSans-42" transform="translate(133.453125 0)"/>
      <use xlink:href="#DejaVuSans-37" transform="translate(183.453125 0)"/>
      <use xlink:href="#DejaVuSans-4c" transform="translate(241.453125 0)"/>
      <use xlink:href="#DejaVuSans-51" transform="translate(269.234375 0)"/>
     </g>
    </g>
    <g clip-path="url(#p776403cfd0)">
     <!-- 45.0°C -->
     <g transform="translate(724.45175 226.776588) scale(0.06 -0.06)">
      <use xlink:href="#DejaVuSans-17"/>
      <use xlink:href="#DejaVuSans-18" transform="translate(63.625 0)"/>
      <use xlink:href="#DejaVuSans-11" transform="translate(127.25 0)"/>
      <use xlink:href="#DejaVuSans-13" transform="translate(159.03125 0)"/>
      <use xlink:href="#DejaVuSans-72" transform="translate(222.65625 0)"/>
      <use xlink:href="#DejaVuSans-26" transform="translate(272.65625 0)"/>
     </g>
    </g>
   </g>
   <g id="text_25">
    <g clip-path="url(#p776403cfd0)">
     <!-- 48.8°C -->
     <g transform="translate(724.45175 67.711977) scale(0.06 -0.06)">
      <use xlink:href="#DejaVuSans-17"/>
      <use xlink:href="#DejaVuSans-1b" transform="translate(63.625 0)"/>
      <use xlink:href="#DejaVuSans-11" transform="translate(127.25 0)"/>
      <use xlink:href="#DejaVuSans-1b" transform="translate(159.03125 0)"/>
      <use xlink:href="#DejaVuSans-72" transform="translate(222.65625 0)"/>
      <use xlink:href="#DejaVuSans-26" transform="translate(272.65625 0)"/>
     </g>
    </g>
   </g>
   <g id="text_26">
    <g clip-path="url(#p776403cfd0)">
     <!-- H2_Tin -->
     <g transform="translate(78.471047 400.949838) scale(0.06 -0.06)">
      <use xlink:href="#DejaVuSans-2b"/>
      <use xlink:href="#DejaVuSans-15" transform="translate(75.203125 0)"/>
      <use xlink:href="#DejaVuSans-42" transform="translate(138.828125 0)"/>
      <use xlink:href="#DejaVuSans-37" transform="translate(188.828125 0)"/>
      <use xlink:href="#DejaVuSans-4c" transform="translate(246.828125 0)"/>
      <use xlink:href="#DejaVuSans-51" transform="translate(274.609375 0)"/>
     </g>
    </g>
    <g clip-path="url(#p776403cfd0)">
     <!-- 125.0°C -->
     <g transform="translate(76.427297 408.15101) scale(0.06 -0.06)">
      <use xlink:href="#DejaVuSans-14"/>
      <use xlink:href="#DejaVuSans-15" transform="translate(63.625 0)"/>
      <use xlink:href="#DejaVuSans-18" transform="translate(127.25 0)"/>
      <use xlink:href="#DejaVuSans-11" transform="translate(190.875 0)"/>
      <use xlink:href="#DejaVuSans-13" transform="translate(222.65625 0)"/>
      <use xlink:href="#DejaVuSans-72" transform="translate(286.28125 0)"/>
      <use xlink:href="#DejaVuSans-26" transform="translate(336.28125 0)"/>
     </g>
    </g>
   </g>
   <g id="text_27">
    <g clip-path="url(#p776403cfd0)">
     <!-- 73.0°C -->
     <g transform="translate(530.617039 404.55019) scale(0.06 -0.06)">
      <use xlink:href="#DejaVuSans-1a"/>
      <use xlink:href="#DejaVuSans-16" transform="translate(63.625 0)"/>
      <use xlink:href="#DejaVuSans-11" transform="translate(127.25 0)"/>
      <use xlink:href="#DejaVuSans-13" transform="translate(159.03125 0)"/>
      <use xlink:href="#DejaVuSans-72" transform="translate(222.65625 0)"/>
      <use xlink:href="#DejaVuSans-26" transform="translate(272.65625 0)"/>
     </g>
    </g>
   </g>
   <g id="text_28">
    <g clip-path="url(#p776403cfd0)">
     <!-- C1_Tin -->
     <g transform="translate(401.690149 478.681734) scale(0.06 -0.06)">
      <use xlink:href="#DejaVuSans-26"/>
      <use xlink:href="#DejaVuSans-14" transform="translate(69.828125 0)"/>
      <use xlink:href="#DejaVuSans-42" transform="translate(133.453125 0)"/>
      <use xlink:href="#DejaVuSans-37" transform="translate(183.453125 0)"/>
      <use xlink:href="#DejaVuSans-4c" transform="translate(241.453125 0)"/>
      <use xlink:href="#DejaVuSans-51" transform="translate(269.234375 0)"/>
     </g>
    </g>
    <g clip-path="url(#p776403cfd0)">
     <!-- 50.0°C -->
     <g transform="translate(401.393899 485.882905) scale(0.06 -0.06)">
      <use xlink:href="#DejaVuSans-18"/>
      <use xlink:href="#DejaVuSans-13" transform="translate(63.625 0)"/>
      <use xlink:href="#DejaVuSans-11" transform="translate(127.25 0)"/>
      <use xlink:href="#DejaVuSans-13" transform="translate(159.03125 0)"/>
      <use xlink:href="#DejaVuSans-72" transform="translate(222.65625 0)"/>
      <use xlink:href="#DejaVuSans-26" transform="translate(272.65625 0)"/>
     </g>
    </g>
   </g>
   <g id="text_29">
    <g clip-path="url(#p776403cfd0)">
     <!-- 115.0°C -->
     <g transform="translate(399.485149 326.818295) scale(0.06 -0.06)">
      <use xlink:href="#DejaVuSans-14"/>
      <use xlink:href="#DejaVuSans-14" transform="translate(63.625 0)"/>
      <use xlink:href="#DejaVuSans-18" transform="translate(127.25 0)"/>
      <use xlink:href="#DejaVuSans-11" transform="translate(190.875 0)"/>
      <use xlink:href="#DejaVuSans-13" transform="translate(222.65625 0)"/>
      <use xlink:href="#DejaVuSans-72" transform="translate(286.28125 0)"/>
      <use xlink:href="#DejaVuSans-26" transform="translate(336.28125 0)"/>
     </g>
    </g>
   </g>
   <g id="text_30">
    <g clip-path="url(#p776403cfd0)">
     <!-- 58.8°C -->
     <g transform="translate(789.06332 404.55019) scale(0.06 -0.06)">
      <use xlink:href="#DejaVuSans-18"/>
      <use xlink:href="#DejaVuSans-1b" transform="translate(63.625 0)"/>
      <use xlink:href="#DejaVuSans-11" transform="translate(127.25 0)"/>
      <use xlink:href="#DejaVuSans-1b" transform="translate(159.03125 0)"/>
      <use xlink:href="#DejaVuSans-72" transform="translate(222.65625 0)"/>
      <use xlink:href="#DejaVuSans-26" transform="translate(272.65625 0)"/>
     </g>
    </g>
   </g>
   <g id="text_31">
    <g clip-path="url(#p776403cfd0)">
     <!-- 48.8°C -->
     <g transform="translate(659.840179 482.282085) scale(0.06 -0.06)">
      <use xlink:href="#DejaVuSans-17"/>
      <use xlink:href="#DejaVuSans-1b" transform="translate(63.625 0)"/>
      <use xlink:href="#DejaVuSans-11" transform="translate(127.25 0)"/>
      <use xlink:href="#DejaVuSans-1b" transform="translate(159.03125 0)"/>
      <use xlink:href="#DejaVuSans-72" transform="translate(222.65625 0)"/>
      <use xlink:href="#DejaVuSans-26" transform="translate(272.65625 0)"/>
     </g>
    </g>
   </g>
   <g id="text_32">
    <g clip-path="url(#p776403cfd0)">
     <!-- 49.5°C -->
     <g transform="translate(659.840179 326.818295) scale(0.06 -0.06)">
      <use xlink:href="#DejaVuSans-17"/>
      <use xlink:href="#DejaVuSans-1c" transform="translate(63.625 0)"/>
      <use xlink:href="#DejaVuSans-11" transform="translate(127.25 0)"/>
      <use xlink:href="#DejaVuSans-18" transform="translate(159.03125 0)"/>
      <use xlink:href="#DejaVuSans-72" transform="translate(222.65625 0)"/>
      <use xlink:href="#DejaVuSans-26" transform="translate(272.65625 0)"/>
     </g>
    </g>
   </g>
   <g id="text_33">
    <!-- Réseau d'échangeurs de chaleur à partir d'un DataFrame -->
    <g transform="translate(332.972969 15.198437) scale(0.1 -0.1)">
     <defs>
      <path id="DejaVuSans-35" d="M 2841 2188 
Q 3044 2119 3236 1894 
Q 3428 1669 3622 1275 
L 4263 0 
L 3584 0 
L 2988 1197 
Q 2756 1666 2539 1819 
Q 2322 1972 1947 1972 
L 1259 1972 
L 1259 0 
L 628 0 
L 628 4666 
L 2053 4666 
Q 2853 4666 3247 4331 
Q 3641 3997 3641 3322 
Q 3641 2881 3436 2590 
Q 3231 2300 2841 2188 
z
M 1259 4147 
L 1259 2491 
L 2053 2491 
Q 2509 2491 2742 2702 
Q 2975 2913 2975 3322 
Q 2975 3731 2742 3939 
Q 2509 4147 2053 4147 
L 1259 4147 
z
" transform="scale(0.015625)"/>
      <path id="DejaVuSans-ab" d="M 3597 1894 
L 3597 1613 
L 953 1613 
Q 991 1019 1311 708 
Q 1631 397 2203 397 
Q 2534 397 2845 478 
Q 3156 559 3463 722 
L 3463 178 
Q 3153 47 2828 -22 
Q 2503 -91 2169 -91 
Q 1331 -91 842 396 
Q 353 884 353 1716 
Q 353 2575 817 3079 
Q 1281 3584 2069 3584 
Q 2775 3584 3186 3129 
Q 3597 2675 3597 1894 
z
M 3022 2063 
Q 3016 2534 2758 2815 
Q 2500 3097 2075 3097 
Q 1594 3097 1305 2825 
Q 1016 2553 972 2059 
L 3022 2063 
z
M 2468 5119 
L 3090 5119 
L 2072 3944 
L 1593 3944 
L 2468 5119 
z
" transform="scale(0.015625)"/>
      <path id="DejaVuSans-56" d="M 2834 3397 
L 2834 2853 
Q 2591 2978 2328 3040 
Q 2066 3103 1784 3103 
Q 1356 3103 1142 2972 
Q 928 2841 928 2578 
Q 928 2378 1081 2264 
Q 1234 2150 1697 2047 
L 1894 2003 
Q 2506 1872 2764 1633 
Q 3022 1394 3022 966 
Q 3022 478 2636 193 
Q 2250 -91 1575 -91 
Q 1294 -91 989 -36 
Q 684 19 347 128 
L 347 722 
Q 666 556 975 473 
Q 1284 391 1588 391 
Q 1994 391 2212 530 
Q 2431 669 2431 922 
Q 2431 1156 2273 1281 
Q 2116 1406 1581 1522 
L 1381 1569 
Q 847 1681 609 1914 
Q 372 2147 372 2553 
Q 372 3047 722 3315 
Q 1072 3584 1716 3584 
Q 2034 3584 2315 3537 
Q 2597 3491 2834 3397 
z
" transform="scale(0.015625)"/>
      <path id="DejaVuSans-48" d="M 3597 1894 
L 3597 1613 
L 953 1613 
Q 991 1019 1311 708 
Q 1631 397 2203 397 
Q 2534 397 2845 478 
Q 3156 559 3463 722 
L 3463 178 
Q 3153 47 2828 -22 
Q 2503 -91 2169 -91 
Q 1331 -91 842 396 
Q 353 884 353 1716 
Q 353 2575 817 3079 
Q 1281 3584 2069 3584 
Q 2775 3584 3186 3129 
Q 3597 2675 3597 1894 
z
M 3022 2063 
Q 3016 2534 2758 2815 
Q 2500 3097 2075 3097 
Q 1594 3097 1305 2825 
Q 1016 2553 972 2059 
L 3022 2063 
z
" transform="scale(0.015625)"/>
      <path id="DejaVuSans-44" d="M 2194 1759 
Q 1497 1759 1228 1600 
Q 959 1441 959 1056 
Q 959 750 1161 570 
Q 1363 391 1709 391 
Q 2188 391 2477 730 
Q 2766 1069 2766 1631 
L 2766 1759 
L 2194 1759 
z
M 3341 1997 
L 3341 0 
L 2766 0 
L 2766 531 
Q 2569 213 2275 61 
Q 1981 -91 1556 -91 
Q 1019 -91 701 211 
Q 384 513 384 1019 
Q 384 1609 779 1909 
Q 1175 2209 1959 2209 
L 2766 2209 
L 2766 2266 
Q 2766 2663 2505 2880 
Q 2244 3097 1772 3097 
Q 1472 3097 1187 3025 
Q 903 2953 641 2809 
L 641 3341 
Q 956 3463 1253 3523 
Q 1550 3584 1831 3584 
Q 2591 3584 2966 3190 
Q 3341 2797 3341 1997 
z
" transform="scale(0.015625)"/>
      <path id="DejaVuSans-58" d="M 544 1381 
L 544 3500 
L 1119 3500 
L 1119 1403 
Q 1119 906 1312 657 
Q 1506 409 1894 409 
Q 2359 409 2629 706 
Q 2900 1003 2900 1516 
L 2900 3500 
L 3475 3500 
L 3475 0 
L 2900 0 
L 2900 538 
Q 2691 219 2414 64 
Q 2138 -91 1772 -91 
Q 1169 -91 856 284 
Q 544 659 544 1381 
z
M 1991 3584 
L 1991 3584 
z
" transform="scale(0.015625)"/>
      <path id="DejaVuSans-47" d="M 2906 2969 
L 2906 4863 
L 3481 4863 
L 3481 0 
L 2906 0 
L 2906 525 
Q 2725 213 2448 61 
Q 2172 -91 1784 -91 
Q 1150 -91 751 415 
Q 353 922 353 1747 
Q 353 2572 751 3078 
Q 1150 3584 1784 3584 
Q 2172 3584 2448 3432 
Q 2725 3281 2906 2969 
z
M 947 1747 
Q 947 1113 1208 752 
Q 1469 391 1925 391 
Q 2381 391 2643 752 
Q 2906 1113 2906 1747 
Q 2906 2381 2643 2742 
Q 2381 3103 1925 3103 
Q 1469 3103 1208 2742 
Q 947 2381 947 1747 
z
" transform="scale(0.015625)"/>
      <path id="DejaVuSans-a" d="M 1147 4666 
L 1147 2931 
L 616 2931 
L 616 4666 
L 1147 4666 
z
" transform="scale(0.015625)"/>
      <path id="DejaVuSans-46" d="M 3122 3366 
L 3122 2828 
Q 2878 2963 2633 3030 
Q 2388 3097 2138 3097 
Q 1578 3097 1268 2742 
Q 959 2388 959 1747 
Q 959 1106 1268 751 
Q 1578 397 2138 397 
Q 2388 397 2633 464 
Q 2878 531 3122 666 
L 3122 134 
Q 2881 22 2623 -34 
Q 2366 -91 2075 -91 
Q 1284 -91 818 406 
Q 353 903 353 1747 
Q 353 2603 823 3093 
Q 1294 3584 2113 3584 
Q 2378 3584 2631 3529 
Q 2884 3475 3122 3366 
z
" transform="scale(0.015625)"/>
      <path id="DejaVuSans-4b" d="M 3513 2113 
L 3513 0 
L 2938 0 
L 2938 2094 
Q 2938 2591 2744 2837 
Q 2550 3084 2163 3084 
Q 1697 3084 1428 2787 
Q 1159 2491 1159 1978 
L 1159 0 
L 581 0 
L 581 4863 
L 1159 4863 
L 1159 2956 
Q 1366 3272 1645 3428 
Q 1925 3584 2291 3584 
Q 2894 3584 3203 3211 
Q 3513 2838 3513 2113 
z
" transform="scale(0.015625)"/>
      <path id="DejaVuSans-4a" d="M 2906 1791 
Q 2906 2416 2648 2759 
Q 2391 3103 1925 3103 
Q 1463 3103 1205 2759 
Q 947 2416 947 1791 
Q 947 1169 1205 825 
Q 1463 481 1925 481 
Q 2391 481 2648 825 
Q 2906 1169 2906 1791 
z
M 3481 434 
Q 3481 -459 3084 -895 
Q 2688 -1331 1869 -1331 
Q 1566 -1331 1297 -1286 
Q 1028 -1241 775 -1147 
L 775 -588 
Q 1028 -725 1275 -790 
Q 1522 -856 1778 -856 
Q 2344 -856 2625 -561 
Q 2906 -266 2906 331 
L 2906 616 
Q 2728 306 2450 153 
Q 2172 0 1784 0 
Q 1141 0 747 490 
Q 353 981 353 1791 
Q 353 2603 747 3093 
Q 1141 3584 1784 3584 
Q 2172 3584 2450 3431 
Q 2728 3278 2906 2969 
L 2906 3500 
L 3481 3500 
L 3481 434 
z
" transform="scale(0.015625)"/>
      <path id="DejaVuSans-55" d="M 2631 2963 
Q 2534 3019 2420 3045 
Q 2306 3072 2169 3072 
Q 1681 3072 1420 2755 
Q 1159 2438 1159 1844 
L 1159 0 
L 581 0 
L 581 3500 
L 1159 3500 
L 1159 2956 
Q 1341 3275 1631 3429 
Q 1922 3584 2338 3584 
Q 2397 3584 2469 3576 
Q 2541 3569 2628 3553 
L 2631 2963 
z
" transform="scale(0.015625)"/>
      <path id="DejaVuSans-4f" d="M 603 4863 
L 1178 4863 
L 1178 0 
L 603 0 
L 603 4863 
z
" transform="scale(0.015625)"/>
      <path id="DejaVuSans-a2" d="M 2194 1759 
Q 1497 1759 1228 1600 
Q 959 1441 959 1056 
Q 959 750 1161 570 
Q 1363 391 1709 391 
Q 2188 391 2477 730 
Q 2766 1069 2766 1631 
L 2766 1759 
L 2194 1759 
z
M 3341 1997 
L 3341 0 
L 2766 0 
L 2766 531 
Q 2569 213 2275 61 
Q 1981 -91 1556 -91 
Q 1019 -91 701 211 
Q 384 513 384 1019 
Q 384 1609 779 1909 
Q 1175 2209 1959 2209 
L 2766 2209 
L 2766 2266 
Q 2766 2663 2505 2880 
Q 2244 3097 1772 3097 
Q 1472 3097 1187 3025 
Q 903 2953 641 2809 
L 641 3341 
Q 956 3463 1253 3523 
Q 1550 3584 1831 3584 
Q 2591 3584 2966 3190 
Q 3341 2797 3341 1997 
z
M 1403 5119 
L 2284 3950 
L 1806 3950 
L 787 5119 
L 1403 5119 
z
" transform="scale(0.015625)"/>
      <path id="DejaVuSans-53" d="M 1159 525 
L 1159 -1331 
L 581 -1331 
L 581 3500 
L 1159 3500 
L 1159 2969 
Q 1341 3281 1617 3432 
Q 1894 3584 2278 3584 
Q 2916 3584 3314 3078 
Q 3713 2572 3713 1747 
Q 3713 922 3314 415 
Q 2916 -91 2278 -91 
Q 1894 -91 1617 61 
Q 1341 213 1159 525 
z
M 3116 1747 
Q 3116 2381 2855 2742 
Q 2594 3103 2138 3103 
Q 1681 3103 1420 2742 
Q 1159 2381 1159 1747 
Q 1159 1113 1420 752 
Q 1681 391 2138 391 
Q 2594 391 2855 752 
Q 3116 1113 3116 1747 
z
" transform="scale(0.015625)"/>
      <path id="DejaVuSans-57" d="M 1172 4494 
L 1172 3500 
L 2356 3500 
L 2356 3053 
L 1172 3053 
L 1172 1153 
Q 1172 725 1289 603 
Q 1406 481 1766 481 
L 2356 481 
L 2356 0 
L 1766 0 
Q 1100 0 847 248 
Q 594 497 594 1153 
L 594 3053 
L 172 3053 
L 172 3500 
L 594 3500 
L 594 4494 
L 1172 4494 
z
" transform="scale(0.015625)"/>
      <path id="DejaVuSans-27" d="M 1259 4147 
L 1259 519 
L 2022 519 
Q 2988 519 3436 956 
Q 3884 1394 3884 2338 
Q 3884 3275 3436 3711 
Q 2988 4147 2022 4147 
L 1259 4147 
z
M 628 4666 
L 1925 4666 
Q 3281 4666 3915 4102 
Q 4550 3538 4550 2338 
Q 4550 1131 3912 565 
Q 3275 0 1925 0 
L 628 0 
L 628 4666 
z
" transform="scale(0.015625)"/>
      <path id="DejaVuSans-29" d="M 628 4666 
L 3309 4666 
L 3309 4134 
L 1259 4134 
L 1259 2759 
L 3109 2759 
L 3109 2228 
L 1259 2228 
L 1259 0 
L 628 0 
L 628 4666 
z
" transform="scale(0.015625)"/>
     </defs>
     <use xlink:href="#DejaVuSans-35"/>
     <use xlink:href="#DejaVuSans-ab" transform="translate(65 0)"/>
     <use xlink:href="#DejaVuSans-56" transform="translate(126.53125 0)"/>
     <use xlink:href="#DejaVuSans-48" transform="translate(178.625 0)"/>
     <use xlink:href="#DejaVuSans-44" transform="translate(240.15625 0)"/>
     <use xlink:href="#DejaVuSans-58" transform="translate(301.4375 0)"/>
     <use xlink:href="#DejaVuSans-3" transform="translate(364.8125 0)"/>
     <use xlink:href="#DejaVuSans-47" transform="translate(396.59375 0)"/>
     <use xlink:href="#DejaVuSans-a" transform="translate(460.078125 0)"/>
     <use xlink:href="#DejaVuSans-ab" transform="translate(487.5625 0)"/>
     <use xlink:href="#DejaVuSans-46" transform="translate(549.09375 0)"/>
     <use xlink:href="#DejaVuSans-4b" transform="translate(604.078125 0)"/>
     <use xlink:href="#DejaVuSans-44" transform="translate(667.453125 0)"/>
     <use xlink:href="#DejaVuSans-51" transform="translate(728.734375 0)"/>
     <use xlink:href="#DejaVuSans-4a" transform="translate(792.109375 0)"/>
     <use xlink:href="#DejaVuSans-48" transform="translate(855.59375 0)"/>
     <use xlink:href="#DejaVuSans-58" transform="translate(917.125 0)"/>
     <use xlink:href="#DejaVuSans-55" transform="translate(980.5 0)"/>
     <use xlink:href="#DejaVuSans-56" transform="translate(1021.609375 0)"/>
     <use xlink:href="#DejaVuSans-3" transform="translate(1073.703125 0)"/>
     <use xlink:href="#DejaVuSans-47" transform="translate(1105.484375 0)"/>
     <use xlink:href="#DejaVuSans-48" transform="translate(1168.96875 0)"/>
     <use xlink:href="#DejaVuSans-3" transform="translate(1230.5 0)"/>
     <use xlink:href="#DejaVuSans-46" transform="translate(1262.28125 0)"/>
     <use xlink:href="#DejaVuSans-4b" transform="translate(1317.265625 0)"/>
     <use xlink:href="#DejaVuSans-44" transform="translate(1380.640625 0)"/>
     <use xlink:href="#DejaVuSans-4f" transform="translate(1441.921875 0)"/>
     <use xlink:href="#DejaVuSans-48" transform="translate(1469.703125 0)"/>
     <use xlink:href="#DejaVuSans-58" transform="translate(1531.234375 0)"/>
     <use xlink:href="#DejaVuSans-55" transform="translate(1594.609375 0)"/>
     <use xlink:href="#DejaVuSans-3" transform="translate(1635.71875 0)"/>
     <use xlink:href="#DejaVuSans-a2" transform="translate(1667.5 0)"/>
     <use xlink:href="#DejaVuSans-3" transform="translate(1728.78125 0)"/>
     <use xlink:href="#DejaVuSans-53" transform="translate(1760.5625 0)"/>
     <use xlink:href="#DejaVuSans-44" transform="translate(1824.046875 0)"/>
     <use xlink:href="#DejaVuSans-55" transform="translate(1885.328125 0)"/>
     <use xlink:href="#DejaVuSans-57" transform="translate(1926.4375 0)"/>
     <use xlink:href="#DejaVuSans-4c" transform="translate(1965.640625 0)"/>
     <use xlink:href="#DejaVuSans-55" transform="translate(1993.421875 0)"/>
     <use xlink:href="#DejaVuSans-3" transform="translate(2034.53125 0)"/>
     <use xlink:href="#DejaVuSans-47" transform="translate(2066.3125 0)"/>
     <use xlink:href="#DejaVuSans-a" transform="translate(2129.796875 0)"/>
     <use xlink:href="#DejaVuSans-58" transform="translate(2157.28125 0)"/>
     <use xlink:href="#DejaVuSans-51" transform="translate(2220.65625 0)"/>
     <use xlink:href="#DejaVuSans-3" transform="translate(2284.03125 0)"/>
     <use xlink:href="#DejaVuSans-27" transform="translate(2315.8125 0)"/>
     <use xlink:href="#DejaVuSans-44" transform="translate(2392.8125 0)"/>
     <use xlink:href="#DejaVuSans-57" transform="translate(2454.09375 0)"/>
     <use xlink:href="#DejaVuSans-44" transform="translate(2493.296875 0)"/>
     <use xlink:href="#DejaVuSans-29" transform="translate(2554.578125 0)"/>
     <use xlink:href="#DejaVuSans-55" transform="translate(2604.8125 0)"/>
     <use xlink:href="#DejaVuSans-44" transform="translate(2645.921875 0)"/>
     <use xlink:href="#DejaVuSans-50" transform="translate(2707.203125 0)"/>
     <use xlink:href="#DejaVuSans-48" transform="translate(2804.609375 0)"/>
    </g>
   </g>
  </g>
 </g>
 <defs>
  <clipPath id="p776403cfd0">
   <rect x="7.2" y="21.198437" width="938.16" height="504.48"/>
  </clipPath>
 </defs>
</svg>
