<svg xmlns="http://www.w3.org/2000/svg" width="760" height="360" viewBox="0 0 760 360">
<rect width="100%" height="100%" fill="#fff"/>
<text x="30" y="30" font-family="Arial" font-size="18" font-weight="700">Aperçu des courbes composites</text>
<line x1="72" y1="288" x2="692" y2="288" stroke="#111827"/>
<line x1="72" y1="58" x2="72" y2="288" stroke="#111827"/>
<text x="382.0" y="338" font-family="Arial" font-size="12" text-anchor="middle">Enthalpie cumulée</text>
<text x="18" y="173.0" font-family="Arial" font-size="12" text-anchor="middle" transform="rotate(-90 18,173.0)">Température</text>
<line x1="72" y1="58.0" x2="692" y2="58.0" stroke="#e5e7eb"/>
<line x1="72" y1="104.0" x2="692" y2="104.0" stroke="#e5e7eb"/>
<line x1="72" y1="150.0" x2="692" y2="150.0" stroke="#e5e7eb"/>
<line x1="72" y1="196.0" x2="692" y2="196.0" stroke="#e5e7eb"/>
<line x1="72" y1="242.0" x2="692" y2="242.0" stroke="#e5e7eb"/>
<line x1="72" y1="288.0" x2="692" y2="288.0" stroke="#e5e7eb"/>
<polyline points="72.0,58.0 196.0,101.1 320.0,144.2 444.0,187.4 568.0,237.7 692.0,288.0" fill="none" stroke="#2670a8" stroke-width="2.4"/>
<text x="710" y="78" font-family="Arial" font-size="12" fill="#2670a8">Composite chaude</text>
<polyline points="72.0,288.0 196.0,248.7 320.0,209.5 444.0,170.2 568.0,119.7 692.0,58.0" fill="none" stroke="#d97706" stroke-width="2.4"/>
<text x="710" y="98" font-family="Arial" font-size="12" fill="#d97706">Composite froide</text>
</svg>