<svg xmlns="http://www.w3.org/2000/svg" width="1101" height="176" viewBox="0 0 1101 176" role="img" aria-labelledby="title desc">
  <title id="title">Pinch - Sensibilité au ΔTmin</title>
  <desc id="desc">Balayage du ΔTmin pour comparer utilités et coût énergétique.</desc>
  <defs>
    <marker id="arrow" markerWidth="10" markerHeight="10" refX="9" refY="3" orient="auto" markerUnits="strokeWidth">
      <path d="M0,0 L0,6 L9,3 z" fill="#4b5563"/>
    </marker>
    <style>
      .diagram-title { font: 700 18px Arial, sans-serif; fill: #111827; }
      .node-title { font: 700 13px Arial, sans-serif; fill: #111827; }
      .node-subtitle { font: 11px Arial, sans-serif; fill: #374151; }
      .edge-label { font: 11px Arial, sans-serif; fill: #374151; }
    </style>
  </defs>
  <rect width="100%" height="100%" fill="#ffffff"/>
  <text x="38" y="26" class="diagram-title">Pinch - Sensibilité au ΔTmin</text>
  <path d="M 208 83.0 C 265.5 83.0, 265.5 83.0, 323 83.0" fill="none" stroke="#4b5563" stroke-width="1.7" marker-end="url(#arrow)"/>
<text x="265.5" y="75.0" text-anchor="middle" class="edge-label">copy df</text>
<path d="M 493 83.0 C 550.5 83.0, 550.5 83.0, 608 83.0" fill="none" stroke="#4b5563" stroke-width="1.7" marker-end="url(#arrow)"/>
<text x="550.5" y="75.0" text-anchor="middle" class="edge-label">Object(df_test)</text>
<path d="M 778 83.0 C 835.5 83.0, 835.5 83.0, 893 83.0" fill="none" stroke="#4b5563" stroke-width="1.7" marker-end="url(#arrow)"/>
<text x="835.5" y="75.0" text-anchor="middle" class="edge-label">plt.plot</text>
  <rect x="38" y="50" width="170" height="66" rx="8" fill="#fff4de" stroke="#b46a00" stroke-width="1.6"/>
<text x="123.0" y="76" text-anchor="middle" class="node-title">Jeu de flux</text>
<text x="123.0" y="102" text-anchor="middle" class="node-subtitle">données fixes</text>
<rect x="323" y="50" width="170" height="66" rx="8" fill="#eaf4ff" stroke="#2670a8" stroke-width="1.6"/>
<text x="408.0" y="76" text-anchor="middle" class="node-title">Balayage ΔTmin</text>
<text x="408.0" y="102" text-anchor="middle" class="node-subtitle">5 à 30 degC</text>
<rect x="608" y="50" width="170" height="66" rx="8" fill="#fff0f0" stroke="#b33a3a" stroke-width="1.6"/>
<text x="693.0" y="76" text-anchor="middle" class="node-title">Qh / Qc</text>
<text x="693.0" y="102" text-anchor="middle" class="node-subtitle">par scénario</text>
<rect x="893" y="50" width="170" height="66" rx="8" fill="#f0ecff" stroke="#6554b8" stroke-width="1.6"/>
<text x="978.0" y="76" text-anchor="middle" class="node-title">Courbe sensibilité</text>
<text x="978.0" y="102" text-anchor="middle" class="node-subtitle">matplotlib</text>
</svg>
