<?xml version="1.0" encoding="utf-8" standalone="no"?>
<!DOCTYPE svg PUBLIC "-//W3C//DTD SVG 1.1//EN"
  "http://www.w3.org/Graphics/SVG/1.1/DTD/svg11.dtd">
<svg xmlns:xlink="http://www.w3.org/1999/xlink" width="576pt" height="360pt" viewBox="0 0 576 360" xmlns="http://www.w3.org/2000/svg" version="1.1">
 <metadata>
  <rdf:RDF xmlns:dc="http://purl.org/dc/elements/1.1/" xmlns:cc="http://creativecommons.org/ns#" xmlns:rdf="http://www.w3.org/1999/02/22-rdf-syntax-ns#">
   <cc:Work>
    <dc:type rdf:resource="http://purl.org/dc/dcmitype/StillImage"/>
    <dc:date>2026-07-10T12:19:00.320609</dc:date>
    <dc:format>image/svg+xml</dc:format>
    <dc:creator>
     <cc:Agent>
      <dc:title>Matplotlib v3.11.0, https://matplotlib.org/</dc:title>
     </cc:Agent>
    </dc:creator>
   </cc:Work>
  </rdf:RDF>
 </metadata>
 <defs>
  <style type="text/css">*{stroke-linejoin: round; stroke-linecap: butt}</style>
 </defs>
 <g id="figure_1">
  <g id="patch_1">
   <path d="M 0 360 
L 576 360 
L 576 0 
L 0 0 
z
" style="fill: #ffffff"/>
  </g>
  <g id="axes_1">
   <g id="patch_2">
    <path d="M 51.562344 317.877656 
L 565.2 317.877656 
L 565.2 26.16 
L 51.562344 26.16 
z
" style="fill: #ffffff"/>
   </g>
   <g id="FillBetweenPolyCollection_1">
    <defs>
     <path id="mf5e4e3829b" d="M 96.083551 -67.717022 
L 96.083551 -69.399038 
L 98.79644 -70.763906 
L 101.509329 -72.128774 
L 104.222217 -73.493643 
L 106.935106 -74.858511 
L 109.647995 -76.223379 
L 112.360884 -77.588248 
L 115.073773 -78.953116 
L 117.786661 -80.317984 
L 120.49955 -81.682852 
L 123.212439 -83.047721 
L 125.925328 -84.412589 
L 128.638217 -85.777457 
L 131.351106 -87.142325 
L 134.063994 -88.507194 
L 136.776883 -89.872062 
L 139.489772 -91.23693 
L 142.202661 -92.601799 
L 144.91555 -93.966667 
L 147.628438 -95.331535 
L 150.341327 -96.696403 
L 153.054216 -98.061272 
L 155.767105 -99.42614 
L 158.479994 -100.791008 
L 161.192883 -102.155876 
L 163.905771 -103.520745 
L 166.61866 -104.885613 
L 169.331549 -106.250481 
L 172.044438 -107.615349 
L 174.757327 -108.980218 
L 177.470215 -110.345086 
L 180.183104 -111.709954 
L 182.895993 -113.074823 
L 185.608882 -114.439691 
L 188.321771 -115.804559 
L 191.03466 -117.169427 
L 193.747548 -118.534296 
L 196.460437 -119.899164 
L 199.173326 -121.264032 
L 201.886215 -122.6289 
L 204.599104 -123.993769 
L 207.311992 -125.358637 
L 210.024881 -126.723505 
L 212.73777 -128.088374 
L 215.450659 -129.453242 
L 218.163548 -130.81811 
L 220.876437 -132.182978 
L 223.589325 -133.547847 
L 226.302214 -134.912715 
L 229.015103 -136.277583 
L 231.727992 -137.642451 
L 234.440881 -139.00732 
L 237.153769 -140.372188 
L 239.866658 -141.737056 
L 242.579547 -143.101925 
L 245.292436 -144.466793 
L 248.005325 -145.831661 
L 250.718213 -147.196529 
L 253.431102 -148.561398 
L 256.143991 -149.926266 
L 258.85688 -151.291134 
L 261.569769 -152.656002 
L 264.282658 -154.020871 
L 266.995546 -156.490093 
L 269.708435 -158.992351 
L 272.421324 -161.49461 
L 275.134213 -163.996868 
L 277.847102 -166.499127 
L 280.55999 -169.001385 
L 283.272879 -171.503644 
L 285.985768 -174.005902 
L 288.698657 -176.508161 
L 291.411546 -179.010419 
L 294.124435 -181.512678 
L 296.837323 -184.014936 
L 299.550212 -186.517195 
L 302.263101 -189.019453 
L 304.97599 -191.521712 
L 307.688879 -194.02397 
L 310.401767 -196.526229 
L 313.114656 -199.028487 
L 315.827545 -201.530746 
L 318.540434 -204.033004 
L 321.253323 -206.535263 
L 323.966212 -209.037521 
L 326.6791 -211.53978 
L 329.391989 -214.042038 
L 332.104878 -216.544297 
L 334.817767 -219.046555 
L 337.530656 -221.548814 
L 340.243544 -224.051072 
L 342.956433 -226.553331 
L 345.669322 -229.055589 
L 348.382211 -231.557848 
L 351.0951 -234.060106 
L 353.807989 -236.562365 
L 356.520877 -239.064623 
L 359.233766 -241.566882 
L 361.946655 -244.06914 
L 364.659544 -246.571399 
L 364.659544 -193.634615 
L 364.659544 -193.634615 
L 361.946655 -192.383486 
L 359.233766 -191.132356 
L 356.520877 -189.881227 
L 353.807989 -188.630098 
L 351.0951 -187.378969 
L 348.382211 -186.127839 
L 345.669322 -184.87671 
L 342.956433 -183.625581 
L 340.243544 -182.374452 
L 337.530656 -181.123322 
L 334.817767 -179.872193 
L 332.104878 -178.621064 
L 329.391989 -177.369935 
L 326.6791 -176.118805 
L 323.966212 -174.867676 
L 321.253323 -173.616547 
L 318.540434 -172.365418 
L 315.827545 -171.114288 
L 313.114656 -169.863159 
L 310.401767 -168.61203 
L 307.688879 -167.360901 
L 304.97599 -166.109771 
L 302.263101 -164.858642 
L 299.550212 -163.607513 
L 296.837323 -162.356384 
L 294.124435 -161.105254 
L 291.411546 -159.854125 
L 288.698657 -158.602996 
L 285.985768 -157.351867 
L 283.272879 -156.100737 
L 280.55999 -154.849608 
L 277.847102 -153.598479 
L 275.134213 -152.34735 
L 272.421324 -151.09622 
L 269.708435 -149.845091 
L 266.995546 -148.593962 
L 264.282658 -147.342833 
L 261.569769 -146.091703 
L 258.85688 -144.840574 
L 256.143991 -143.589445 
L 253.431102 -142.338316 
L 250.718213 -141.087186 
L 248.005325 -139.836057 
L 245.292436 -138.584928 
L 242.579547 -137.333799 
L 239.866658 -136.082669 
L 237.153769 -134.83154 
L 234.440881 -133.580411 
L 231.727992 -132.329282 
L 229.015103 -131.078152 
L 226.302214 -129.827023 
L 223.589325 -128.575894 
L 220.876437 -127.324765 
L 218.163548 -126.073635 
L 215.450659 -124.822506 
L 212.73777 -123.571377 
L 210.024881 -122.320248 
L 207.311992 -121.069118 
L 204.599104 -119.817989 
L 201.886215 -118.56686 
L 199.173326 -117.315731 
L 196.460437 -116.064601 
L 193.747548 -114.813472 
L 191.03466 -113.562343 
L 188.321771 -112.311214 
L 185.608882 -111.060084 
L 182.895993 -109.808955 
L 180.183104 -108.557826 
L 177.470215 -107.306697 
L 174.757327 -106.055567 
L 172.044438 -104.804438 
L 169.331549 -103.553309 
L 166.61866 -102.30218 
L 163.905771 -101.05105 
L 161.192883 -99.799921 
L 158.479994 -98.548792 
L 155.767105 -97.297663 
L 153.054216 -96.046533 
L 150.341327 -94.795404 
L 147.628438 -93.544275 
L 144.91555 -92.293146 
L 142.202661 -91.042016 
L 139.489772 -89.790887 
L 136.776883 -88.539758 
L 134.063994 -87.288629 
L 131.351106 -86.037499 
L 128.638217 -84.78637 
L 125.925328 -83.535241 
L 123.212439 -82.284112 
L 120.49955 -81.032983 
L 117.786661 -79.781853 
L 115.073773 -78.530724 
L 112.360884 -77.279595 
L 109.647995 -76.028466 
L 106.935106 -74.777336 
L 104.222217 -73.347103 
L 101.509329 -71.47041 
L 98.79644 -69.593716 
L 96.083551 -67.717022 
z
" style="stroke: #008000; stroke-opacity: 0.3"/>
    </defs>
    <g clip-path="url(#pe4cd83e2f7)">
     <use xlink:href="#mf5e4e3829b" x="0" y="360" style="fill: #008000; fill-opacity: 0.3; stroke: #008000; stroke-opacity: 0.3"/>
    </g>
   </g>
   <g id="matplotlib.axis_1">
    <g id="xtick_1">
     <g id="line2d_1">
      <defs>
       <path id="mccac1431b8" d="M 0 0 
L 0 3.5 
" style="stroke: #000000; stroke-width: 0.8"/>
      </defs>
      <g>
       <use xlink:href="#mccac1431b8" x="74.90951" y="317.877656" style="stroke: #000000; stroke-width: 0.8"/>
      </g>
     </g>
     <g id="text_1">
      <!-- 0 -->
      <g transform="translate(71.72826 332.475312) scale(0.1 -0.1)">
       <defs>
        <path id="DejaVuSans-13" d="M 2034 4250 
Q 1547 4250 1301 3770 
Q 1056 3291 1056 2328 
Q 1056 1369 1301 889 
Q 1547 409 2034 409 
Q 2525 409 2770 889 
Q 3016 1369 3016 2328 
Q 3016 3291 2770 3770 
Q 2525 4250 2034 4250 
z
M 2034 4750 
Q 2819 4750 3233 4129 
Q 3647 3509 3647 2328 
Q 3647 1150 3233 529 
Q 2819 -91 2034 -91 
Q 1250 -91 836 529 
Q 422 1150 422 2328 
Q 422 3509 836 4129 
Q 1250 4750 2034 4750 
z
" transform="scale(0.015625)"/>
       </defs>
       <use xlink:href="#DejaVuSans-13"/>
      </g>
     </g>
    </g>
    <g id="xtick_2">
     <g id="line2d_2">
      <g>
       <use xlink:href="#mccac1431b8" x="164.063367" y="317.877656" style="stroke: #000000; stroke-width: 0.8"/>
      </g>
     </g>
     <g id="text_2">
      <!-- 200 -->
      <g transform="translate(154.519617 332.475312) scale(0.1 -0.1)">
       <defs>
        <path id="DejaVuSans-15" d="M 1228 531 
L 3431 531 
L 3431 0 
L 469 0 
L 469 531 
Q 828 903 1448 1529 
Q 2069 2156 2228 2338 
Q 2531 2678 2651 2914 
Q 2772 3150 2772 3378 
Q 2772 3750 2511 3984 
Q 2250 4219 1831 4219 
Q 1534 4219 1204 4116 
Q 875 4013 500 3803 
L 500 4441 
Q 881 4594 1212 4672 
Q 1544 4750 1819 4750 
Q 2544 4750 2975 4387 
Q 3406 4025 3406 3419 
Q 3406 3131 3298 2873 
Q 3191 2616 2906 2266 
Q 2828 2175 2409 1742 
Q 1991 1309 1228 531 
z
" transform="scale(0.015625)"/>
       </defs>
       <use xlink:href="#DejaVuSans-15"/>
       <use xlink:href="#DejaVuSans-13" transform="translate(63.625 0)"/>
       <use xlink:href="#DejaVuSans-13" transform="translate(127.25 0)"/>
      </g>
     </g>
    </g>
    <g id="xtick_3">
     <g id="line2d_3">
      <g>
       <use xlink:href="#mccac1431b8" x="253.217223" y="317.877656" style="stroke: #000000; stroke-width: 0.8"/>
      </g>
     </g>
     <g id="text_3">
      <!-- 400 -->
      <g transform="translate(243.673473 332.475312) scale(0.1 -0.1)">
       <defs>
        <path id="DejaVuSans-17" d="M 2419 4116 
L 825 1625 
L 2419 1625 
L 2419 4116 
z
M 2253 4666 
L 3047 4666 
L 3047 1625 
L 3713 1625 
L 3713 1100 
L 3047 1100 
L 3047 0 
L 2419 0 
L 2419 1100 
L 313 1100 
L 313 1709 
L 2253 4666 
z
" transform="scale(0.015625)"/>
       </defs>
       <use xlink:href="#DejaVuSans-17"/>
       <use xlink:href="#DejaVuSans-13" transform="translate(63.625 0)"/>
       <use xlink:href="#DejaVuSans-13" transform="translate(127.25 0)"/>
      </g>
     </g>
    </g>
    <g id="xtick_4">
     <g id="line2d_4">
      <g>
       <use xlink:href="#mccac1431b8" x="342.37108" y="317.877656" style="stroke: #000000; stroke-width: 0.8"/>
      </g>
     </g>
     <g id="text_4">
      <!-- 600 -->
      <g transform="translate(332.82733 332.475312) scale(0.1 -0.1)">
       <defs>
        <path id="DejaVuSans-19" d="M 2113 2584 
Q 1688 2584 1439 2293 
Q 1191 2003 1191 1497 
Q 1191 994 1439 701 
Q 1688 409 2113 409 
Q 2538 409 2786 701 
Q 3034 994 3034 1497 
Q 3034 2003 2786 2293 
Q 2538 2584 2113 2584 
z
M 3366 4563 
L 3366 3988 
Q 3128 4100 2886 4159 
Q 2644 4219 2406 4219 
Q 1781 4219 1451 3797 
Q 1122 3375 1075 2522 
Q 1259 2794 1537 2939 
Q 1816 3084 2150 3084 
Q 2853 3084 3261 2657 
Q 3669 2231 3669 1497 
Q 3669 778 3244 343 
Q 2819 -91 2113 -91 
Q 1303 -91 875 529 
Q 447 1150 447 2328 
Q 447 3434 972 4092 
Q 1497 4750 2381 4750 
Q 2619 4750 2861 4703 
Q 3103 4656 3366 4563 
z
" transform="scale(0.015625)"/>
       </defs>
       <use xlink:href="#DejaVuSans-19"/>
       <use xlink:href="#DejaVuSans-13" transform="translate(63.625 0)"/>
       <use xlink:href="#DejaVuSans-13" transform="translate(127.25 0)"/>
      </g>
     </g>
    </g>
    <g id="xtick_5">
     <g id="line2d_5">
      <g>
       <use xlink:href="#mccac1431b8" x="431.524936" y="317.877656" style="stroke: #000000; stroke-width: 0.8"/>
      </g>
     </g>
     <g id="text_5">
      <!-- 800 -->
      <g transform="translate(421.981186 332.475312) scale(0.1 -0.1)">
       <defs>
        <path id="DejaVuSans-1b" d="M 2034 2216 
Q 1584 2216 1326 1975 
Q 1069 1734 1069 1313 
Q 1069 891 1326 650 
Q 1584 409 2034 409 
Q 2484 409 2743 651 
Q 3003 894 3003 1313 
Q 3003 1734 2745 1975 
Q 2488 2216 2034 2216 
z
M 1403 2484 
Q 997 2584 770 2862 
Q 544 3141 544 3541 
Q 544 4100 942 4425 
Q 1341 4750 2034 4750 
Q 2731 4750 3128 4425 
Q 3525 4100 3525 3541 
Q 3525 3141 3298 2862 
Q 3072 2584 2669 2484 
Q 3125 2378 3379 2068 
Q 3634 1759 3634 1313 
Q 3634 634 3220 271 
Q 2806 -91 2034 -91 
Q 1263 -91 848 271 
Q 434 634 434 1313 
Q 434 1759 690 2068 
Q 947 2378 1403 2484 
z
M 1172 3481 
Q 1172 3119 1398 2916 
Q 1625 2713 2034 2713 
Q 2441 2713 2670 2916 
Q 2900 3119 2900 3481 
Q 2900 3844 2670 4047 
Q 2441 4250 2034 4250 
Q 1625 4250 1398 4047 
Q 1172 3844 1172 3481 
z
" transform="scale(0.015625)"/>
       </defs>
       <use xlink:href="#DejaVuSans-1b"/>
       <use xlink:href="#DejaVuSans-13" transform="translate(63.625 0)"/>
       <use xlink:href="#DejaVuSans-13" transform="translate(127.25 0)"/>
      </g>
     </g>
    </g>
    <g id="xtick_6">
     <g id="line2d_6">
      <g>
       <use xlink:href="#mccac1431b8" x="520.678793" y="317.877656" style="stroke: #000000; stroke-width: 0.8"/>
      </g>
     </g>
     <g id="text_6">
      <!-- 1000 -->
      <g transform="translate(507.953793 332.475312) scale(0.1 -0.1)">
       <defs>
        <path id="DejaVuSans-14" d="M 794 531 
L 1825 531 
L 1825 4091 
L 703 3866 
L 703 4441 
L 1819 4666 
L 2450 4666 
L 2450 531 
L 3481 531 
L 3481 0 
L 794 0 
L 794 531 
z
" transform="scale(0.015625)"/>
       </defs>
       <use xlink:href="#DejaVuSans-14"/>
       <use xlink:href="#DejaVuSans-13" transform="translate(63.625 0)"/>
       <use xlink:href="#DejaVuSans-13" transform="translate(127.25 0)"/>
       <use xlink:href="#DejaVuSans-13" transform="translate(190.875 0)"/>
      </g>
     </g>
    </g>
    <g id="text_7">
     <!-- Heat flow (kW) -->
     <g transform="translate(271.303828 346.476094) scale(0.1 -0.1)">
      <defs>
       <path id="DejaVuSans-2b" d="M 628 4666 
L 1259 4666 
L 1259 2753 
L 3553 2753 
L 3553 4666 
L 4184 4666 
L 4184 0 
L 3553 0 
L 3553 2222 
L 1259 2222 
L 1259 0 
L 628 0 
L 628 4666 
z
" transform="scale(0.015625)"/>
       <path id="DejaVuSans-48" d="M 3597 1894 
L 3597 1613 
L 953 1613 
Q 991 1019 1311 708 
Q 1631 397 2203 397 
Q 2534 397 2845 478 
Q 3156 559 3463 722 
L 3463 178 
Q 3153 47 2828 -22 
Q 2503 -91 2169 -91 
Q 1331 -91 842 396 
Q 353 884 353 1716 
Q 353 2575 817 3079 
Q 1281 3584 2069 3584 
Q 2775 3584 3186 3129 
Q 3597 2675 3597 1894 
z
M 3022 2063 
Q 3016 2534 2758 2815 
Q 2500 3097 2075 3097 
Q 1594 3097 1305 2825 
Q 1016 2553 972 2059 
L 3022 2063 
z
" transform="scale(0.015625)"/>
       <path id="DejaVuSans-44" d="M 2194 1759 
Q 1497 1759 1228 1600 
Q 959 1441 959 1056 
Q 959 750 1161 570 
Q 1363 391 1709 391 
Q 2188 391 2477 730 
Q 2766 1069 2766 1631 
L 2766 1759 
L 2194 1759 
z
M 3341 1997 
L 3341 0 
L 2766 0 
L 2766 531 
Q 2569 213 2275 61 
Q 1981 -91 1556 -91 
Q 1019 -91 701 211 
Q 384 513 384 1019 
Q 384 1609 779 1909 
Q 1175 2209 1959 2209 
L 2766 2209 
L 2766 2266 
Q 2766 2663 2505 2880 
Q 2244 3097 1772 3097 
Q 1472 3097 1187 3025 
Q 903 2953 641 2809 
L 641 3341 
Q 956 3463 1253 3523 
Q 1550 3584 1831 3584 
Q 2591 3584 2966 3190 
Q 3341 2797 3341 1997 
z
" transform="scale(0.015625)"/>
       <path id="DejaVuSans-57" d="M 1172 4494 
L 1172 3500 
L 2356 3500 
L 2356 3053 
L 1172 3053 
L 1172 1153 
Q 1172 725 1289 603 
Q 1406 481 1766 481 
L 2356 481 
L 2356 0 
L 1766 0 
Q 1100 0 847 248 
Q 594 497 594 1153 
L 594 3053 
L 172 3053 
L 172 3500 
L 594 3500 
L 594 4494 
L 1172 4494 
z
" transform="scale(0.015625)"/>
       <path id="DejaVuSans-3" transform="scale(0.015625)"/>
       <path id="DejaVuSans-13b0" d="M 1831 4863 
L 3431 4863 
L 3431 0 
L 2853 0 
L 2853 4384 
L 1825 4384 
Q 1516 4384 1395 4259 
Q 1275 4134 1275 3809 
L 1275 3500 
L 2222 3500 
L 2222 3053 
L 1275 3053 
L 1275 0 
L 697 0 
L 697 3053 
L 147 3053 
L 147 3500 
L 697 3500 
L 697 3744 
Q 697 4328 969 4595 
Q 1241 4863 1831 4863 
z
" transform="scale(0.015625)"/>
       <path id="DejaVuSans-52" d="M 1959 3097 
Q 1497 3097 1228 2736 
Q 959 2375 959 1747 
Q 959 1119 1226 758 
Q 1494 397 1959 397 
Q 2419 397 2687 759 
Q 2956 1122 2956 1747 
Q 2956 2369 2687 2733 
Q 2419 3097 1959 3097 
z
M 1959 3584 
Q 2709 3584 3137 3096 
Q 3566 2609 3566 1747 
Q 3566 888 3137 398 
Q 2709 -91 1959 -91 
Q 1206 -91 779 398 
Q 353 888 353 1747 
Q 353 2609 779 3096 
Q 1206 3584 1959 3584 
z
" transform="scale(0.015625)"/>
       <path id="DejaVuSans-5a" d="M 269 3500 
L 844 3500 
L 1563 769 
L 2278 3500 
L 2956 3500 
L 3675 769 
L 4391 3500 
L 4966 3500 
L 4050 0 
L 3372 0 
L 2619 2869 
L 1863 0 
L 1184 0 
L 269 3500 
z
" transform="scale(0.015625)"/>
       <path id="DejaVuSans-b" d="M 1984 4856 
Q 1566 4138 1362 3434 
Q 1159 2731 1159 2009 
Q 1159 1288 1364 580 
Q 1569 -128 1984 -844 
L 1484 -844 
Q 1016 -109 783 600 
Q 550 1309 550 2009 
Q 550 2706 781 3412 
Q 1013 4119 1484 4856 
L 1984 4856 
z
" transform="scale(0.015625)"/>
       <path id="DejaVuSans-4e" d="M 581 4863 
L 1159 4863 
L 1159 1991 
L 2875 3500 
L 3609 3500 
L 1753 1863 
L 3688 0 
L 2938 0 
L 1159 1709 
L 1159 0 
L 581 0 
L 581 4863 
z
" transform="scale(0.015625)"/>
       <path id="DejaVuSans-3a" d="M 213 4666 
L 850 4666 
L 1831 722 
L 2809 4666 
L 3519 4666 
L 4500 722 
L 5478 4666 
L 6119 4666 
L 4947 0 
L 4153 0 
L 3169 4050 
L 2175 0 
L 1381 0 
L 213 4666 
z
" transform="scale(0.015625)"/>
       <path id="DejaVuSans-c" d="M 513 4856 
L 1013 4856 
Q 1481 4119 1714 3412 
Q 1947 2706 1947 2009 
Q 1947 1309 1714 600 
Q 1481 -109 1013 -844 
L 513 -844 
Q 928 -128 1133 580 
Q 1338 1288 1338 2009 
Q 1338 2731 1133 3434 
Q 928 4138 513 4856 
z
" transform="scale(0.015625)"/>
      </defs>
      <use xlink:href="#DejaVuSans-2b"/>
      <use xlink:href="#DejaVuSans-48" transform="translate(75.203125 0)"/>
      <use xlink:href="#DejaVuSans-44" transform="translate(136.734375 0)"/>
      <use xlink:href="#DejaVuSans-57" transform="translate(198.015625 0)"/>
      <use xlink:href="#DejaVuSans-3" transform="translate(237.21875 0)"/>
      <use xlink:href="#DejaVuSans-13b0" transform="translate(269 0)"/>
      <use xlink:href="#DejaVuSans-52" transform="translate(331.984375 0)"/>
      <use xlink:href="#DejaVuSans-5a" transform="translate(393.171875 0)"/>
      <use xlink:href="#DejaVuSans-3" transform="translate(474.953125 0)"/>
      <use xlink:href="#DejaVuSans-b" transform="translate(506.734375 0)"/>
      <use xlink:href="#DejaVuSans-4e" transform="translate(545.75 0)"/>
      <use xlink:href="#DejaVuSans-3a" transform="translate(603.65625 0)"/>
      <use xlink:href="#DejaVuSans-c" transform="translate(702.53125 0)"/>
     </g>
    </g>
   </g>
   <g id="matplotlib.axis_2">
    <g id="ytick_1">
     <g id="line2d_7">
      <defs>
       <path id="m450ead46e3" d="M 0 0 
L -3.5 0 
" style="stroke: #000000; stroke-width: 0.8"/>
      </defs>
      <g>
       <use xlink:href="#m450ead46e3" x="51.562344" y="292.282978" style="stroke: #000000; stroke-width: 0.8"/>
      </g>
     </g>
     <g id="text_8">
      <!-- 50 -->
      <g transform="translate(31.837344 296.081806) scale(0.1 -0.1)">
       <defs>
        <path id="DejaVuSans-18" d="M 691 4666 
L 3169 4666 
L 3169 4134 
L 1269 4134 
L 1269 2991 
Q 1406 3038 1543 3061 
Q 1681 3084 1819 3084 
Q 2600 3084 3056 2656 
Q 3513 2228 3513 1497 
Q 3513 744 3044 326 
Q 2575 -91 1722 -91 
Q 1428 -91 1123 -41 
Q 819 9 494 109 
L 494 744 
Q 775 591 1075 516 
Q 1375 441 1709 441 
Q 2250 441 2565 725 
Q 2881 1009 2881 1497 
Q 2881 1984 2565 2268 
Q 2250 2553 1709 2553 
Q 1456 2553 1204 2497 
Q 953 2441 691 2322 
L 691 4666 
z
" transform="scale(0.015625)"/>
       </defs>
       <use xlink:href="#DejaVuSans-18"/>
       <use xlink:href="#DejaVuSans-13" transform="translate(63.625 0)"/>
      </g>
     </g>
    </g>
    <g id="ytick_2">
     <g id="line2d_8">
      <g>
       <use xlink:href="#m450ead46e3" x="51.562344" y="230.609055" style="stroke: #000000; stroke-width: 0.8"/>
      </g>
     </g>
     <g id="text_9">
      <!-- 100 -->
      <g transform="translate(25.474844 234.407883) scale(0.1 -0.1)">
       <use xlink:href="#DejaVuSans-14"/>
       <use xlink:href="#DejaVuSans-13" transform="translate(63.625 0)"/>
       <use xlink:href="#DejaVuSans-13" transform="translate(127.25 0)"/>
      </g>
     </g>
    </g>
    <g id="ytick_3">
     <g id="line2d_9">
      <g>
       <use xlink:href="#m450ead46e3" x="51.562344" y="168.935132" style="stroke: #000000; stroke-width: 0.8"/>
      </g>
     </g>
     <g id="text_10">
      <!-- 150 -->
      <g transform="translate(25.474844 172.73396) scale(0.1 -0.1)">
       <use xlink:href="#DejaVuSans-14"/>
       <use xlink:href="#DejaVuSans-18" transform="translate(63.625 0)"/>
       <use xlink:href="#DejaVuSans-13" transform="translate(127.25 0)"/>
      </g>
     </g>
    </g>
    <g id="ytick_4">
     <g id="line2d_10">
      <g>
       <use xlink:href="#m450ead46e3" x="51.562344" y="107.261209" style="stroke: #000000; stroke-width: 0.8"/>
      </g>
     </g>
     <g id="text_11">
      <!-- 200 -->
      <g transform="translate(25.474844 111.060037) scale(0.1 -0.1)">
       <use xlink:href="#DejaVuSans-15"/>
       <use xlink:href="#DejaVuSans-13" transform="translate(63.625 0)"/>
       <use xlink:href="#DejaVuSans-13" transform="translate(127.25 0)"/>
      </g>
     </g>
    </g>
    <g id="ytick_5">
     <g id="line2d_11">
      <g>
       <use xlink:href="#m450ead46e3" x="51.562344" y="45.587286" style="stroke: #000000; stroke-width: 0.8"/>
      </g>
     </g>
     <g id="text_12">
      <!-- 250 -->
      <g transform="translate(25.474844 49.386114) scale(0.1 -0.1)">
       <use xlink:href="#DejaVuSans-15"/>
       <use xlink:href="#DejaVuSans-18" transform="translate(63.625 0)"/>
       <use xlink:href="#DejaVuSans-13" transform="translate(127.25 0)"/>
      </g>
     </g>
    </g>
    <g id="text_13">
     <!-- Shifted temperature (°C) -->
     <g transform="translate(19.0725 234.133672) rotate(-90) scale(0.1 -0.1)">
      <defs>
       <path id="DejaVuSans-36" d="M 3425 4513 
L 3425 3897 
Q 3066 4069 2747 4153 
Q 2428 4238 2131 4238 
Q 1616 4238 1336 4038 
Q 1056 3838 1056 3469 
Q 1056 3159 1242 3001 
Q 1428 2844 1947 2747 
L 2328 2669 
Q 3034 2534 3370 2195 
Q 3706 1856 3706 1288 
Q 3706 609 3251 259 
Q 2797 -91 1919 -91 
Q 1588 -91 1214 -16 
Q 841 59 441 206 
L 441 856 
Q 825 641 1194 531 
Q 1563 422 1919 422 
Q 2459 422 2753 634 
Q 3047 847 3047 1241 
Q 3047 1584 2836 1778 
Q 2625 1972 2144 2069 
L 1759 2144 
Q 1053 2284 737 2584 
Q 422 2884 422 3419 
Q 422 4038 858 4394 
Q 1294 4750 2059 4750 
Q 2388 4750 2728 4690 
Q 3069 4631 3425 4513 
z
" transform="scale(0.015625)"/>
       <path id="DejaVuSans-4b" d="M 3513 2113 
L 3513 0 
L 2938 0 
L 2938 2094 
Q 2938 2591 2744 2837 
Q 2550 3084 2163 3084 
Q 1697 3084 1428 2787 
Q 1159 2491 1159 1978 
L 1159 0 
L 581 0 
L 581 4863 
L 1159 4863 
L 1159 2956 
Q 1366 3272 1645 3428 
Q 1925 3584 2291 3584 
Q 2894 3584 3203 3211 
Q 3513 2838 3513 2113 
z
" transform="scale(0.015625)"/>
       <path id="DejaVuSans-4c" d="M 603 3500 
L 1178 3500 
L 1178 0 
L 603 0 
L 603 3500 
z
M 603 4863 
L 1178 4863 
L 1178 4134 
L 603 4134 
L 603 4863 
z
" transform="scale(0.015625)"/>
       <path id="DejaVuSans-49" d="M 2375 4863 
L 2375 4384 
L 1825 4384 
Q 1516 4384 1395 4259 
Q 1275 4134 1275 3809 
L 1275 3500 
L 2222 3500 
L 2222 3053 
L 1275 3053 
L 1275 0 
L 697 0 
L 697 3053 
L 147 3053 
L 147 3500 
L 697 3500 
L 697 3744 
Q 697 4328 969 4595 
Q 1241 4863 1831 4863 
L 2375 4863 
z
" transform="scale(0.015625)"/>
       <path id="DejaVuSans-47" d="M 2906 2969 
L 2906 4863 
L 3481 4863 
L 3481 0 
L 2906 0 
L 2906 525 
Q 2725 213 2448 61 
Q 2172 -91 1784 -91 
Q 1150 -91 751 415 
Q 353 922 353 1747 
Q 353 2572 751 3078 
Q 1150 3584 1784 3584 
Q 2172 3584 2448 3432 
Q 2725 3281 2906 2969 
z
M 947 1747 
Q 947 1113 1208 752 
Q 1469 391 1925 391 
Q 2381 391 2643 752 
Q 2906 1113 2906 1747 
Q 2906 2381 2643 2742 
Q 2381 3103 1925 3103 
Q 1469 3103 1208 2742 
Q 947 2381 947 1747 
z
" transform="scale(0.015625)"/>
       <path id="DejaVuSans-50" d="M 3328 2828 
Q 3544 3216 3844 3400 
Q 4144 3584 4550 3584 
Q 5097 3584 5394 3201 
Q 5691 2819 5691 2113 
L 5691 0 
L 5113 0 
L 5113 2094 
Q 5113 2597 4934 2840 
Q 4756 3084 4391 3084 
Q 3944 3084 3684 2787 
Q 3425 2491 3425 1978 
L 3425 0 
L 2847 0 
L 2847 2094 
Q 2847 2600 2669 2842 
Q 2491 3084 2119 3084 
Q 1678 3084 1418 2786 
Q 1159 2488 1159 1978 
L 1159 0 
L 581 0 
L 581 3500 
L 1159 3500 
L 1159 2956 
Q 1356 3278 1631 3431 
Q 1906 3584 2284 3584 
Q 2666 3584 2933 3390 
Q 3200 3197 3328 2828 
z
" transform="scale(0.015625)"/>
       <path id="DejaVuSans-53" d="M 1159 525 
L 1159 -1331 
L 581 -1331 
L 581 3500 
L 1159 3500 
L 1159 2969 
Q 1341 3281 1617 3432 
Q 1894 3584 2278 3584 
Q 2916 3584 3314 3078 
Q 3713 2572 3713 1747 
Q 3713 922 3314 415 
Q 2916 -91 2278 -91 
Q 1894 -91 1617 61 
Q 1341 213 1159 525 
z
M 3116 1747 
Q 3116 2381 2855 2742 
Q 2594 3103 2138 3103 
Q 1681 3103 1420 2742 
Q 1159 2381 1159 1747 
Q 1159 1113 1420 752 
Q 1681 391 2138 391 
Q 2594 391 2855 752 
Q 3116 1113 3116 1747 
z
" transform="scale(0.015625)"/>
       <path id="DejaVuSans-55" d="M 2631 2963 
Q 2534 3019 2420 3045 
Q 2306 3072 2169 3072 
Q 1681 3072 1420 2755 
Q 1159 2438 1159 1844 
L 1159 0 
L 581 0 
L 581 3500 
L 1159 3500 
L 1159 2956 
Q 1341 3275 1631 3429 
Q 1922 3584 2338 3584 
Q 2397 3584 2469 3576 
Q 2541 3569 2628 3553 
L 2631 2963 
z
" transform="scale(0.015625)"/>
       <path id="DejaVuSans-58" d="M 544 1381 
L 544 3500 
L 1119 3500 
L 1119 1403 
Q 1119 906 1312 657 
Q 1506 409 1894 409 
Q 2359 409 2629 706 
Q 2900 1003 2900 1516 
L 2900 3500 
L 3475 3500 
L 3475 0 
L 2900 0 
L 2900 538 
Q 2691 219 2414 64 
Q 2138 -91 1772 -91 
Q 1169 -91 856 284 
Q 544 659 544 1381 
z
M 1991 3584 
L 1991 3584 
z
" transform="scale(0.015625)"/>
       <path id="DejaVuSans-72" d="M 1600 4347 
Q 1350 4347 1178 4173 
Q 1006 4000 1006 3750 
Q 1006 3503 1178 3333 
Q 1350 3163 1600 3163 
Q 1850 3163 2022 3333 
Q 2194 3503 2194 3750 
Q 2194 3997 2020 4172 
Q 1847 4347 1600 4347 
z
M 1600 4750 
Q 1800 4750 1984 4673 
Q 2169 4597 2303 4453 
Q 2447 4313 2519 4134 
Q 2591 3956 2591 3750 
Q 2591 3338 2302 3052 
Q 2013 2766 1594 2766 
Q 1172 2766 890 3047 
Q 609 3328 609 3750 
Q 609 4169 896 4459 
Q 1184 4750 1600 4750 
z
" transform="scale(0.015625)"/>
       <path id="DejaVuSans-26" d="M 4122 4306 
L 4122 3641 
Q 3803 3938 3442 4084 
Q 3081 4231 2675 4231 
Q 1875 4231 1450 3742 
Q 1025 3253 1025 2328 
Q 1025 1406 1450 917 
Q 1875 428 2675 428 
Q 3081 428 3442 575 
Q 3803 722 4122 1019 
L 4122 359 
Q 3791 134 3420 21 
Q 3050 -91 2638 -91 
Q 1578 -91 968 557 
Q 359 1206 359 2328 
Q 359 3453 968 4101 
Q 1578 4750 2638 4750 
Q 3056 4750 3426 4639 
Q 3797 4528 4122 4306 
z
" transform="scale(0.015625)"/>
      </defs>
      <use xlink:href="#DejaVuSans-36"/>
      <use xlink:href="#DejaVuSans-4b" transform="translate(63.484375 0)"/>
      <use xlink:href="#DejaVuSans-4c" transform="translate(126.859375 0)"/>
      <use xlink:href="#DejaVuSans-49" transform="translate(154.640625 0)"/>
      <use xlink:href="#DejaVuSans-57" transform="translate(188.09375 0)"/>
      <use xlink:href="#DejaVuSans-48" transform="translate(227.296875 0)"/>
      <use xlink:href="#DejaVuSans-47" transform="translate(288.828125 0)"/>
      <use xlink:href="#DejaVuSans-3" transform="translate(352.3125 0)"/>
      <use xlink:href="#DejaVuSans-57" transform="translate(384.09375 0)"/>
      <use xlink:href="#DejaVuSans-48" transform="translate(423.296875 0)"/>
      <use xlink:href="#DejaVuSans-50" transform="translate(484.828125 0)"/>
      <use xlink:href="#DejaVuSans-53" transform="translate(582.234375 0)"/>
      <use xlink:href="#DejaVuSans-48" transform="translate(645.71875 0)"/>
      <use xlink:href="#DejaVuSans-55" transform="translate(707.25 0)"/>
      <use xlink:href="#DejaVuSans-44" transform="translate(748.359375 0)"/>
      <use xlink:href="#DejaVuSans-57" transform="translate(809.640625 0)"/>
      <use xlink:href="#DejaVuSans-58" transform="translate(848.84375 0)"/>
      <use xlink:href="#DejaVuSans-55" transform="translate(912.21875 0)"/>
      <use xlink:href="#DejaVuSans-48" transform="translate(951.125 0)"/>
      <use xlink:href="#DejaVuSans-3" transform="translate(1012.65625 0)"/>
      <use xlink:href="#DejaVuSans-b" transform="translate(1044.4375 0)"/>
      <use xlink:href="#DejaVuSans-72" transform="translate(1083.453125 0)"/>
      <use xlink:href="#DejaVuSans-26" transform="translate(1133.453125 0)"/>
      <use xlink:href="#DejaVuSans-c" transform="translate(1203.28125 0)"/>
     </g>
    </g>
   </g>
   <g id="line2d_12">
    <path d="M 74.90951 304.617763 
L 80.481626 298.45037 
L 92.740281 292.282978 
L 104.998937 286.115586 
L 264.361455 205.939486 
L 364.659544 113.428601 
" clip-path="url(#pe4cd83e2f7)" style="fill: none; stroke: #1f77b4; stroke-width: 1.5; stroke-linecap: square"/>
    <defs>
     <path id="mf65c604ab6" d="M 0 3 
C 0.795609 3 1.55874 2.683901 2.12132 2.12132 
C 2.683901 1.55874 3 0.795609 3 0 
C 3 -0.795609 2.683901 -1.55874 2.12132 -2.12132 
C 1.55874 -2.683901 0.795609 -3 0 -3 
C -0.795609 -3 -1.55874 -2.683901 -2.12132 -2.12132 
C -2.683901 -1.55874 -3 -0.795609 -3 0 
C -3 0.795609 -2.683901 1.55874 -2.12132 2.12132 
C -1.55874 2.683901 -0.795609 3 0 3 
z
" style="stroke: #1f77b4"/>
    </defs>
    <g clip-path="url(#pe4cd83e2f7)">
     <use xlink:href="#mf65c604ab6" x="74.90951" y="304.617763" style="fill: #1f77b4; stroke: #1f77b4"/>
     <use xlink:href="#mf65c604ab6" x="80.481626" y="298.45037" style="fill: #1f77b4; stroke: #1f77b4"/>
     <use xlink:href="#mf65c604ab6" x="92.740281" y="292.282978" style="fill: #1f77b4; stroke: #1f77b4"/>
     <use xlink:href="#mf65c604ab6" x="104.998937" y="286.115586" style="fill: #1f77b4; stroke: #1f77b4"/>
     <use xlink:href="#mf65c604ab6" x="264.361455" y="205.939486" style="fill: #1f77b4; stroke: #1f77b4"/>
     <use xlink:href="#mf65c604ab6" x="364.659544" y="113.428601" style="fill: #1f77b4; stroke: #1f77b4"/>
    </g>
   </g>
   <g id="line2d_13">
    <path d="M 96.083551 292.282978 
L 104.998937 286.115586 
L 278.848957 205.939486 
L 479.445134 113.428601 
L 492.818213 107.261209 
L 541.852834 39.419893 
" clip-path="url(#pe4cd83e2f7)" style="fill: none; stroke: #ff7f0e; stroke-width: 1.5; stroke-linecap: square"/>
    <defs>
     <path id="m7c3ae110e3" d="M 0 3 
C 0.795609 3 1.55874 2.683901 2.12132 2.12132 
C 2.683901 1.55874 3 0.795609 3 0 
C 3 -0.795609 2.683901 -1.55874 2.12132 -2.12132 
C 1.55874 -2.683901 0.795609 -3 0 -3 
C -0.795609 -3 -1.55874 -2.683901 -2.12132 -2.12132 
C -2.683901 -1.55874 -3 -0.795609 -3 0 
C -3 0.795609 -2.683901 1.55874 -2.12132 2.12132 
C -1.55874 2.683901 -0.795609 3 0 3 
z
" style="stroke: #ff7f0e"/>
    </defs>
    <g clip-path="url(#pe4cd83e2f7)">
     <use xlink:href="#m7c3ae110e3" x="96.083551" y="292.282978" style="fill: #ff7f0e; stroke: #ff7f0e"/>
     <use xlink:href="#m7c3ae110e3" x="104.998937" y="286.115586" style="fill: #ff7f0e; stroke: #ff7f0e"/>
     <use xlink:href="#m7c3ae110e3" x="278.848957" y="205.939486" style="fill: #ff7f0e; stroke: #ff7f0e"/>
     <use xlink:href="#m7c3ae110e3" x="479.445134" y="113.428601" style="fill: #ff7f0e; stroke: #ff7f0e"/>
     <use xlink:href="#m7c3ae110e3" x="492.818213" y="107.261209" style="fill: #ff7f0e; stroke: #ff7f0e"/>
     <use xlink:href="#m7c3ae110e3" x="541.852834" y="39.419893" style="fill: #ff7f0e; stroke: #ff7f0e"/>
    </g>
   </g>
   <g id="line2d_14">
    <path d="M 74.90951 317.877656 
L 74.90951 26.16 
" clip-path="url(#pe4cd83e2f7)" style="fill: none; stroke-dasharray: 5.55,2.4; stroke-dashoffset: 0; stroke: #808080; stroke-width: 1.5"/>
   </g>
   <g id="line2d_15">
    <path d="M 51.562344 304.617763 
L 565.2 304.617763 
" clip-path="url(#pe4cd83e2f7)" style="fill: none; stroke-dasharray: 5.55,2.4; stroke-dashoffset: 0; stroke: #808080; stroke-width: 1.5"/>
   </g>
   <g id="line2d_16">
    <path d="M 80.481626 317.877656 
L 80.481626 26.16 
" clip-path="url(#pe4cd83e2f7)" style="fill: none; stroke-dasharray: 5.55,2.4; stroke-dashoffset: 0; stroke: #808080; stroke-width: 1.5"/>
   </g>
   <g id="line2d_17">
    <path d="M 51.562344 298.45037 
L 565.2 298.45037 
" clip-path="url(#pe4cd83e2f7)" style="fill: none; stroke-dasharray: 5.55,2.4; stroke-dashoffset: 0; stroke: #808080; stroke-width: 1.5"/>
   </g>
   <g id="line2d_18">
    <path d="M 92.740281 317.877656 
L 92.740281 26.16 
" clip-path="url(#pe4cd83e2f7)" style="fill: none; stroke-dasharray: 5.55,2.4; stroke-dashoffset: 0; stroke: #808080; stroke-width: 1.5"/>
   </g>
   <g id="line2d_19">
    <path d="M 51.562344 292.282978 
L 565.2 292.282978 
" clip-path="url(#pe4cd83e2f7)" style="fill: none; stroke-dasharray: 5.55,2.4; stroke-dashoffset: 0; stroke: #808080; stroke-width: 1.5"/>
   </g>
   <g id="line2d_20">
    <path d="M 104.998937 317.877656 
L 104.998937 26.16 
" clip-path="url(#pe4cd83e2f7)" style="fill: none; stroke-dasharray: 5.55,2.4; stroke-dashoffset: 0; stroke: #808080; stroke-width: 1.5"/>
   </g>
   <g id="line2d_21">
    <path d="M 51.562344 286.115586 
L 565.2 286.115586 
" clip-path="url(#pe4cd83e2f7)" style="fill: none; stroke-dasharray: 5.55,2.4; stroke-dashoffset: 0; stroke: #808080; stroke-width: 1.5"/>
   </g>
   <g id="line2d_22">
    <path d="M 264.361455 317.877656 
L 264.361455 26.16 
" clip-path="url(#pe4cd83e2f7)" style="fill: none; stroke-dasharray: 5.55,2.4; stroke-dashoffset: 0; stroke: #808080; stroke-width: 1.5"/>
   </g>
   <g id="line2d_23">
    <path d="M 51.562344 205.939486 
L 565.2 205.939486 
" clip-path="url(#pe4cd83e2f7)" style="fill: none; stroke-dasharray: 5.55,2.4; stroke-dashoffset: 0; stroke: #808080; stroke-width: 1.5"/>
   </g>
   <g id="line2d_24">
    <path d="M 364.659544 317.877656 
L 364.659544 26.16 
" clip-path="url(#pe4cd83e2f7)" style="fill: none; stroke-dasharray: 5.55,2.4; stroke-dashoffset: 0; stroke: #808080; stroke-width: 1.5"/>
   </g>
   <g id="line2d_25">
    <path d="M 51.562344 113.428601 
L 565.2 113.428601 
" clip-path="url(#pe4cd83e2f7)" style="fill: none; stroke-dasharray: 5.55,2.4; stroke-dashoffset: 0; stroke: #808080; stroke-width: 1.5"/>
   </g>
   <g id="line2d_26">
    <path d="M 96.083551 317.877656 
L 96.083551 26.16 
" clip-path="url(#pe4cd83e2f7)" style="fill: none; stroke-dasharray: 5.55,2.4; stroke-dashoffset: 0; stroke: #808080; stroke-width: 1.5"/>
   </g>
   <g id="line2d_27">
    <path d="M 51.562344 292.282978 
L 565.2 292.282978 
" clip-path="url(#pe4cd83e2f7)" style="fill: none; stroke-dasharray: 5.55,2.4; stroke-dashoffset: 0; stroke: #808080; stroke-width: 1.5"/>
   </g>
   <g id="line2d_28">
    <path d="M 104.998937 317.877656 
L 104.998937 26.16 
" clip-path="url(#pe4cd83e2f7)" style="fill: none; stroke-dasharray: 5.55,2.4; stroke-dashoffset: 0; stroke: #808080; stroke-width: 1.5"/>
   </g>
   <g id="line2d_29">
    <path d="M 51.562344 286.115586 
L 565.2 286.115586 
" clip-path="url(#pe4cd83e2f7)" style="fill: none; stroke-dasharray: 5.55,2.4; stroke-dashoffset: 0; stroke: #808080; stroke-width: 1.5"/>
   </g>
   <g id="line2d_30">
    <path d="M 278.848957 317.877656 
L 278.848957 26.16 
" clip-path="url(#pe4cd83e2f7)" style="fill: none; stroke-dasharray: 5.55,2.4; stroke-dashoffset: 0; stroke: #808080; stroke-width: 1.5"/>
   </g>
   <g id="line2d_31">
    <path d="M 51.562344 205.939486 
L 565.2 205.939486 
" clip-path="url(#pe4cd83e2f7)" style="fill: none; stroke-dasharray: 5.55,2.4; stroke-dashoffset: 0; stroke: #808080; stroke-width: 1.5"/>
   </g>
   <g id="line2d_32">
    <path d="M 479.445134 317.877656 
L 479.445134 26.16 
" clip-path="url(#pe4cd83e2f7)" style="fill: none; stroke-dasharray: 5.55,2.4; stroke-dashoffset: 0; stroke: #808080; stroke-width: 1.5"/>
   </g>
   <g id="line2d_33">
    <path d="M 51.562344 113.428601 
L 565.2 113.428601 
" clip-path="url(#pe4cd83e2f7)" style="fill: none; stroke-dasharray: 5.55,2.4; stroke-dashoffset: 0; stroke: #808080; stroke-width: 1.5"/>
   </g>
   <g id="line2d_34">
    <path d="M 492.818213 317.877656 
L 492.818213 26.16 
" clip-path="url(#pe4cd83e2f7)" style="fill: none; stroke-dasharray: 5.55,2.4; stroke-dashoffset: 0; stroke: #808080; stroke-width: 1.5"/>
   </g>
   <g id="line2d_35">
    <path d="M 51.562344 107.261209 
L 565.2 107.261209 
" clip-path="url(#pe4cd83e2f7)" style="fill: none; stroke-dasharray: 5.55,2.4; stroke-dashoffset: 0; stroke: #808080; stroke-width: 1.5"/>
   </g>
   <g id="line2d_36">
    <path d="M 541.852834 317.877656 
L 541.852834 26.16 
" clip-path="url(#pe4cd83e2f7)" style="fill: none; stroke-dasharray: 5.55,2.4; stroke-dashoffset: 0; stroke: #808080; stroke-width: 1.5"/>
   </g>
   <g id="line2d_37">
    <path d="M 51.562344 39.419893 
L 565.2 39.419893 
" clip-path="url(#pe4cd83e2f7)" style="fill: none; stroke-dasharray: 5.55,2.4; stroke-dashoffset: 0; stroke: #808080; stroke-width: 1.5"/>
   </g>
   <g id="patch_3">
    <path d="M 51.562344 317.877656 
L 51.562344 26.16 
" style="fill: none; stroke: #000000; stroke-width: 0.8; stroke-linejoin: miter; stroke-linecap: square"/>
   </g>
   <g id="patch_4">
    <path d="M 565.2 317.877656 
L 565.2 26.16 
" style="fill: none; stroke: #000000; stroke-width: 0.8; stroke-linejoin: miter; stroke-linecap: square"/>
   </g>
   <g id="patch_5">
    <path d="M 51.562344 317.877656 
L 565.2 317.877656 
" style="fill: none; stroke: #000000; stroke-width: 0.8; stroke-linejoin: miter; stroke-linecap: square"/>
   </g>
   <g id="patch_6">
    <path d="M 51.562344 26.16 
L 565.2 26.16 
" style="fill: none; stroke: #000000; stroke-width: 0.8; stroke-linejoin: miter; stroke-linecap: square"/>
   </g>
   <g id="text_14">
    <!-- Shifted hot and cold composite curves -->
    <g transform="translate(193.078984 20.16) scale(0.12 -0.12)">
     <defs>
      <path id="DejaVuSans-51" d="M 3513 2113 
L 3513 0 
L 2938 0 
L 2938 2094 
Q 2938 2591 2744 2837 
Q 2550 3084 2163 3084 
Q 1697 3084 1428 2787 
Q 1159 2491 1159 1978 
L 1159 0 
L 581 0 
L 581 3500 
L 1159 3500 
L 1159 2956 
Q 1366 3272 1645 3428 
Q 1925 3584 2291 3584 
Q 2894 3584 3203 3211 
Q 3513 2838 3513 2113 
z
" transform="scale(0.015625)"/>
      <path id="DejaVuSans-46" d="M 3122 3366 
L 3122 2828 
Q 2878 2963 2633 3030 
Q 2388 3097 2138 3097 
Q 1578 3097 1268 2742 
Q 959 2388 959 1747 
Q 959 1106 1268 751 
Q 1578 397 2138 397 
Q 2388 397 2633 464 
Q 2878 531 3122 666 
L 3122 134 
Q 2881 22 2623 -34 
Q 2366 -91 2075 -91 
Q 1284 -91 818 406 
Q 353 903 353 1747 
Q 353 2603 823 3093 
Q 1294 3584 2113 3584 
Q 2378 3584 2631 3529 
Q 2884 3475 3122 3366 
z
" transform="scale(0.015625)"/>
      <path id="DejaVuSans-4f" d="M 603 4863 
L 1178 4863 
L 1178 0 
L 603 0 
L 603 4863 
z
" transform="scale(0.015625)"/>
      <path id="DejaVuSans-56" d="M 2834 3397 
L 2834 2853 
Q 2591 2978 2328 3040 
Q 2066 3103 1784 3103 
Q 1356 3103 1142 2972 
Q 928 2841 928 2578 
Q 928 2378 1081 2264 
Q 1234 2150 1697 2047 
L 1894 2003 
Q 2506 1872 2764 1633 
Q 3022 1394 3022 966 
Q 3022 478 2636 193 
Q 2250 -91 1575 -91 
Q 1294 -91 989 -36 
Q 684 19 347 128 
L 347 722 
Q 666 556 975 473 
Q 1284 391 1588 391 
Q 1994 391 2212 530 
Q 2431 669 2431 922 
Q 2431 1156 2273 1281 
Q 2116 1406 1581 1522 
L 1381 1569 
Q 847 1681 609 1914 
Q 372 2147 372 2553 
Q 372 3047 722 3315 
Q 1072 3584 1716 3584 
Q 2034 3584 2315 3537 
Q 2597 3491 2834 3397 
z
" transform="scale(0.015625)"/>
      <path id="DejaVuSans-59" d="M 191 3500 
L 800 3500 
L 1894 563 
L 2988 3500 
L 3597 3500 
L 2284 0 
L 1503 0 
L 191 3500 
z
" transform="scale(0.015625)"/>
     </defs>
     <use xlink:href="#DejaVuSans-36"/>
     <use xlink:href="#DejaVuSans-4b" transform="translate(63.484375 0)"/>
     <use xlink:href="#DejaVuSans-4c" transform="translate(126.859375 0)"/>
     <use xlink:href="#DejaVuSans-49" transform="translate(154.640625 0)"/>
     <use xlink:href="#DejaVuSans-57" transform="translate(188.09375 0)"/>
     <use xlink:href="#DejaVuSans-48" transform="translate(227.296875 0)"/>
     <use xlink:href="#DejaVuSans-47" transform="translate(288.828125 0)"/>
     <use xlink:href="#DejaVuSans-3" transform="translate(352.3125 0)"/>
     <use xlink:href="#DejaVuSans-4b" transform="translate(384.09375 0)"/>
     <use xlink:href="#DejaVuSans-52" transform="translate(447.46875 0)"/>
     <use xlink:href="#DejaVuSans-57" transform="translate(508.65625 0)"/>
     <use xlink:href="#DejaVuSans-3" transform="translate(547.859375 0)"/>
     <use xlink:href="#DejaVuSans-44" transform="translate(579.640625 0)"/>
     <use xlink:href="#DejaVuSans-51" transform="translate(640.921875 0)"/>
     <use xlink:href="#DejaVuSans-47" transform="translate(704.296875 0)"/>
     <use xlink:href="#DejaVuSans-3" transform="translate(767.78125 0)"/>
     <use xlink:href="#DejaVuSans-46" transform="translate(799.5625 0)"/>
     <use xlink:href="#DejaVuSans-52" transform="translate(854.546875 0)"/>
     <use xlink:href="#DejaVuSans-4f" transform="translate(915.734375 0)"/>
     <use xlink:href="#DejaVuSans-47" transform="translate(943.515625 0)"/>
     <use xlink:href="#DejaVuSans-3" transform="translate(1007 0)"/>
     <use xlink:href="#DejaVuSans-46" transform="translate(1038.78125 0)"/>
     <use xlink:href="#DejaVuSans-52" transform="translate(1093.765625 0)"/>
     <use xlink:href="#DejaVuSans-50" transform="translate(1154.953125 0)"/>
     <use xlink:href="#DejaVuSans-53" transform="translate(1252.359375 0)"/>
     <use xlink:href="#DejaVuSans-52" transform="translate(1315.84375 0)"/>
     <use xlink:href="#DejaVuSans-56" transform="translate(1377.03125 0)"/>
     <use xlink:href="#DejaVuSans-4c" transform="translate(1429.125 0)"/>
     <use xlink:href="#DejaVuSans-57" transform="translate(1456.90625 0)"/>
     <use xlink:href="#DejaVuSans-48" transform="translate(1496.109375 0)"/>
     <use xlink:href="#DejaVuSans-3" transform="translate(1557.640625 0)"/>
     <use xlink:href="#DejaVuSans-46" transform="translate(1589.421875 0)"/>
     <use xlink:href="#DejaVuSans-58" transform="translate(1644.40625 0)"/>
     <use xlink:href="#DejaVuSans-55" transform="translate(1707.78125 0)"/>
     <use xlink:href="#DejaVuSans-59" transform="translate(1748.890625 0)"/>
     <use xlink:href="#DejaVuSans-48" transform="translate(1808.078125 0)"/>
     <use xlink:href="#DejaVuSans-56" transform="translate(1869.609375 0)"/>
    </g>
   </g>
   <g id="legend_1">
    <g id="patch_7">
     <path d="M 211.853047 64.161563 
L 404.909297 64.161563 
Q 406.909297 64.161563 406.909297 62.161563 
L 406.909297 33.16 
Q 406.909297 31.16 404.909297 31.16 
L 211.853047 31.16 
Q 209.853047 31.16 209.853047 33.16 
L 209.853047 62.161563 
Q 209.853047 64.161563 211.853047 64.161563 
z
" style="fill: #ffffff; opacity: 0.8; stroke: #cccccc; stroke-linejoin: miter"/>
    </g>
    <g id="line2d_38">
     <path d="M 213.853047 39.258438 
L 223.853047 39.258438 
L 233.853047 39.258438 
" style="fill: none; stroke: #1f77b4; stroke-width: 1.5; stroke-linecap: square"/>
     <g>
      <use xlink:href="#mf65c604ab6" x="223.853047" y="39.258438" style="fill: #1f77b4; stroke: #1f77b4"/>
     </g>
    </g>
    <g id="text_15">
     <!-- courbe composite du flux chaud -->
     <g transform="translate(241.853047 42.758438) scale(0.1 -0.1)">
      <defs>
       <path id="DejaVuSans-45" d="M 3116 1747 
Q 3116 2381 2855 2742 
Q 2594 3103 2138 3103 
Q 1681 3103 1420 2742 
Q 1159 2381 1159 1747 
Q 1159 1113 1420 752 
Q 1681 391 2138 391 
Q 2594 391 2855 752 
Q 3116 1113 3116 1747 
z
M 1159 2969 
Q 1341 3281 1617 3432 
Q 1894 3584 2278 3584 
Q 2916 3584 3314 3078 
Q 3713 2572 3713 1747 
Q 3713 922 3314 415 
Q 2916 -91 2278 -91 
Q 1894 -91 1617 61 
Q 1341 213 1159 525 
L 1159 0 
L 581 0 
L 581 4863 
L 1159 4863 
L 1159 2969 
z
" transform="scale(0.015625)"/>
       <path id="DejaVuSans-5b" d="M 3513 3500 
L 2247 1797 
L 3578 0 
L 2900 0 
L 1881 1375 
L 863 0 
L 184 0 
L 1544 1831 
L 300 3500 
L 978 3500 
L 1906 2253 
L 2834 3500 
L 3513 3500 
z
" transform="scale(0.015625)"/>
      </defs>
      <use xlink:href="#DejaVuSans-46"/>
      <use xlink:href="#DejaVuSans-52" transform="translate(54.984375 0)"/>
      <use xlink:href="#DejaVuSans-58" transform="translate(116.171875 0)"/>
      <use xlink:href="#DejaVuSans-55" transform="translate(179.546875 0)"/>
      <use xlink:href="#DejaVuSans-45" transform="translate(220.65625 0)"/>
      <use xlink:href="#DejaVuSans-48" transform="translate(284.140625 0)"/>
      <use xlink:href="#DejaVuSans-3" transform="translate(345.671875 0)"/>
      <use xlink:href="#DejaVuSans-46" transform="translate(377.453125 0)"/>
      <use xlink:href="#DejaVuSans-52" transform="translate(432.4375 0)"/>
      <use xlink:href="#DejaVuSans-50" transform="translate(493.625 0)"/>
      <use xlink:href="#DejaVuSans-53" transform="translate(591.03125 0)"/>
      <use xlink:href="#DejaVuSans-52" transform="translate(654.515625 0)"/>
      <use xlink:href="#DejaVuSans-56" transform="translate(715.703125 0)"/>
      <use xlink:href="#DejaVuSans-4c" transform="translate(767.796875 0)"/>
      <use xlink:href="#DejaVuSans-57" transform="translate(795.578125 0)"/>
      <use xlink:href="#DejaVuSans-48" transform="translate(834.78125 0)"/>
      <use xlink:href="#DejaVuSans-3" transform="translate(896.3125 0)"/>
      <use xlink:href="#DejaVuSans-47" transform="translate(928.09375 0)"/>
      <use xlink:href="#DejaVuSans-58" transform="translate(991.578125 0)"/>
      <use xlink:href="#DejaVuSans-3" transform="translate(1054.953125 0)"/>
      <use xlink:href="#DejaVuSans-13b0" transform="translate(1086.734375 0)"/>
      <use xlink:href="#DejaVuSans-58" transform="translate(1149.71875 0)"/>
      <use xlink:href="#DejaVuSans-5b" transform="translate(1213.09375 0)"/>
      <use xlink:href="#DejaVuSans-3" transform="translate(1272.28125 0)"/>
      <use xlink:href="#DejaVuSans-46" transform="translate(1304.0625 0)"/>
      <use xlink:href="#DejaVuSans-4b" transform="translate(1359.046875 0)"/>
      <use xlink:href="#DejaVuSans-44" transform="translate(1422.421875 0)"/>
      <use xlink:href="#DejaVuSans-58" transform="translate(1483.703125 0)"/>
      <use xlink:href="#DejaVuSans-47" transform="translate(1547.078125 0)"/>
     </g>
    </g>
    <g id="line2d_39">
     <path d="M 213.853047 54.259219 
L 223.853047 54.259219 
L 233.853047 54.259219 
" style="fill: none; stroke: #ff7f0e; stroke-width: 1.5; stroke-linecap: square"/>
     <g>
      <use xlink:href="#m7c3ae110e3" x="223.853047" y="54.259219" style="fill: #ff7f0e; stroke: #ff7f0e"/>
     </g>
    </g>
    <g id="text_16">
     <!-- courbe composite du flux froid -->
     <g transform="translate(241.853047 57.759219) scale(0.1 -0.1)">
      <use xlink:href="#DejaVuSans-46"/>
      <use xlink:href="#DejaVuSans-52" transform="translate(54.984375 0)"/>
      <use xlink:href="#DejaVuSans-58" transform="translate(116.171875 0)"/>
      <use xlink:href="#DejaVuSans-55" transform="translate(179.546875 0)"/>
      <use xlink:href="#DejaVuSans-45" transform="translate(220.65625 0)"/>
      <use xlink:href="#DejaVuSans-48" transform="translate(284.140625 0)"/>
      <use xlink:href="#DejaVuSans-3" transform="translate(345.671875 0)"/>
      <use xlink:href="#DejaVuSans-46" transform="translate(377.453125 0)"/>
      <use xlink:href="#DejaVuSans-52" transform="translate(432.4375 0)"/>
      <use xlink:href="#DejaVuSans-50" transform="translate(493.625 0)"/>
      <use xlink:href="#DejaVuSans-53" transform="translate(591.03125 0)"/>
      <use xlink:href="#DejaVuSans-52" transform="translate(654.515625 0)"/>
      <use xlink:href="#DejaVuSans-56" transform="translate(715.703125 0)"/>
      <use xlink:href="#DejaVuSans-4c" transform="translate(767.796875 0)"/>
      <use xlink:href="#DejaVuSans-57" transform="translate(795.578125 0)"/>
      <use xlink:href="#DejaVuSans-48" transform="translate(834.78125 0)"/>
      <use xlink:href="#DejaVuSans-3" transform="translate(896.3125 0)"/>
      <use xlink:href="#DejaVuSans-47" transform="translate(928.09375 0)"/>
      <use xlink:href="#DejaVuSans-58" transform="translate(991.578125 0)"/>
      <use xlink:href="#DejaVuSans-3" transform="translate(1054.953125 0)"/>
      <use xlink:href="#DejaVuSans-13b0" transform="translate(1086.734375 0)"/>
      <use xlink:href="#DejaVuSans-58" transform="translate(1149.71875 0)"/>
      <use xlink:href="#DejaVuSans-5b" transform="translate(1213.09375 0)"/>
      <use xlink:href="#DejaVuSans-3" transform="translate(1272.28125 0)"/>
      <use xlink:href="#DejaVuSans-49" transform="translate(1304.0625 0)"/>
      <use xlink:href="#DejaVuSans-55" transform="translate(1339.265625 0)"/>
      <use xlink:href="#DejaVuSans-52" transform="translate(1378.171875 0)"/>
      <use xlink:href="#DejaVuSans-4c" transform="translate(1439.359375 0)"/>
      <use xlink:href="#DejaVuSans-47" transform="translate(1467.140625 0)"/>
     </g>
    </g>
   </g>
  </g>
 </g>
 <defs>
  <clipPath id="pe4cd83e2f7">
   <rect x="51.562344" y="26.16" width="513.637656" height="291.717656"/>
  </clipPath>
 </defs>
</svg>
