<svg xmlns="http://www.w3.org/2000/svg" width="760" height="360" viewBox="0 0 760 360">
<rect width="100%" height="100%" fill="#fff"/>
<text x="30" y="30" font-family="Arial" font-size="18" font-weight="700">Aperçu du plot pv.plot() - production journalière type</text>
<line x1="72" y1="288" x2="692" y2="288" stroke="#111827"/>
<line x1="72" y1="58" x2="72" y2="288" stroke="#111827"/>
<text x="382.0" y="338" font-family="Arial" font-size="12" text-anchor="middle">Heure</text>
<text x="18" y="173.0" font-family="Arial" font-size="12" text-anchor="middle" transform="rotate(-90 18,173.0)">kW</text>
<line x1="72" y1="58.0" x2="692" y2="58.0" stroke="#e5e7eb"/>
<line x1="72" y1="104.0" x2="692" y2="104.0" stroke="#e5e7eb"/>
<line x1="72" y1="150.0" x2="692" y2="150.0" stroke="#e5e7eb"/>
<line x1="72" y1="196.0" x2="692" y2="196.0" stroke="#e5e7eb"/>
<line x1="72" y1="242.0" x2="692" y2="242.0" stroke="#e5e7eb"/>
<line x1="72" y1="288.0" x2="692" y2="288.0" stroke="#e5e7eb"/>
<polyline points="72.0,288.0 99.0,288.0 125.9,288.0 152.9,288.0 179.8,288.0 206.8,288.0 233.7,288.0 260.7,228.5 287.7,173.0 314.6,125.4 341.6,88.8 368.5,65.8 395.5,58.0 422.4,65.8 449.4,88.8 476.3,125.4 503.3,173.0 530.3,228.5 557.2,288.0 584.2,288.0 611.1,288.0 638.1,288.0 665.0,288.0 692.0,288.0" fill="none" stroke="#2670a8" stroke-width="2.4"/>
<text x="710" y="78" font-family="Arial" font-size="12" fill="#2670a8">Production AC</text>
</svg>