<?xml version="1.0" encoding="utf-8" standalone="no"?>
<!DOCTYPE svg PUBLIC "-//W3C//DTD SVG 1.1//EN"
  "http://www.w3.org/Graphics/SVG/1.1/DTD/svg11.dtd">
<svg xmlns:xlink="http://www.w3.org/1999/xlink" width="411.608281pt" height="326.630906pt" viewBox="0 0 411.608281 326.630906" xmlns="http://www.w3.org/2000/svg" version="1.1">
 <metadata>
  <rdf:RDF xmlns:dc="http://purl.org/dc/elements/1.1/" xmlns:cc="http://creativecommons.org/ns#" xmlns:rdf="http://www.w3.org/1999/02/22-rdf-syntax-ns#">
   <cc:Work>
    <dc:type rdf:resource="http://purl.org/dc/dcmitype/StillImage"/>
    <dc:date>2026-07-05T00:09:36.376127</dc:date>
    <dc:format>image/svg+xml</dc:format>
    <dc:creator>
     <cc:Agent>
      <dc:title>Matplotlib v3.11.0, https://matplotlib.org/</dc:title>
     </cc:Agent>
    </dc:creator>
   </cc:Work>
  </rdf:RDF>
 </metadata>
 <defs>
  <style type="text/css">*{stroke-linejoin: round; stroke-linecap: butt}</style>
 </defs>
 <g id="figure_1">
  <g id="patch_1">
   <path d="M 0 326.630906 
L 411.608281 326.630906 
L 411.608281 0 
L 0 0 
z
" style="fill: #ffffff"/>
  </g>
  <g id="axes_1">
   <g id="patch_2">
    <path d="M 47.288281 288.430125 
L 404.408281 288.430125 
L 404.408281 22.318125 
L 47.288281 22.318125 
z
" style="fill: #ffffff"/>
   </g>
   <g id="FillBetweenPolyCollection_1">
    <defs>
     <path id="me30bcf5417" d="M 108.461256 -50.296781 
L 108.461256 -98.196403 
L 111.286653 -100.158923 
L 114.11205 -102.121443 
L 116.937447 -104.083963 
L 119.762844 -106.046483 
L 122.588241 -108.009003 
L 125.413638 -109.412864 
L 128.239035 -110.519012 
L 131.064431 -111.62516 
L 133.889828 -112.731307 
L 136.715225 -113.837455 
L 139.540622 -114.943603 
L 142.366019 -116.04975 
L 145.191416 -117.155898 
L 148.016813 -118.262045 
L 150.84221 -119.368193 
L 153.667607 -120.474341 
L 156.493004 -121.580488 
L 159.318401 -122.686636 
L 162.143798 -123.792784 
L 164.969195 -124.898931 
L 167.794592 -126.005079 
L 170.619989 -127.111226 
L 173.445386 -128.217374 
L 176.270783 -129.323522 
L 179.09618 -130.429669 
L 181.921577 -131.535817 
L 184.746974 -132.641964 
L 187.57237 -133.748112 
L 190.397767 -134.85426 
L 193.223164 -135.960407 
L 196.048561 -137.066555 
L 198.873958 -138.172703 
L 201.699355 -139.27885 
L 204.524752 -140.384998 
L 207.350149 -141.491145 
L 210.175546 -142.597293 
L 213.000943 -143.703441 
L 215.82634 -144.809588 
L 218.651737 -145.915736 
L 221.477134 -147.021884 
L 224.302531 -148.128031 
L 227.127928 -149.234179 
L 229.953325 -150.340326 
L 232.778722 -152.796092 
L 235.604119 -155.331013 
L 238.429516 -157.865935 
L 241.254913 -160.400856 
L 244.080309 -162.935778 
L 246.905706 -165.4707 
L 249.731103 -168.005621 
L 252.5565 -170.540543 
L 255.381897 -173.075465 
L 258.207294 -175.610386 
L 261.032691 -178.145308 
L 263.858088 -180.68023 
L 266.683485 -183.215151 
L 269.508882 -185.750073 
L 272.334279 -188.284994 
L 275.159676 -190.819916 
L 277.985073 -193.354838 
L 280.81047 -195.889759 
L 283.635867 -198.424681 
L 286.461264 -200.959603 
L 289.286661 -203.494524 
L 292.112058 -206.029446 
L 294.937455 -208.564367 
L 297.762852 -211.099289 
L 300.588249 -213.634211 
L 303.413645 -216.169132 
L 306.239042 -218.704054 
L 309.064439 -221.238976 
L 311.889836 -223.773897 
L 314.715233 -226.308819 
L 317.54063 -228.84374 
L 320.366027 -231.378662 
L 323.191424 -233.913584 
L 326.016821 -236.448505 
L 328.842218 -238.983427 
L 331.667615 -241.518349 
L 334.493012 -244.05327 
L 337.318409 -246.588192 
L 340.143806 -249.123114 
L 342.969203 -251.658035 
L 345.7946 -254.192957 
L 348.619997 -256.727878 
L 351.445394 -259.2628 
L 354.270791 -261.797722 
L 357.096188 -264.332643 
L 359.921584 -266.867565 
L 362.746981 -269.402487 
L 365.572378 -271.937408 
L 368.397775 -274.47233 
L 371.223172 -277.007251 
L 374.048569 -279.542173 
L 376.873966 -282.077095 
L 379.699363 -284.612016 
L 382.52476 -287.146938 
L 385.350157 -289.68186 
L 388.175554 -292.216781 
L 388.175554 -242.164367 
L 388.175554 -242.164367 
L 385.350157 -238.784472 
L 382.52476 -235.404576 
L 379.699363 -232.024681 
L 376.873966 -228.644785 
L 374.048569 -225.26489 
L 371.223172 -221.884994 
L 368.397775 -218.505099 
L 365.572378 -215.125203 
L 362.746981 -211.745308 
L 359.921584 -208.592086 
L 357.096188 -206.991083 
L 354.270791 -205.390079 
L 351.445394 -203.789076 
L 348.619997 -202.188073 
L 345.7946 -200.58707 
L 342.969203 -198.986067 
L 340.143806 -197.385064 
L 337.318409 -195.784061 
L 334.493012 -194.183057 
L 331.667615 -192.582054 
L 328.842218 -190.981051 
L 326.016821 -189.380048 
L 323.191424 -187.779045 
L 320.366027 -186.178042 
L 317.54063 -184.577039 
L 314.715233 -182.976035 
L 311.889836 -181.375032 
L 309.064439 -179.774029 
L 306.239042 -178.173026 
L 303.413645 -176.572023 
L 300.588249 -174.97102 
L 297.762852 -173.370017 
L 294.937455 -171.769014 
L 292.112058 -170.16801 
L 289.286661 -168.567007 
L 286.461264 -166.966004 
L 283.635867 -165.365001 
L 280.81047 -163.763998 
L 277.985073 -162.162995 
L 275.159676 -160.561992 
L 272.334279 -158.960988 
L 269.508882 -157.359985 
L 266.683485 -155.758982 
L 263.858088 -154.157979 
L 261.032691 -152.556976 
L 258.207294 -150.955973 
L 255.381897 -149.35497 
L 252.5565 -147.753967 
L 249.731103 -146.152963 
L 246.905706 -144.55196 
L 244.080309 -142.950957 
L 241.254913 -141.349954 
L 238.429516 -139.748951 
L 235.604119 -138.147948 
L 232.778722 -136.546945 
L 229.953325 -134.945941 
L 227.127928 -133.344938 
L 224.302531 -131.743935 
L 221.477134 -130.142932 
L 218.651737 -128.541929 
L 215.82634 -126.940926 
L 213.000943 -125.339923 
L 210.175546 -123.73892 
L 207.350149 -122.137916 
L 204.524752 -120.536913 
L 201.699355 -118.93591 
L 198.873958 -117.334907 
L 196.048561 -115.733904 
L 193.223164 -114.132901 
L 190.397767 -112.531898 
L 187.57237 -110.930894 
L 184.746974 -109.329891 
L 181.921577 -107.728888 
L 179.09618 -106.127885 
L 176.270783 -104.526882 
L 173.445386 -102.925879 
L 170.619989 -101.324876 
L 167.794592 -99.723872 
L 164.969195 -98.122869 
L 162.143798 -96.521866 
L 159.318401 -94.920863 
L 156.493004 -93.31986 
L 153.667607 -91.718857 
L 150.84221 -90.117854 
L 148.016813 -88.516851 
L 145.191416 -86.915847 
L 142.366019 -85.314844 
L 139.540622 -83.713841 
L 136.715225 -80.715841 
L 133.889828 -77.673935 
L 131.064431 -74.632029 
L 128.239035 -71.590123 
L 125.413638 -68.548217 
L 122.588241 -65.506311 
L 119.762844 -62.464405 
L 116.937447 -59.422499 
L 114.11205 -56.380593 
L 111.286653 -53.338687 
L 108.461256 -50.296781 
z
" style="stroke: #008000; stroke-opacity: 0.3"/>
    </defs>
    <g clip-path="url(#pf376047087)">
     <use xlink:href="#me30bcf5417" x="0" y="326.630906" style="fill: #008000; fill-opacity: 0.3; stroke: #008000; stroke-opacity: 0.3"/>
    </g>
   </g>
   <g id="matplotlib.axis_1">
    <g id="xtick_1">
     <g id="line2d_1">
      <defs>
       <path id="m00c612eda0" d="M 0 0 
L 0 3.5 
" style="stroke: #000000; stroke-width: 0.8"/>
      </defs>
      <g>
       <use xlink:href="#m00c612eda0" x="63.521009" y="288.430125" style="stroke: #000000; stroke-width: 0.8"/>
      </g>
     </g>
     <g id="text_1">
      <!-- 0 -->
      <g transform="translate(60.339759 303.027781) scale(0.1 -0.1)">
       <defs>
        <path id="DejaVuSans-13" d="M 2034 4250 
Q 1547 4250 1301 3770 
Q 1056 3291 1056 2328 
Q 1056 1369 1301 889 
Q 1547 409 2034 409 
Q 2525 409 2770 889 
Q 3016 1369 3016 2328 
Q 3016 3291 2770 3770 
Q 2525 4250 2034 4250 
z
M 2034 4750 
Q 2819 4750 3233 4129 
Q 3647 3509 3647 2328 
Q 3647 1150 3233 529 
Q 2819 -91 2034 -91 
Q 1250 -91 836 529 
Q 422 1150 422 2328 
Q 422 3509 836 4129 
Q 1250 4750 2034 4750 
z
" transform="scale(0.015625)"/>
       </defs>
       <use xlink:href="#DejaVuSans-13"/>
      </g>
     </g>
    </g>
    <g id="xtick_2">
     <g id="line2d_2">
      <g>
       <use xlink:href="#m00c612eda0" x="141.004194" y="288.430125" style="stroke: #000000; stroke-width: 0.8"/>
      </g>
     </g>
     <g id="text_2">
      <!-- 100 -->
      <g transform="translate(131.460444 303.027781) scale(0.1 -0.1)">
       <defs>
        <path id="DejaVuSans-14" d="M 794 531 
L 1825 531 
L 1825 4091 
L 703 3866 
L 703 4441 
L 1819 4666 
L 2450 4666 
L 2450 531 
L 3481 531 
L 3481 0 
L 794 0 
L 794 531 
z
" transform="scale(0.015625)"/>
       </defs>
       <use xlink:href="#DejaVuSans-14"/>
       <use xlink:href="#DejaVuSans-13" transform="translate(63.625 0)"/>
       <use xlink:href="#DejaVuSans-13" transform="translate(127.25 0)"/>
      </g>
     </g>
    </g>
    <g id="xtick_3">
     <g id="line2d_3">
      <g>
       <use xlink:href="#m00c612eda0" x="218.487379" y="288.430125" style="stroke: #000000; stroke-width: 0.8"/>
      </g>
     </g>
     <g id="text_3">
      <!-- 200 -->
      <g transform="translate(208.943629 303.027781) scale(0.1 -0.1)">
       <defs>
        <path id="DejaVuSans-15" d="M 1228 531 
L 3431 531 
L 3431 0 
L 469 0 
L 469 531 
Q 828 903 1448 1529 
Q 2069 2156 2228 2338 
Q 2531 2678 2651 2914 
Q 2772 3150 2772 3378 
Q 2772 3750 2511 3984 
Q 2250 4219 1831 4219 
Q 1534 4219 1204 4116 
Q 875 4013 500 3803 
L 500 4441 
Q 881 4594 1212 4672 
Q 1544 4750 1819 4750 
Q 2544 4750 2975 4387 
Q 3406 4025 3406 3419 
Q 3406 3131 3298 2873 
Q 3191 2616 2906 2266 
Q 2828 2175 2409 1742 
Q 1991 1309 1228 531 
z
" transform="scale(0.015625)"/>
       </defs>
       <use xlink:href="#DejaVuSans-15"/>
       <use xlink:href="#DejaVuSans-13" transform="translate(63.625 0)"/>
       <use xlink:href="#DejaVuSans-13" transform="translate(127.25 0)"/>
      </g>
     </g>
    </g>
    <g id="xtick_4">
     <g id="line2d_4">
      <g>
       <use xlink:href="#m00c612eda0" x="295.970564" y="288.430125" style="stroke: #000000; stroke-width: 0.8"/>
      </g>
     </g>
     <g id="text_4">
      <!-- 300 -->
      <g transform="translate(286.426814 303.027781) scale(0.1 -0.1)">
       <defs>
        <path id="DejaVuSans-16" d="M 2597 2516 
Q 3050 2419 3304 2112 
Q 3559 1806 3559 1356 
Q 3559 666 3084 287 
Q 2609 -91 1734 -91 
Q 1441 -91 1130 -33 
Q 819 25 488 141 
L 488 750 
Q 750 597 1062 519 
Q 1375 441 1716 441 
Q 2309 441 2620 675 
Q 2931 909 2931 1356 
Q 2931 1769 2642 2001 
Q 2353 2234 1838 2234 
L 1294 2234 
L 1294 2753 
L 1863 2753 
Q 2328 2753 2575 2939 
Q 2822 3125 2822 3475 
Q 2822 3834 2567 4026 
Q 2313 4219 1838 4219 
Q 1578 4219 1281 4162 
Q 984 4106 628 3988 
L 628 4550 
Q 988 4650 1302 4700 
Q 1616 4750 1894 4750 
Q 2613 4750 3031 4423 
Q 3450 4097 3450 3541 
Q 3450 3153 3228 2886 
Q 3006 2619 2597 2516 
z
" transform="scale(0.015625)"/>
       </defs>
       <use xlink:href="#DejaVuSans-16"/>
       <use xlink:href="#DejaVuSans-13" transform="translate(63.625 0)"/>
       <use xlink:href="#DejaVuSans-13" transform="translate(127.25 0)"/>
      </g>
     </g>
    </g>
    <g id="xtick_5">
     <g id="line2d_5">
      <g>
       <use xlink:href="#m00c612eda0" x="373.453749" y="288.430125" style="stroke: #000000; stroke-width: 0.8"/>
      </g>
     </g>
     <g id="text_5">
      <!-- 400 -->
      <g transform="translate(363.909999 303.027781) scale(0.1 -0.1)">
       <defs>
        <path id="DejaVuSans-17" d="M 2419 4116 
L 825 1625 
L 2419 1625 
L 2419 4116 
z
M 2253 4666 
L 3047 4666 
L 3047 1625 
L 3713 1625 
L 3713 1100 
L 3047 1100 
L 3047 0 
L 2419 0 
L 2419 1100 
L 313 1100 
L 313 1709 
L 2253 4666 
z
" transform="scale(0.015625)"/>
       </defs>
       <use xlink:href="#DejaVuSans-17"/>
       <use xlink:href="#DejaVuSans-13" transform="translate(63.625 0)"/>
       <use xlink:href="#DejaVuSans-13" transform="translate(127.25 0)"/>
      </g>
     </g>
    </g>
    <g id="text_6">
     <!-- Heat flow (kW) -->
     <g transform="translate(188.770938 317.028562) scale(0.1 -0.1)">
      <defs>
       <path id="DejaVuSans-2b" d="M 628 4666 
L 1259 4666 
L 1259 2753 
L 3553 2753 
L 3553 4666 
L 4184 4666 
L 4184 0 
L 3553 0 
L 3553 2222 
L 1259 2222 
L 1259 0 
L 628 0 
L 628 4666 
z
" transform="scale(0.015625)"/>
       <path id="DejaVuSans-48" d="M 3597 1894 
L 3597 1613 
L 953 1613 
Q 991 1019 1311 708 
Q 1631 397 2203 397 
Q 2534 397 2845 478 
Q 3156 559 3463 722 
L 3463 178 
Q 3153 47 2828 -22 
Q 2503 -91 2169 -91 
Q 1331 -91 842 396 
Q 353 884 353 1716 
Q 353 2575 817 3079 
Q 1281 3584 2069 3584 
Q 2775 3584 3186 3129 
Q 3597 2675 3597 1894 
z
M 3022 2063 
Q 3016 2534 2758 2815 
Q 2500 3097 2075 3097 
Q 1594 3097 1305 2825 
Q 1016 2553 972 2059 
L 3022 2063 
z
" transform="scale(0.015625)"/>
       <path id="DejaVuSans-44" d="M 2194 1759 
Q 1497 1759 1228 1600 
Q 959 1441 959 1056 
Q 959 750 1161 570 
Q 1363 391 1709 391 
Q 2188 391 2477 730 
Q 2766 1069 2766 1631 
L 2766 1759 
L 2194 1759 
z
M 3341 1997 
L 3341 0 
L 2766 0 
L 2766 531 
Q 2569 213 2275 61 
Q 1981 -91 1556 -91 
Q 1019 -91 701 211 
Q 384 513 384 1019 
Q 384 1609 779 1909 
Q 1175 2209 1959 2209 
L 2766 2209 
L 2766 2266 
Q 2766 2663 2505 2880 
Q 2244 3097 1772 3097 
Q 1472 3097 1187 3025 
Q 903 2953 641 2809 
L 641 3341 
Q 956 3463 1253 3523 
Q 1550 3584 1831 3584 
Q 2591 3584 2966 3190 
Q 3341 2797 3341 1997 
z
" transform="scale(0.015625)"/>
       <path id="DejaVuSans-57" d="M 1172 4494 
L 1172 3500 
L 2356 3500 
L 2356 3053 
L 1172 3053 
L 1172 1153 
Q 1172 725 1289 603 
Q 1406 481 1766 481 
L 2356 481 
L 2356 0 
L 1766 0 
Q 1100 0 847 248 
Q 594 497 594 1153 
L 594 3053 
L 172 3053 
L 172 3500 
L 594 3500 
L 594 4494 
L 1172 4494 
z
" transform="scale(0.015625)"/>
       <path id="DejaVuSans-3" transform="scale(0.015625)"/>
       <path id="DejaVuSans-13b0" d="M 1831 4863 
L 3431 4863 
L 3431 0 
L 2853 0 
L 2853 4384 
L 1825 4384 
Q 1516 4384 1395 4259 
Q 1275 4134 1275 3809 
L 1275 3500 
L 2222 3500 
L 2222 3053 
L 1275 3053 
L 1275 0 
L 697 0 
L 697 3053 
L 147 3053 
L 147 3500 
L 697 3500 
L 697 3744 
Q 697 4328 969 4595 
Q 1241 4863 1831 4863 
z
" transform="scale(0.015625)"/>
       <path id="DejaVuSans-52" d="M 1959 3097 
Q 1497 3097 1228 2736 
Q 959 2375 959 1747 
Q 959 1119 1226 758 
Q 1494 397 1959 397 
Q 2419 397 2687 759 
Q 2956 1122 2956 1747 
Q 2956 2369 2687 2733 
Q 2419 3097 1959 3097 
z
M 1959 3584 
Q 2709 3584 3137 3096 
Q 3566 2609 3566 1747 
Q 3566 888 3137 398 
Q 2709 -91 1959 -91 
Q 1206 -91 779 398 
Q 353 888 353 1747 
Q 353 2609 779 3096 
Q 1206 3584 1959 3584 
z
" transform="scale(0.015625)"/>
       <path id="DejaVuSans-5a" d="M 269 3500 
L 844 3500 
L 1563 769 
L 2278 3500 
L 2956 3500 
L 3675 769 
L 4391 3500 
L 4966 3500 
L 4050 0 
L 3372 0 
L 2619 2869 
L 1863 0 
L 1184 0 
L 269 3500 
z
" transform="scale(0.015625)"/>
       <path id="DejaVuSans-b" d="M 1984 4856 
Q 1566 4138 1362 3434 
Q 1159 2731 1159 2009 
Q 1159 1288 1364 580 
Q 1569 -128 1984 -844 
L 1484 -844 
Q 1016 -109 783 600 
Q 550 1309 550 2009 
Q 550 2706 781 3412 
Q 1013 4119 1484 4856 
L 1984 4856 
z
" transform="scale(0.015625)"/>
       <path id="DejaVuSans-4e" d="M 581 4863 
L 1159 4863 
L 1159 1991 
L 2875 3500 
L 3609 3500 
L 1753 1863 
L 3688 0 
L 2938 0 
L 1159 1709 
L 1159 0 
L 581 0 
L 581 4863 
z
" transform="scale(0.015625)"/>
       <path id="DejaVuSans-3a" d="M 213 4666 
L 850 4666 
L 1831 722 
L 2809 4666 
L 3519 4666 
L 4500 722 
L 5478 4666 
L 6119 4666 
L 4947 0 
L 4153 0 
L 3169 4050 
L 2175 0 
L 1381 0 
L 213 4666 
z
" transform="scale(0.015625)"/>
       <path id="DejaVuSans-c" d="M 513 4856 
L 1013 4856 
Q 1481 4119 1714 3412 
Q 1947 2706 1947 2009 
Q 1947 1309 1714 600 
Q 1481 -109 1013 -844 
L 513 -844 
Q 928 -128 1133 580 
Q 1338 1288 1338 2009 
Q 1338 2731 1133 3434 
Q 928 4138 513 4856 
z
" transform="scale(0.015625)"/>
      </defs>
      <use xlink:href="#DejaVuSans-2b"/>
      <use xlink:href="#DejaVuSans-48" transform="translate(75.203125 0)"/>
      <use xlink:href="#DejaVuSans-44" transform="translate(136.734375 0)"/>
      <use xlink:href="#DejaVuSans-57" transform="translate(198.015625 0)"/>
      <use xlink:href="#DejaVuSans-3" transform="translate(237.21875 0)"/>
      <use xlink:href="#DejaVuSans-13b0" transform="translate(269 0)"/>
      <use xlink:href="#DejaVuSans-52" transform="translate(331.984375 0)"/>
      <use xlink:href="#DejaVuSans-5a" transform="translate(393.171875 0)"/>
      <use xlink:href="#DejaVuSans-3" transform="translate(474.953125 0)"/>
      <use xlink:href="#DejaVuSans-b" transform="translate(506.734375 0)"/>
      <use xlink:href="#DejaVuSans-4e" transform="translate(545.75 0)"/>
      <use xlink:href="#DejaVuSans-3a" transform="translate(603.65625 0)"/>
      <use xlink:href="#DejaVuSans-c" transform="translate(702.53125 0)"/>
     </g>
    </g>
   </g>
   <g id="matplotlib.axis_2">
    <g id="ytick_1">
     <g id="line2d_6">
      <defs>
       <path id="m94fb9a5401" d="M 0 0 
L -3.5 0 
" style="stroke: #000000; stroke-width: 0.8"/>
      </defs>
      <g>
       <use xlink:href="#m94fb9a5401" x="47.288281" y="259.649987" style="stroke: #000000; stroke-width: 0.8"/>
      </g>
     </g>
     <g id="text_7">
      <!-- 40 -->
      <g transform="translate(27.563281 263.448815) scale(0.1 -0.1)">
       <use xlink:href="#DejaVuSans-17"/>
       <use xlink:href="#DejaVuSans-13" transform="translate(63.625 0)"/>
      </g>
     </g>
    </g>
    <g id="ytick_2">
     <g id="line2d_7">
      <g>
       <use xlink:href="#m94fb9a5401" x="47.288281" y="226.281711" style="stroke: #000000; stroke-width: 0.8"/>
      </g>
     </g>
     <g id="text_8">
      <!-- 60 -->
      <g transform="translate(27.563281 230.080539) scale(0.1 -0.1)">
       <defs>
        <path id="DejaVuSans-19" d="M 2113 2584 
Q 1688 2584 1439 2293 
Q 1191 2003 1191 1497 
Q 1191 994 1439 701 
Q 1688 409 2113 409 
Q 2538 409 2786 701 
Q 3034 994 3034 1497 
Q 3034 2003 2786 2293 
Q 2538 2584 2113 2584 
z
M 3366 4563 
L 3366 3988 
Q 3128 4100 2886 4159 
Q 2644 4219 2406 4219 
Q 1781 4219 1451 3797 
Q 1122 3375 1075 2522 
Q 1259 2794 1537 2939 
Q 1816 3084 2150 3084 
Q 2853 3084 3261 2657 
Q 3669 2231 3669 1497 
Q 3669 778 3244 343 
Q 2819 -91 2113 -91 
Q 1303 -91 875 529 
Q 447 1150 447 2328 
Q 447 3434 972 4092 
Q 1497 4750 2381 4750 
Q 2619 4750 2861 4703 
Q 3103 4656 3366 4563 
z
" transform="scale(0.015625)"/>
       </defs>
       <use xlink:href="#DejaVuSans-19"/>
       <use xlink:href="#DejaVuSans-13" transform="translate(63.625 0)"/>
      </g>
     </g>
    </g>
    <g id="ytick_3">
     <g id="line2d_8">
      <g>
       <use xlink:href="#m94fb9a5401" x="47.288281" y="192.913435" style="stroke: #000000; stroke-width: 0.8"/>
      </g>
     </g>
     <g id="text_9">
      <!-- 80 -->
      <g transform="translate(27.563281 196.712263) scale(0.1 -0.1)">
       <defs>
        <path id="DejaVuSans-1b" d="M 2034 2216 
Q 1584 2216 1326 1975 
Q 1069 1734 1069 1313 
Q 1069 891 1326 650 
Q 1584 409 2034 409 
Q 2484 409 2743 651 
Q 3003 894 3003 1313 
Q 3003 1734 2745 1975 
Q 2488 2216 2034 2216 
z
M 1403 2484 
Q 997 2584 770 2862 
Q 544 3141 544 3541 
Q 544 4100 942 4425 
Q 1341 4750 2034 4750 
Q 2731 4750 3128 4425 
Q 3525 4100 3525 3541 
Q 3525 3141 3298 2862 
Q 3072 2584 2669 2484 
Q 3125 2378 3379 2068 
Q 3634 1759 3634 1313 
Q 3634 634 3220 271 
Q 2806 -91 2034 -91 
Q 1263 -91 848 271 
Q 434 634 434 1313 
Q 434 1759 690 2068 
Q 947 2378 1403 2484 
z
M 1172 3481 
Q 1172 3119 1398 2916 
Q 1625 2713 2034 2713 
Q 2441 2713 2670 2916 
Q 2900 3119 2900 3481 
Q 2900 3844 2670 4047 
Q 2441 4250 2034 4250 
Q 1625 4250 1398 4047 
Q 1172 3844 1172 3481 
z
" transform="scale(0.015625)"/>
       </defs>
       <use xlink:href="#DejaVuSans-1b"/>
       <use xlink:href="#DejaVuSans-13" transform="translate(63.625 0)"/>
      </g>
     </g>
    </g>
    <g id="ytick_4">
     <g id="line2d_9">
      <g>
       <use xlink:href="#m94fb9a5401" x="47.288281" y="159.545159" style="stroke: #000000; stroke-width: 0.8"/>
      </g>
     </g>
     <g id="text_10">
      <!-- 100 -->
      <g transform="translate(21.200781 163.343988) scale(0.1 -0.1)">
       <use xlink:href="#DejaVuSans-14"/>
       <use xlink:href="#DejaVuSans-13" transform="translate(63.625 0)"/>
       <use xlink:href="#DejaVuSans-13" transform="translate(127.25 0)"/>
      </g>
     </g>
    </g>
    <g id="ytick_5">
     <g id="line2d_10">
      <g>
       <use xlink:href="#m94fb9a5401" x="47.288281" y="126.176884" style="stroke: #000000; stroke-width: 0.8"/>
      </g>
     </g>
     <g id="text_11">
      <!-- 120 -->
      <g transform="translate(21.200781 129.975712) scale(0.1 -0.1)">
       <use xlink:href="#DejaVuSans-14"/>
       <use xlink:href="#DejaVuSans-15" transform="translate(63.625 0)"/>
       <use xlink:href="#DejaVuSans-13" transform="translate(127.25 0)"/>
      </g>
     </g>
    </g>
    <g id="ytick_6">
     <g id="line2d_11">
      <g>
       <use xlink:href="#m94fb9a5401" x="47.288281" y="92.808608" style="stroke: #000000; stroke-width: 0.8"/>
      </g>
     </g>
     <g id="text_12">
      <!-- 140 -->
      <g transform="translate(21.200781 96.607436) scale(0.1 -0.1)">
       <use xlink:href="#DejaVuSans-14"/>
       <use xlink:href="#DejaVuSans-17" transform="translate(63.625 0)"/>
       <use xlink:href="#DejaVuSans-13" transform="translate(127.25 0)"/>
      </g>
     </g>
    </g>
    <g id="ytick_7">
     <g id="line2d_12">
      <g>
       <use xlink:href="#m94fb9a5401" x="47.288281" y="59.440332" style="stroke: #000000; stroke-width: 0.8"/>
      </g>
     </g>
     <g id="text_13">
      <!-- 160 -->
      <g transform="translate(21.200781 63.23916) scale(0.1 -0.1)">
       <use xlink:href="#DejaVuSans-14"/>
       <use xlink:href="#DejaVuSans-19" transform="translate(63.625 0)"/>
       <use xlink:href="#DejaVuSans-13" transform="translate(127.25 0)"/>
      </g>
     </g>
    </g>
    <g id="ytick_8">
     <g id="line2d_13">
      <g>
       <use xlink:href="#m94fb9a5401" x="47.288281" y="26.072056" style="stroke: #000000; stroke-width: 0.8"/>
      </g>
     </g>
     <g id="text_14">
      <!-- 180 -->
      <g transform="translate(21.200781 29.870884) scale(0.1 -0.1)">
       <use xlink:href="#DejaVuSans-14"/>
       <use xlink:href="#DejaVuSans-1b" transform="translate(63.625 0)"/>
       <use xlink:href="#DejaVuSans-13" transform="translate(127.25 0)"/>
      </g>
     </g>
    </g>
    <g id="text_15">
     <!-- Shifted temperature (°C) -->
     <g transform="translate(14.798438 217.488969) rotate(-90) scale(0.1 -0.1)">
      <defs>
       <path id="DejaVuSans-36" d="M 3425 4513 
L 3425 3897 
Q 3066 4069 2747 4153 
Q 2428 4238 2131 4238 
Q 1616 4238 1336 4038 
Q 1056 3838 1056 3469 
Q 1056 3159 1242 3001 
Q 1428 2844 1947 2747 
L 2328 2669 
Q 3034 2534 3370 2195 
Q 3706 1856 3706 1288 
Q 3706 609 3251 259 
Q 2797 -91 1919 -91 
Q 1588 -91 1214 -16 
Q 841 59 441 206 
L 441 856 
Q 825 641 1194 531 
Q 1563 422 1919 422 
Q 2459 422 2753 634 
Q 3047 847 3047 1241 
Q 3047 1584 2836 1778 
Q 2625 1972 2144 2069 
L 1759 2144 
Q 1053 2284 737 2584 
Q 422 2884 422 3419 
Q 422 4038 858 4394 
Q 1294 4750 2059 4750 
Q 2388 4750 2728 4690 
Q 3069 4631 3425 4513 
z
" transform="scale(0.015625)"/>
       <path id="DejaVuSans-4b" d="M 3513 2113 
L 3513 0 
L 2938 0 
L 2938 2094 
Q 2938 2591 2744 2837 
Q 2550 3084 2163 3084 
Q 1697 3084 1428 2787 
Q 1159 2491 1159 1978 
L 1159 0 
L 581 0 
L 581 4863 
L 1159 4863 
L 1159 2956 
Q 1366 3272 1645 3428 
Q 1925 3584 2291 3584 
Q 2894 3584 3203 3211 
Q 3513 2838 3513 2113 
z
" transform="scale(0.015625)"/>
       <path id="DejaVuSans-4c" d="M 603 3500 
L 1178 3500 
L 1178 0 
L 603 0 
L 603 3500 
z
M 603 4863 
L 1178 4863 
L 1178 4134 
L 603 4134 
L 603 4863 
z
" transform="scale(0.015625)"/>
       <path id="DejaVuSans-49" d="M 2375 4863 
L 2375 4384 
L 1825 4384 
Q 1516 4384 1395 4259 
Q 1275 4134 1275 3809 
L 1275 3500 
L 2222 3500 
L 2222 3053 
L 1275 3053 
L 1275 0 
L 697 0 
L 697 3053 
L 147 3053 
L 147 3500 
L 697 3500 
L 697 3744 
Q 697 4328 969 4595 
Q 1241 4863 1831 4863 
L 2375 4863 
z
" transform="scale(0.015625)"/>
       <path id="DejaVuSans-47" d="M 2906 2969 
L 2906 4863 
L 3481 4863 
L 3481 0 
L 2906 0 
L 2906 525 
Q 2725 213 2448 61 
Q 2172 -91 1784 -91 
Q 1150 -91 751 415 
Q 353 922 353 1747 
Q 353 2572 751 3078 
Q 1150 3584 1784 3584 
Q 2172 3584 2448 3432 
Q 2725 3281 2906 2969 
z
M 947 1747 
Q 947 1113 1208 752 
Q 1469 391 1925 391 
Q 2381 391 2643 752 
Q 2906 1113 2906 1747 
Q 2906 2381 2643 2742 
Q 2381 3103 1925 3103 
Q 1469 3103 1208 2742 
Q 947 2381 947 1747 
z
" transform="scale(0.015625)"/>
       <path id="DejaVuSans-50" d="M 3328 2828 
Q 3544 3216 3844 3400 
Q 4144 3584 4550 3584 
Q 5097 3584 5394 3201 
Q 5691 2819 5691 2113 
L 5691 0 
L 5113 0 
L 5113 2094 
Q 5113 2597 4934 2840 
Q 4756 3084 4391 3084 
Q 3944 3084 3684 2787 
Q 3425 2491 3425 1978 
L 3425 0 
L 2847 0 
L 2847 2094 
Q 2847 2600 2669 2842 
Q 2491 3084 2119 3084 
Q 1678 3084 1418 2786 
Q 1159 2488 1159 1978 
L 1159 0 
L 581 0 
L 581 3500 
L 1159 3500 
L 1159 2956 
Q 1356 3278 1631 3431 
Q 1906 3584 2284 3584 
Q 2666 3584 2933 3390 
Q 3200 3197 3328 2828 
z
" transform="scale(0.015625)"/>
       <path id="DejaVuSans-53" d="M 1159 525 
L 1159 -1331 
L 581 -1331 
L 581 3500 
L 1159 3500 
L 1159 2969 
Q 1341 3281 1617 3432 
Q 1894 3584 2278 3584 
Q 2916 3584 3314 3078 
Q 3713 2572 3713 1747 
Q 3713 922 3314 415 
Q 2916 -91 2278 -91 
Q 1894 -91 1617 61 
Q 1341 213 1159 525 
z
M 3116 1747 
Q 3116 2381 2855 2742 
Q 2594 3103 2138 3103 
Q 1681 3103 1420 2742 
Q 1159 2381 1159 1747 
Q 1159 1113 1420 752 
Q 1681 391 2138 391 
Q 2594 391 2855 752 
Q 3116 1113 3116 1747 
z
" transform="scale(0.015625)"/>
       <path id="DejaVuSans-55" d="M 2631 2963 
Q 2534 3019 2420 3045 
Q 2306 3072 2169 3072 
Q 1681 3072 1420 2755 
Q 1159 2438 1159 1844 
L 1159 0 
L 581 0 
L 581 3500 
L 1159 3500 
L 1159 2956 
Q 1341 3275 1631 3429 
Q 1922 3584 2338 3584 
Q 2397 3584 2469 3576 
Q 2541 3569 2628 3553 
L 2631 2963 
z
" transform="scale(0.015625)"/>
       <path id="DejaVuSans-58" d="M 544 1381 
L 544 3500 
L 1119 3500 
L 1119 1403 
Q 1119 906 1312 657 
Q 1506 409 1894 409 
Q 2359 409 2629 706 
Q 2900 1003 2900 1516 
L 2900 3500 
L 3475 3500 
L 3475 0 
L 2900 0 
L 2900 538 
Q 2691 219 2414 64 
Q 2138 -91 1772 -91 
Q 1169 -91 856 284 
Q 544 659 544 1381 
z
M 1991 3584 
L 1991 3584 
z
" transform="scale(0.015625)"/>
       <path id="DejaVuSans-72" d="M 1600 4347 
Q 1350 4347 1178 4173 
Q 1006 4000 1006 3750 
Q 1006 3503 1178 3333 
Q 1350 3163 1600 3163 
Q 1850 3163 2022 3333 
Q 2194 3503 2194 3750 
Q 2194 3997 2020 4172 
Q 1847 4347 1600 4347 
z
M 1600 4750 
Q 1800 4750 1984 4673 
Q 2169 4597 2303 4453 
Q 2447 4313 2519 4134 
Q 2591 3956 2591 3750 
Q 2591 3338 2302 3052 
Q 2013 2766 1594 2766 
Q 1172 2766 890 3047 
Q 609 3328 609 3750 
Q 609 4169 896 4459 
Q 1184 4750 1600 4750 
z
" transform="scale(0.015625)"/>
       <path id="DejaVuSans-26" d="M 4122 4306 
L 4122 3641 
Q 3803 3938 3442 4084 
Q 3081 4231 2675 4231 
Q 1875 4231 1450 3742 
Q 1025 3253 1025 2328 
Q 1025 1406 1450 917 
Q 1875 428 2675 428 
Q 3081 428 3442 575 
Q 3803 722 4122 1019 
L 4122 359 
Q 3791 134 3420 21 
Q 3050 -91 2638 -91 
Q 1578 -91 968 557 
Q 359 1206 359 2328 
Q 359 3453 968 4101 
Q 1578 4750 2638 4750 
Q 3056 4750 3426 4639 
Q 3797 4528 4122 4306 
z
" transform="scale(0.015625)"/>
      </defs>
      <use xlink:href="#DejaVuSans-36"/>
      <use xlink:href="#DejaVuSans-4b" transform="translate(63.484375 0)"/>
      <use xlink:href="#DejaVuSans-4c" transform="translate(126.859375 0)"/>
      <use xlink:href="#DejaVuSans-49" transform="translate(154.640625 0)"/>
      <use xlink:href="#DejaVuSans-57" transform="translate(188.09375 0)"/>
      <use xlink:href="#DejaVuSans-48" transform="translate(227.296875 0)"/>
      <use xlink:href="#DejaVuSans-47" transform="translate(288.828125 0)"/>
      <use xlink:href="#DejaVuSans-3" transform="translate(352.3125 0)"/>
      <use xlink:href="#DejaVuSans-57" transform="translate(384.09375 0)"/>
      <use xlink:href="#DejaVuSans-48" transform="translate(423.296875 0)"/>
      <use xlink:href="#DejaVuSans-50" transform="translate(484.828125 0)"/>
      <use xlink:href="#DejaVuSans-53" transform="translate(582.234375 0)"/>
      <use xlink:href="#DejaVuSans-48" transform="translate(645.71875 0)"/>
      <use xlink:href="#DejaVuSans-55" transform="translate(707.25 0)"/>
      <use xlink:href="#DejaVuSans-44" transform="translate(748.359375 0)"/>
      <use xlink:href="#DejaVuSans-57" transform="translate(809.640625 0)"/>
      <use xlink:href="#DejaVuSans-58" transform="translate(848.84375 0)"/>
      <use xlink:href="#DejaVuSans-55" transform="translate(912.21875 0)"/>
      <use xlink:href="#DejaVuSans-48" transform="translate(951.125 0)"/>
      <use xlink:href="#DejaVuSans-3" transform="translate(1012.65625 0)"/>
      <use xlink:href="#DejaVuSans-b" transform="translate(1044.4375 0)"/>
      <use xlink:href="#DejaVuSans-72" transform="translate(1083.453125 0)"/>
      <use xlink:href="#DejaVuSans-26" transform="translate(1133.453125 0)"/>
      <use xlink:href="#DejaVuSans-c" transform="translate(1203.28125 0)"/>
     </g>
    </g>
   </g>
   <g id="line2d_14">
    <path d="M 63.521009 259.649987 
L 87.540796 242.965849 
L 123.570477 217.939642 
L 230.109856 176.229297 
L 295.195732 117.834815 
L 332.387661 84.466539 
L 388.175554 34.414125 
" clip-path="url(#pf376047087)" style="fill: none; stroke: #1f77b4; stroke-width: 1.5; stroke-linecap: square"/>
    <defs>
     <path id="m1c116cf8b7" d="M 0 3 
C 0.795609 3 1.55874 2.683901 2.12132 2.12132 
C 2.683901 1.55874 3 0.795609 3 0 
C 3 -0.795609 2.683901 -1.55874 2.12132 -2.12132 
C 1.55874 -2.683901 0.795609 -3 0 -3 
C -0.795609 -3 -1.55874 -2.683901 -2.12132 -2.12132 
C -2.683901 -1.55874 -3 -0.795609 -3 0 
C -3 0.795609 -2.683901 1.55874 -2.12132 2.12132 
C -1.55874 2.683901 -0.795609 3 0 3 
z
" style="stroke: #1f77b4"/>
    </defs>
    <g clip-path="url(#pf376047087)">
     <use xlink:href="#m1c116cf8b7" x="63.521009" y="259.649987" style="fill: #1f77b4; stroke: #1f77b4"/>
     <use xlink:href="#m1c116cf8b7" x="87.540796" y="242.965849" style="fill: #1f77b4; stroke: #1f77b4"/>
     <use xlink:href="#m1c116cf8b7" x="123.570477" y="217.939642" style="fill: #1f77b4; stroke: #1f77b4"/>
     <use xlink:href="#m1c116cf8b7" x="230.109856" y="176.229297" style="fill: #1f77b4; stroke: #1f77b4"/>
     <use xlink:href="#m1c116cf8b7" x="295.195732" y="117.834815" style="fill: #1f77b4; stroke: #1f77b4"/>
     <use xlink:href="#m1c116cf8b7" x="332.387661" y="84.466539" style="fill: #1f77b4; stroke: #1f77b4"/>
     <use xlink:href="#m1c116cf8b7" x="388.175554" y="34.414125" style="fill: #1f77b4; stroke: #1f77b4"/>
    </g>
   </g>
   <g id="line2d_15">
    <path d="M 108.461256 276.334125 
L 123.957893 259.649987 
L 139.45453 242.965849 
L 183.619945 217.939642 
L 257.228971 176.229297 
L 360.281607 117.834815 
L 388.175554 84.466539 
" clip-path="url(#pf376047087)" style="fill: none; stroke: #ff7f0e; stroke-width: 1.5; stroke-linecap: square"/>
    <defs>
     <path id="m44baf9bd7b" d="M 0 3 
C 0.795609 3 1.55874 2.683901 2.12132 2.12132 
C 2.683901 1.55874 3 0.795609 3 0 
C 3 -0.795609 2.683901 -1.55874 2.12132 -2.12132 
C 1.55874 -2.683901 0.795609 -3 0 -3 
C -0.795609 -3 -1.55874 -2.683901 -2.12132 -2.12132 
C -2.683901 -1.55874 -3 -0.795609 -3 0 
C -3 0.795609 -2.683901 1.55874 -2.12132 2.12132 
C -1.55874 2.683901 -0.795609 3 0 3 
z
" style="stroke: #ff7f0e"/>
    </defs>
    <g clip-path="url(#pf376047087)">
     <use xlink:href="#m44baf9bd7b" x="108.461256" y="276.334125" style="fill: #ff7f0e; stroke: #ff7f0e"/>
     <use xlink:href="#m44baf9bd7b" x="123.957893" y="259.649987" style="fill: #ff7f0e; stroke: #ff7f0e"/>
     <use xlink:href="#m44baf9bd7b" x="139.45453" y="242.965849" style="fill: #ff7f0e; stroke: #ff7f0e"/>
     <use xlink:href="#m44baf9bd7b" x="183.619945" y="217.939642" style="fill: #ff7f0e; stroke: #ff7f0e"/>
     <use xlink:href="#m44baf9bd7b" x="257.228971" y="176.229297" style="fill: #ff7f0e; stroke: #ff7f0e"/>
     <use xlink:href="#m44baf9bd7b" x="360.281607" y="117.834815" style="fill: #ff7f0e; stroke: #ff7f0e"/>
     <use xlink:href="#m44baf9bd7b" x="388.175554" y="84.466539" style="fill: #ff7f0e; stroke: #ff7f0e"/>
    </g>
   </g>
   <g id="line2d_16">
    <path d="M 63.521009 288.430125 
L 63.521009 22.318125 
" clip-path="url(#pf376047087)" style="fill: none; stroke-dasharray: 5.55,2.4; stroke-dashoffset: 0; stroke: #808080; stroke-width: 1.5"/>
   </g>
   <g id="line2d_17">
    <path d="M 47.288281 259.649987 
L 404.408281 259.649987 
" clip-path="url(#pf376047087)" style="fill: none; stroke-dasharray: 5.55,2.4; stroke-dashoffset: 0; stroke: #808080; stroke-width: 1.5"/>
   </g>
   <g id="line2d_18">
    <path d="M 87.540796 288.430125 
L 87.540796 22.318125 
" clip-path="url(#pf376047087)" style="fill: none; stroke-dasharray: 5.55,2.4; stroke-dashoffset: 0; stroke: #808080; stroke-width: 1.5"/>
   </g>
   <g id="line2d_19">
    <path d="M 47.288281 242.965849 
L 404.408281 242.965849 
" clip-path="url(#pf376047087)" style="fill: none; stroke-dasharray: 5.55,2.4; stroke-dashoffset: 0; stroke: #808080; stroke-width: 1.5"/>
   </g>
   <g id="line2d_20">
    <path d="M 123.570477 288.430125 
L 123.570477 22.318125 
" clip-path="url(#pf376047087)" style="fill: none; stroke-dasharray: 5.55,2.4; stroke-dashoffset: 0; stroke: #808080; stroke-width: 1.5"/>
   </g>
   <g id="line2d_21">
    <path d="M 47.288281 217.939642 
L 404.408281 217.939642 
" clip-path="url(#pf376047087)" style="fill: none; stroke-dasharray: 5.55,2.4; stroke-dashoffset: 0; stroke: #808080; stroke-width: 1.5"/>
   </g>
   <g id="line2d_22">
    <path d="M 230.109856 288.430125 
L 230.109856 22.318125 
" clip-path="url(#pf376047087)" style="fill: none; stroke-dasharray: 5.55,2.4; stroke-dashoffset: 0; stroke: #808080; stroke-width: 1.5"/>
   </g>
   <g id="line2d_23">
    <path d="M 47.288281 176.229297 
L 404.408281 176.229297 
" clip-path="url(#pf376047087)" style="fill: none; stroke-dasharray: 5.55,2.4; stroke-dashoffset: 0; stroke: #808080; stroke-width: 1.5"/>
   </g>
   <g id="line2d_24">
    <path d="M 295.195732 288.430125 
L 295.195732 22.318125 
" clip-path="url(#pf376047087)" style="fill: none; stroke-dasharray: 5.55,2.4; stroke-dashoffset: 0; stroke: #808080; stroke-width: 1.5"/>
   </g>
   <g id="line2d_25">
    <path d="M 47.288281 117.834815 
L 404.408281 117.834815 
" clip-path="url(#pf376047087)" style="fill: none; stroke-dasharray: 5.55,2.4; stroke-dashoffset: 0; stroke: #808080; stroke-width: 1.5"/>
   </g>
   <g id="line2d_26">
    <path d="M 332.387661 288.430125 
L 332.387661 22.318125 
" clip-path="url(#pf376047087)" style="fill: none; stroke-dasharray: 5.55,2.4; stroke-dashoffset: 0; stroke: #808080; stroke-width: 1.5"/>
   </g>
   <g id="line2d_27">
    <path d="M 47.288281 84.466539 
L 404.408281 84.466539 
" clip-path="url(#pf376047087)" style="fill: none; stroke-dasharray: 5.55,2.4; stroke-dashoffset: 0; stroke: #808080; stroke-width: 1.5"/>
   </g>
   <g id="line2d_28">
    <path d="M 388.175554 288.430125 
L 388.175554 22.318125 
" clip-path="url(#pf376047087)" style="fill: none; stroke-dasharray: 5.55,2.4; stroke-dashoffset: 0; stroke: #808080; stroke-width: 1.5"/>
   </g>
   <g id="line2d_29">
    <path d="M 47.288281 34.414125 
L 404.408281 34.414125 
" clip-path="url(#pf376047087)" style="fill: none; stroke-dasharray: 5.55,2.4; stroke-dashoffset: 0; stroke: #808080; stroke-width: 1.5"/>
   </g>
   <g id="line2d_30">
    <path d="M 108.461256 288.430125 
L 108.461256 22.318125 
" clip-path="url(#pf376047087)" style="fill: none; stroke-dasharray: 5.55,2.4; stroke-dashoffset: 0; stroke: #808080; stroke-width: 1.5"/>
   </g>
   <g id="line2d_31">
    <path d="M 47.288281 276.334125 
L 404.408281 276.334125 
" clip-path="url(#pf376047087)" style="fill: none; stroke-dasharray: 5.55,2.4; stroke-dashoffset: 0; stroke: #808080; stroke-width: 1.5"/>
   </g>
   <g id="line2d_32">
    <path d="M 123.957893 288.430125 
L 123.957893 22.318125 
" clip-path="url(#pf376047087)" style="fill: none; stroke-dasharray: 5.55,2.4; stroke-dashoffset: 0; stroke: #808080; stroke-width: 1.5"/>
   </g>
   <g id="line2d_33">
    <path d="M 47.288281 259.649987 
L 404.408281 259.649987 
" clip-path="url(#pf376047087)" style="fill: none; stroke-dasharray: 5.55,2.4; stroke-dashoffset: 0; stroke: #808080; stroke-width: 1.5"/>
   </g>
   <g id="line2d_34">
    <path d="M 139.45453 288.430125 
L 139.45453 22.318125 
" clip-path="url(#pf376047087)" style="fill: none; stroke-dasharray: 5.55,2.4; stroke-dashoffset: 0; stroke: #808080; stroke-width: 1.5"/>
   </g>
   <g id="line2d_35">
    <path d="M 47.288281 242.965849 
L 404.408281 242.965849 
" clip-path="url(#pf376047087)" style="fill: none; stroke-dasharray: 5.55,2.4; stroke-dashoffset: 0; stroke: #808080; stroke-width: 1.5"/>
   </g>
   <g id="line2d_36">
    <path d="M 183.619945 288.430125 
L 183.619945 22.318125 
" clip-path="url(#pf376047087)" style="fill: none; stroke-dasharray: 5.55,2.4; stroke-dashoffset: 0; stroke: #808080; stroke-width: 1.5"/>
   </g>
   <g id="line2d_37">
    <path d="M 47.288281 217.939642 
L 404.408281 217.939642 
" clip-path="url(#pf376047087)" style="fill: none; stroke-dasharray: 5.55,2.4; stroke-dashoffset: 0; stroke: #808080; stroke-width: 1.5"/>
   </g>
   <g id="line2d_38">
    <path d="M 257.228971 288.430125 
L 257.228971 22.318125 
" clip-path="url(#pf376047087)" style="fill: none; stroke-dasharray: 5.55,2.4; stroke-dashoffset: 0; stroke: #808080; stroke-width: 1.5"/>
   </g>
   <g id="line2d_39">
    <path d="M 47.288281 176.229297 
L 404.408281 176.229297 
" clip-path="url(#pf376047087)" style="fill: none; stroke-dasharray: 5.55,2.4; stroke-dashoffset: 0; stroke: #808080; stroke-width: 1.5"/>
   </g>
   <g id="line2d_40">
    <path d="M 360.281607 288.430125 
L 360.281607 22.318125 
" clip-path="url(#pf376047087)" style="fill: none; stroke-dasharray: 5.55,2.4; stroke-dashoffset: 0; stroke: #808080; stroke-width: 1.5"/>
   </g>
   <g id="line2d_41">
    <path d="M 47.288281 117.834815 
L 404.408281 117.834815 
" clip-path="url(#pf376047087)" style="fill: none; stroke-dasharray: 5.55,2.4; stroke-dashoffset: 0; stroke: #808080; stroke-width: 1.5"/>
   </g>
   <g id="line2d_42">
    <path d="M 388.175554 288.430125 
L 388.175554 22.318125 
" clip-path="url(#pf376047087)" style="fill: none; stroke-dasharray: 5.55,2.4; stroke-dashoffset: 0; stroke: #808080; stroke-width: 1.5"/>
   </g>
   <g id="line2d_43">
    <path d="M 47.288281 84.466539 
L 404.408281 84.466539 
" clip-path="url(#pf376047087)" style="fill: none; stroke-dasharray: 5.55,2.4; stroke-dashoffset: 0; stroke: #808080; stroke-width: 1.5"/>
   </g>
   <g id="patch_3">
    <path d="M 47.288281 288.430125 
L 47.288281 22.318125 
" style="fill: none; stroke: #000000; stroke-width: 0.8; stroke-linejoin: miter; stroke-linecap: square"/>
   </g>
   <g id="patch_4">
    <path d="M 404.408281 288.430125 
L 404.408281 22.318125 
" style="fill: none; stroke: #000000; stroke-width: 0.8; stroke-linejoin: miter; stroke-linecap: square"/>
   </g>
   <g id="patch_5">
    <path d="M 47.288281 288.430125 
L 404.408281 288.430125 
" style="fill: none; stroke: #000000; stroke-width: 0.8; stroke-linejoin: miter; stroke-linecap: square"/>
   </g>
   <g id="patch_6">
    <path d="M 47.288281 22.318125 
L 404.408281 22.318125 
" style="fill: none; stroke: #000000; stroke-width: 0.8; stroke-linejoin: miter; stroke-linecap: square"/>
   </g>
   <g id="text_16">
    <!-- Shifted hot and cold composite curves -->
    <g transform="translate(110.546094 16.318125) scale(0.12 -0.12)">
     <defs>
      <path id="DejaVuSans-51" d="M 3513 2113 
L 3513 0 
L 2938 0 
L 2938 2094 
Q 2938 2591 2744 2837 
Q 2550 3084 2163 3084 
Q 1697 3084 1428 2787 
Q 1159 2491 1159 1978 
L 1159 0 
L 581 0 
L 581 3500 
L 1159 3500 
L 1159 2956 
Q 1366 3272 1645 3428 
Q 1925 3584 2291 3584 
Q 2894 3584 3203 3211 
Q 3513 2838 3513 2113 
z
" transform="scale(0.015625)"/>
      <path id="DejaVuSans-46" d="M 3122 3366 
L 3122 2828 
Q 2878 2963 2633 3030 
Q 2388 3097 2138 3097 
Q 1578 3097 1268 2742 
Q 959 2388 959 1747 
Q 959 1106 1268 751 
Q 1578 397 2138 397 
Q 2388 397 2633 464 
Q 2878 531 3122 666 
L 3122 134 
Q 2881 22 2623 -34 
Q 2366 -91 2075 -91 
Q 1284 -91 818 406 
Q 353 903 353 1747 
Q 353 2603 823 3093 
Q 1294 3584 2113 3584 
Q 2378 3584 2631 3529 
Q 2884 3475 3122 3366 
z
" transform="scale(0.015625)"/>
      <path id="DejaVuSans-4f" d="M 603 4863 
L 1178 4863 
L 1178 0 
L 603 0 
L 603 4863 
z
" transform="scale(0.015625)"/>
      <path id="DejaVuSans-56" d="M 2834 3397 
L 2834 2853 
Q 2591 2978 2328 3040 
Q 2066 3103 1784 3103 
Q 1356 3103 1142 2972 
Q 928 2841 928 2578 
Q 928 2378 1081 2264 
Q 1234 2150 1697 2047 
L 1894 2003 
Q 2506 1872 2764 1633 
Q 3022 1394 3022 966 
Q 3022 478 2636 193 
Q 2250 -91 1575 -91 
Q 1294 -91 989 -36 
Q 684 19 347 128 
L 347 722 
Q 666 556 975 473 
Q 1284 391 1588 391 
Q 1994 391 2212 530 
Q 2431 669 2431 922 
Q 2431 1156 2273 1281 
Q 2116 1406 1581 1522 
L 1381 1569 
Q 847 1681 609 1914 
Q 372 2147 372 2553 
Q 372 3047 722 3315 
Q 1072 3584 1716 3584 
Q 2034 3584 2315 3537 
Q 2597 3491 2834 3397 
z
" transform="scale(0.015625)"/>
      <path id="DejaVuSans-59" d="M 191 3500 
L 800 3500 
L 1894 563 
L 2988 3500 
L 3597 3500 
L 2284 0 
L 1503 0 
L 191 3500 
z
" transform="scale(0.015625)"/>
     </defs>
     <use xlink:href="#DejaVuSans-36"/>
     <use xlink:href="#DejaVuSans-4b" transform="translate(63.484375 0)"/>
     <use xlink:href="#DejaVuSans-4c" transform="translate(126.859375 0)"/>
     <use xlink:href="#DejaVuSans-49" transform="translate(154.640625 0)"/>
     <use xlink:href="#DejaVuSans-57" transform="translate(188.09375 0)"/>
     <use xlink:href="#DejaVuSans-48" transform="translate(227.296875 0)"/>
     <use xlink:href="#DejaVuSans-47" transform="translate(288.828125 0)"/>
     <use xlink:href="#DejaVuSans-3" transform="translate(352.3125 0)"/>
     <use xlink:href="#DejaVuSans-4b" transform="translate(384.09375 0)"/>
     <use xlink:href="#DejaVuSans-52" transform="translate(447.46875 0)"/>
     <use xlink:href="#DejaVuSans-57" transform="translate(508.65625 0)"/>
     <use xlink:href="#DejaVuSans-3" transform="translate(547.859375 0)"/>
     <use xlink:href="#DejaVuSans-44" transform="translate(579.640625 0)"/>
     <use xlink:href="#DejaVuSans-51" transform="translate(640.921875 0)"/>
     <use xlink:href="#DejaVuSans-47" transform="translate(704.296875 0)"/>
     <use xlink:href="#DejaVuSans-3" transform="translate(767.78125 0)"/>
     <use xlink:href="#DejaVuSans-46" transform="translate(799.5625 0)"/>
     <use xlink:href="#DejaVuSans-52" transform="translate(854.546875 0)"/>
     <use xlink:href="#DejaVuSans-4f" transform="translate(915.734375 0)"/>
     <use xlink:href="#DejaVuSans-47" transform="translate(943.515625 0)"/>
     <use xlink:href="#DejaVuSans-3" transform="translate(1007 0)"/>
     <use xlink:href="#DejaVuSans-46" transform="translate(1038.78125 0)"/>
     <use xlink:href="#DejaVuSans-52" transform="translate(1093.765625 0)"/>
     <use xlink:href="#DejaVuSans-50" transform="translate(1154.953125 0)"/>
     <use xlink:href="#DejaVuSans-53" transform="translate(1252.359375 0)"/>
     <use xlink:href="#DejaVuSans-52" transform="translate(1315.84375 0)"/>
     <use xlink:href="#DejaVuSans-56" transform="translate(1377.03125 0)"/>
     <use xlink:href="#DejaVuSans-4c" transform="translate(1429.125 0)"/>
     <use xlink:href="#DejaVuSans-57" transform="translate(1456.90625 0)"/>
     <use xlink:href="#DejaVuSans-48" transform="translate(1496.109375 0)"/>
     <use xlink:href="#DejaVuSans-3" transform="translate(1557.640625 0)"/>
     <use xlink:href="#DejaVuSans-46" transform="translate(1589.421875 0)"/>
     <use xlink:href="#DejaVuSans-58" transform="translate(1644.40625 0)"/>
     <use xlink:href="#DejaVuSans-55" transform="translate(1707.78125 0)"/>
     <use xlink:href="#DejaVuSans-59" transform="translate(1748.890625 0)"/>
     <use xlink:href="#DejaVuSans-48" transform="translate(1808.078125 0)"/>
     <use xlink:href="#DejaVuSans-56" transform="translate(1869.609375 0)"/>
    </g>
   </g>
   <g id="legend_1">
    <g id="patch_7">
     <path d="M 129.320156 60.319687 
L 322.376406 60.319687 
Q 324.376406 60.319687 324.376406 58.319687 
L 324.376406 29.318125 
Q 324.376406 27.318125 322.376406 27.318125 
L 129.320156 27.318125 
Q 127.320156 27.318125 127.320156 29.318125 
L 127.320156 58.319687 
Q 127.320156 60.319687 129.320156 60.319687 
z
" style="fill: #ffffff; opacity: 0.8; stroke: #cccccc; stroke-linejoin: miter"/>
    </g>
    <g id="line2d_44">
     <path d="M 131.320156 35.416562 
L 141.320156 35.416562 
L 151.320156 35.416562 
" style="fill: none; stroke: #1f77b4; stroke-width: 1.5; stroke-linecap: square"/>
     <g>
      <use xlink:href="#m1c116cf8b7" x="141.320156" y="35.416562" style="fill: #1f77b4; stroke: #1f77b4"/>
     </g>
    </g>
    <g id="text_17">
     <!-- courbe composite du flux chaud -->
     <g transform="translate(159.320156 38.916562) scale(0.1 -0.1)">
      <defs>
       <path id="DejaVuSans-45" d="M 3116 1747 
Q 3116 2381 2855 2742 
Q 2594 3103 2138 3103 
Q 1681 3103 1420 2742 
Q 1159 2381 1159 1747 
Q 1159 1113 1420 752 
Q 1681 391 2138 391 
Q 2594 391 2855 752 
Q 3116 1113 3116 1747 
z
M 1159 2969 
Q 1341 3281 1617 3432 
Q 1894 3584 2278 3584 
Q 2916 3584 3314 3078 
Q 3713 2572 3713 1747 
Q 3713 922 3314 415 
Q 2916 -91 2278 -91 
Q 1894 -91 1617 61 
Q 1341 213 1159 525 
L 1159 0 
L 581 0 
L 581 4863 
L 1159 4863 
L 1159 2969 
z
" transform="scale(0.015625)"/>
       <path id="DejaVuSans-5b" d="M 3513 3500 
L 2247 1797 
L 3578 0 
L 2900 0 
L 1881 1375 
L 863 0 
L 184 0 
L 1544 1831 
L 300 3500 
L 978 3500 
L 1906 2253 
L 2834 3500 
L 3513 3500 
z
" transform="scale(0.015625)"/>
      </defs>
      <use xlink:href="#DejaVuSans-46"/>
      <use xlink:href="#DejaVuSans-52" transform="translate(54.984375 0)"/>
      <use xlink:href="#DejaVuSans-58" transform="translate(116.171875 0)"/>
      <use xlink:href="#DejaVuSans-55" transform="translate(179.546875 0)"/>
      <use xlink:href="#DejaVuSans-45" transform="translate(220.65625 0)"/>
      <use xlink:href="#DejaVuSans-48" transform="translate(284.140625 0)"/>
      <use xlink:href="#DejaVuSans-3" transform="translate(345.671875 0)"/>
      <use xlink:href="#DejaVuSans-46" transform="translate(377.453125 0)"/>
      <use xlink:href="#DejaVuSans-52" transform="translate(432.4375 0)"/>
      <use xlink:href="#DejaVuSans-50" transform="translate(493.625 0)"/>
      <use xlink:href="#DejaVuSans-53" transform="translate(591.03125 0)"/>
      <use xlink:href="#DejaVuSans-52" transform="translate(654.515625 0)"/>
      <use xlink:href="#DejaVuSans-56" transform="translate(715.703125 0)"/>
      <use xlink:href="#DejaVuSans-4c" transform="translate(767.796875 0)"/>
      <use xlink:href="#DejaVuSans-57" transform="translate(795.578125 0)"/>
      <use xlink:href="#DejaVuSans-48" transform="translate(834.78125 0)"/>
      <use xlink:href="#DejaVuSans-3" transform="translate(896.3125 0)"/>
      <use xlink:href="#DejaVuSans-47" transform="translate(928.09375 0)"/>
      <use xlink:href="#DejaVuSans-58" transform="translate(991.578125 0)"/>
      <use xlink:href="#DejaVuSans-3" transform="translate(1054.953125 0)"/>
      <use xlink:href="#DejaVuSans-13b0" transform="translate(1086.734375 0)"/>
      <use xlink:href="#DejaVuSans-58" transform="translate(1149.71875 0)"/>
      <use xlink:href="#DejaVuSans-5b" transform="translate(1213.09375 0)"/>
      <use xlink:href="#DejaVuSans-3" transform="translate(1272.28125 0)"/>
      <use xlink:href="#DejaVuSans-46" transform="translate(1304.0625 0)"/>
      <use xlink:href="#DejaVuSans-4b" transform="translate(1359.046875 0)"/>
      <use xlink:href="#DejaVuSans-44" transform="translate(1422.421875 0)"/>
      <use xlink:href="#DejaVuSans-58" transform="translate(1483.703125 0)"/>
      <use xlink:href="#DejaVuSans-47" transform="translate(1547.078125 0)"/>
     </g>
    </g>
    <g id="line2d_45">
     <path d="M 131.320156 50.417344 
L 141.320156 50.417344 
L 151.320156 50.417344 
" style="fill: none; stroke: #ff7f0e; stroke-width: 1.5; stroke-linecap: square"/>
     <g>
      <use xlink:href="#m44baf9bd7b" x="141.320156" y="50.417344" style="fill: #ff7f0e; stroke: #ff7f0e"/>
     </g>
    </g>
    <g id="text_18">
     <!-- courbe composite du flux froid -->
     <g transform="translate(159.320156 53.917344) scale(0.1 -0.1)">
      <use xlink:href="#DejaVuSans-46"/>
      <use xlink:href="#DejaVuSans-52" transform="translate(54.984375 0)"/>
      <use xlink:href="#DejaVuSans-58" transform="translate(116.171875 0)"/>
      <use xlink:href="#DejaVuSans-55" transform="translate(179.546875 0)"/>
      <use xlink:href="#DejaVuSans-45" transform="translate(220.65625 0)"/>
      <use xlink:href="#DejaVuSans-48" transform="translate(284.140625 0)"/>
      <use xlink:href="#DejaVuSans-3" transform="translate(345.671875 0)"/>
      <use xlink:href="#DejaVuSans-46" transform="translate(377.453125 0)"/>
      <use xlink:href="#DejaVuSans-52" transform="translate(432.4375 0)"/>
      <use xlink:href="#DejaVuSans-50" transform="translate(493.625 0)"/>
      <use xlink:href="#DejaVuSans-53" transform="translate(591.03125 0)"/>
      <use xlink:href="#DejaVuSans-52" transform="translate(654.515625 0)"/>
      <use xlink:href="#DejaVuSans-56" transform="translate(715.703125 0)"/>
      <use xlink:href="#DejaVuSans-4c" transform="translate(767.796875 0)"/>
      <use xlink:href="#DejaVuSans-57" transform="translate(795.578125 0)"/>
      <use xlink:href="#DejaVuSans-48" transform="translate(834.78125 0)"/>
      <use xlink:href="#DejaVuSans-3" transform="translate(896.3125 0)"/>
      <use xlink:href="#DejaVuSans-47" transform="translate(928.09375 0)"/>
      <use xlink:href="#DejaVuSans-58" transform="translate(991.578125 0)"/>
      <use xlink:href="#DejaVuSans-3" transform="translate(1054.953125 0)"/>
      <use xlink:href="#DejaVuSans-13b0" transform="translate(1086.734375 0)"/>
      <use xlink:href="#DejaVuSans-58" transform="translate(1149.71875 0)"/>
      <use xlink:href="#DejaVuSans-5b" transform="translate(1213.09375 0)"/>
      <use xlink:href="#DejaVuSans-3" transform="translate(1272.28125 0)"/>
      <use xlink:href="#DejaVuSans-49" transform="translate(1304.0625 0)"/>
      <use xlink:href="#DejaVuSans-55" transform="translate(1339.265625 0)"/>
      <use xlink:href="#DejaVuSans-52" transform="translate(1378.171875 0)"/>
      <use xlink:href="#DejaVuSans-4c" transform="translate(1439.359375 0)"/>
      <use xlink:href="#DejaVuSans-47" transform="translate(1467.140625 0)"/>
     </g>
    </g>
   </g>
  </g>
 </g>
 <defs>
  <clipPath id="pf376047087">
   <rect x="47.288281" y="22.318125" width="357.12" height="266.112"/>
  </clipPath>
 </defs>
</svg>
