<svg xmlns="http://www.w3.org/2000/svg" viewBox="0 0 1200 650" font-family="Arial, Helvetica, sans-serif">
  <defs>
    <marker id="a" markerWidth="8" markerHeight="6" refX="7" refY="3" orient="auto">
      <polygon points="0 0,8 3,0 6" fill="#666"/>
    </marker>
    <marker id="ab" markerWidth="8" markerHeight="6" refX="7" refY="3" orient="auto">
      <polygon points="0 0,8 3,0 6" fill="#1565C0"/>
    </marker>
    <marker id="ag" markerWidth="8" markerHeight="6" refX="7" refY="3" orient="auto">
      <polygon points="0 0,8 3,0 6" fill="#2E7D32"/>
    </marker>
  </defs>

  <rect width="1200" height="650" fill="#fff"/>

  <!-- ======== TITRE ======== -->
  <text x="600" y="30" text-anchor="middle" font-size="20" font-weight="bold" fill="#333">Chaine de l'acheminement du gaz</text>

  <!-- ======== LIGNE 1 : ENTREES (gauche) + TRANSPORT (centre) + ENTREES (droite) ======== -->

  <!-- Interconnexions terrestres (gauche) -->
  <rect x="15" y="50" width="220" height="165" rx="5" fill="#E3F2FD" stroke="#90CAF9"/>
  <text x="125" y="70" text-anchor="middle" font-size="12" font-weight="bold" fill="#1565C0">Interconnexions terrestres</text>
  <text x="25" y="90" font-size="10" fill="#333">Dunkerque</text>
  <text x="25" y="104" font-size="10" fill="#333">Virtualys</text>
  <text x="25" y="118" font-size="10" fill="#333">Taisnieres</text>
  <text x="25" y="132" font-size="10" fill="#333">Obergailbach</text>
  <text x="25" y="146" font-size="10" fill="#333">Oltingue</text>
  <text x="25" y="160" font-size="10" fill="#333">Pirineos</text>
  <rect x="25" y="175" width="200" height="20" rx="3" fill="#1565C0"/>
  <text x="125" y="189" text-anchor="middle" font-size="11" font-weight="bold" fill="#fff">2 385 GWh/j</text>
  <text x="125" y="210" text-anchor="middle" font-size="9" fill="#777">Sortie : 799 GWh/j</text>

  <!-- Fleche gauche → centre -->
  <line x1="235" y1="130" x2="275" y2="130" stroke="#1565C0" stroke-width="3" marker-end="url(#ab)"/>

  <!-- Terminaux methaniers (droite) -->
  <rect x="965" y="50" width="220" height="145" rx="5" fill="#E3F2FD" stroke="#90CAF9"/>
  <text x="1075" y="70" text-anchor="middle" font-size="12" font-weight="bold" fill="#1565C0">Terminaux methaniers</text>
  <text x="975" y="92" font-size="10" fill="#333">Dunkerque</text>
  <text x="975" y="108" font-size="10" fill="#333">Montoir-de-Bretagne</text>
  <text x="975" y="124" font-size="10" fill="#333">Fos-sur-Mer</text>
  <rect x="975" y="140" width="200" height="20" rx="3" fill="#1565C0"/>
  <text x="1075" y="154" text-anchor="middle" font-size="11" font-weight="bold" fill="#fff">1 440 GWh/j</text>
  <text x="1075" y="190" text-anchor="middle" font-size="9" fill="#777">+ FSRU Le Havre : 150 GWh/j</text>

  <!-- Fleche droite → centre -->
  <line x1="965" y1="130" x2="925" y2="130" stroke="#1565C0" stroke-width="3" marker-end="url(#ab)"/>

  <!-- ======== BLOC CENTRAL : GESTIONNAIRES TRANSPORT ======== -->
  <rect x="280" y="50" width="640" height="170" rx="6" fill="#fff" stroke="#1565C0" stroke-width="2"/>
  <rect x="280" y="50" width="640" height="28" rx="6" fill="#1565C0"/>
  <rect x="280" y="65" width="640" height="13" fill="#1565C0"/>
  <text x="600" y="72" text-anchor="middle" font-size="13" font-weight="bold" fill="#fff">Gestionnaires (Construction, entretien et developpement) du reseau de Transport du Gaz Naturel</text>
  <text x="600" y="96" text-anchor="middle" font-size="11" fill="#555">a haute pression</text>

  <!-- naTran (ex-GRTgaz) -->
  <rect x="300" y="108" width="290" height="100" rx="4" fill="#F8F9FA" stroke="#1565C0" stroke-width="1.5"/>
  <text x="445" y="130" text-anchor="middle" font-size="14" font-weight="bold" fill="#1565C0">naTran (ex-GRTgaz)</text>
  <text x="445" y="150" text-anchor="middle" font-size="12" fill="#333">= 85% du reseau</text>
  <text x="445" y="168" text-anchor="middle" font-size="10" fill="#555">32 440 km -- 26 stations de compression</text>
  <text x="445" y="183" text-anchor="middle" font-size="10" fill="#555">359 TWh (zone naTran (ex-GRTgaz), 2023)</text>
  <text x="445" y="200" text-anchor="middle" font-size="9" fill="#888">-10% vs 2022</text>

  <!-- Terega -->
  <rect x="610" y="108" width="290" height="100" rx="4" fill="#F8F9FA" stroke="#0D47A1" stroke-width="1.5"/>
  <text x="755" y="130" text-anchor="middle" font-size="18" font-weight="bold" fill="#0D47A1">Terega</text>
  <text x="755" y="150" text-anchor="middle" font-size="12" fill="#333">= 15% du reseau</text>
  <text x="755" y="168" text-anchor="middle" font-size="10" fill="#555">5 083 km -- 5 stations de compression</text>
  <text x="755" y="183" text-anchor="middle" font-size="10" fill="#555">22 TWh (zone Terega, 2022)</text>
  <text x="755" y="200" text-anchor="middle" font-size="9" fill="#888">-8% vs 2021</text>

  <!-- ======== STOCKAGE (a droite du transport) ======== -->
  <rect x="965" y="220" width="220" height="115" rx="5" fill="#FFF3E0" stroke="#FB8C00"/>
  <text x="1075" y="240" text-anchor="middle" font-size="12" font-weight="bold" fill="#E65100">Stockages souterrains</text>
  <text x="1075" y="258" text-anchor="middle" font-size="13" font-weight="bold" fill="#333">(138 TWh)</text>
  <text x="975" y="278" font-size="10" fill="#444">74% Storengy (9 sites)</text>
  <text x="975" y="294" font-size="10" fill="#444">24% Terega (1 site)</text>
  <text x="975" y="310" font-size="10" fill="#444">2% Geomethane (1 site)</text>
  <text x="1075" y="330" text-anchor="middle" font-size="9" fill="#888">Soutirage : 2 376 GWh/j</text>

  <!-- Fleches bidirectionnelles stockage <-> transport -->
  <path d="M960,260 L930,240" stroke="#FB8C00" stroke-width="1.5" fill="none" marker-end="url(#a)"/>
  <path d="M930,300 L960,320" stroke="#FB8C00" stroke-width="1.5" fill="none" marker-end="url(#a)"/>
  <text x="935" y="252" text-anchor="end" font-size="8" fill="#E65100">ete</text>
  <text x="935" y="312" text-anchor="end" font-size="8" fill="#E65100">hiver</text>

  <!-- ======== LIGNE 2 : FLECHES VERS LE BAS ======== -->

  <!-- Fleche transport → Grandes industries (directe) -->
  <line x1="370" y1="220" x2="370" y2="265" stroke="#666" stroke-width="1.5" marker-end="url(#a)"/>
  <rect x="280" y="265" width="180" height="45" rx="4" fill="#fff" stroke="#E65100" stroke-width="1.5"/>
  <text x="370" y="284" text-anchor="middle" font-size="11" font-weight="bold" fill="#E65100">Grandes industries</text>
  <text x="370" y="300" text-anchor="middle" font-size="10" fill="#555">francaises</text>

  <!-- Fleche transport → Centrales elec (directe) -->
  <line x1="520" y1="220" x2="520" y2="265" stroke="#666" stroke-width="1.5" marker-end="url(#a)"/>
  <rect x="460" y="265" width="180" height="45" rx="4" fill="#fff" stroke="#1565C0" stroke-width="1.5"/>
  <text x="550" y="284" text-anchor="middle" font-size="11" font-weight="bold" fill="#1565C0">Centrales de production</text>
  <text x="550" y="300" text-anchor="middle" font-size="10" fill="#555">d'electricite</text>

  <!-- Fleche transport → Distribution (grosse) -->
  <line x1="720" y1="220" x2="720" y2="265" stroke="#2E7D32" stroke-width="4" marker-end="url(#ag)"/>
  <text x="738" y="252" font-size="9" fill="#555">PITD</text>

  <!-- ======== LIGNE 3 : DISTRIBUTION ======== -->
  <rect x="280" y="340" width="640" height="120" rx="6" fill="#fff" stroke="#2E7D32" stroke-width="2"/>
  <rect x="280" y="340" width="640" height="26" rx="6" fill="#2E7D32"/>
  <rect x="280" y="353" width="640" height="13" fill="#2E7D32"/>
  <text x="600" y="360" text-anchor="middle" font-size="13" font-weight="bold" fill="#fff">Reseau de Distribution</text>

  <!-- GRDF -->
  <rect x="300" y="374" width="290" height="74" rx="4" fill="#F8F9FA" stroke="#2E7D32" stroke-width="1.5"/>
  <text x="445" y="396" text-anchor="middle" font-size="15" font-weight="bold" fill="#2E7D32">GRDF</text>
  <text x="445" y="414" text-anchor="middle" font-size="11" fill="#333">96% des volumes distribues</text>
  <text x="445" y="430" text-anchor="middle" font-size="10" fill="#555">~200 000 km -- 10,8 M clients</text>
  <text x="445" y="444" text-anchor="middle" font-size="9" fill="#888">Tarifs ATRD : T1, T2, T3, T4</text>

  <!-- ELD -->
  <rect x="610" y="374" width="290" height="74" rx="4" fill="#F8F9FA" stroke="#558B2F" stroke-width="1.5"/>
  <text x="755" y="396" text-anchor="middle" font-size="13" font-weight="bold" fill="#558B2F">Entreprises Locales de Distribution</text>
  <text x="755" y="414" text-anchor="middle" font-size="11" fill="#333">Regaz-Bordeaux (1,5%) -- R-GDS (1,5%)</text>
  <text x="755" y="430" text-anchor="middle" font-size="10" fill="#555">Autres ELD (~1%)</text>

  <!-- Fleche distribution → consommateurs -->
  <line x1="600" y1="460" x2="600" y2="490" stroke="#666" stroke-width="2" marker-end="url(#a)"/>

  <!-- ======== LIGNE 4 : CONSOMMATEURS FINALS ======== -->
  <rect x="15" y="490" width="930" height="50" rx="5" fill="#FFF8E1" stroke="#FFD54F"/>
  <text x="25" y="510" font-size="12" font-weight="bold" fill="#F57F17">Consommateurs finals</text>

  <rect x="215" y="502" width="120" height="28" rx="3" fill="#fff" stroke="#F57F17"/>
  <text x="275" y="520" text-anchor="middle" font-size="9" fill="#333">Residentiels (T1)</text>

  <rect x="345" y="502" width="140" height="28" rx="3" fill="#fff" stroke="#FF9800"/>
  <text x="415" y="520" text-anchor="middle" font-size="9" fill="#333">PME / Commerces (T2)</text>

  <rect x="495" y="502" width="140" height="28" rx="3" fill="#fff" stroke="#EF6C00"/>
  <text x="565" y="520" text-anchor="middle" font-size="9" fill="#333">Industries moy. (T3)</text>

  <rect x="645" y="502" width="140" height="28" rx="3" fill="#fff" stroke="#E65100"/>
  <text x="715" y="520" text-anchor="middle" font-size="9" fill="#333">Grands indus. (T4)</text>

  <rect x="795" y="502" width="140" height="28" rx="3" fill="#fff" stroke="#BF360C"/>
  <text x="865" y="520" text-anchor="middle" font-size="9" fill="#333">Chaufferies coll.</text>

  <!-- ======== LIGNE 5 : COMPOSANTES FACTURE ======== -->
  <rect x="15" y="555" width="1170" height="52" rx="5" fill="#F3E5F5" stroke="#CE93D8"/>
  <text x="25" y="575" font-size="11" font-weight="bold" fill="#6A1B9A">Composantes de la facture gaz :</text>

  <rect x="250" y="567" width="110" height="22" rx="3" fill="#fff" stroke="#7B1FA2"/>
  <text x="305" y="582" text-anchor="middle" font-size="9" fill="#7B1FA2">Molecule</text>
  <text x="370" y="582" font-size="12" fill="#aaa">+</text>
  <rect x="382" y="567" width="90" height="22" rx="3" fill="#fff" stroke="#7B1FA2"/>
  <text x="427" y="582" text-anchor="middle" font-size="9" fill="#7B1FA2">ATRT</text>
  <text x="482" y="582" font-size="12" fill="#aaa">+</text>
  <rect x="494" y="567" width="90" height="22" rx="3" fill="#fff" stroke="#7B1FA2"/>
  <text x="539" y="582" text-anchor="middle" font-size="9" fill="#7B1FA2">ATRD</text>
  <text x="594" y="582" font-size="12" fill="#aaa">+</text>
  <rect x="606" y="567" width="130" height="22" rx="3" fill="#fff" stroke="#7B1FA2"/>
  <text x="671" y="582" text-anchor="middle" font-size="9" fill="#7B1FA2">CTA (20,80%+4,71%)</text>
  <text x="746" y="582" font-size="12" fill="#aaa">+</text>
  <rect x="758" y="567" width="120" height="22" rx="3" fill="#fff" stroke="#7B1FA2"/>
  <text x="818" y="582" text-anchor="middle" font-size="9" fill="#7B1FA2">Accise (ex-TICGN)</text>
  <text x="888" y="582" font-size="12" fill="#aaa">+</text>
  <rect x="900" y="567" width="100" height="22" rx="3" fill="#fff" stroke="#7B1FA2"/>
  <text x="950" y="582" text-anchor="middle" font-size="9" fill="#7B1FA2">TVA 5,5%/20%</text>
  <text x="1010" y="582" font-size="12" fill="#aaa">=</text>
  <rect x="1022" y="567" width="100" height="22" rx="3" fill="#7B1FA2"/>
  <text x="1072" y="583" text-anchor="middle" font-size="10" font-weight="bold" fill="#fff">Facture TTC</text>

  <!-- ======== REFERENCES ======== -->
  <text x="15" y="625" font-size="8" fill="#999">[1] CRE -- Presentation de la chaine d'acheminement : cre.fr/gaz/reseaux-de-gaz-naturel/presentation.html</text>
  <text x="15" y="636" font-size="8" fill="#999">[2] CRE -- Points d'entree terrestres et terminaux methaniers : cre.fr/gaz/reseaux-de-gaz-naturel/interconnexions.html</text>
  <text x="15" y="647" font-size="8" fill="#999">[3] CRE -- Rapport annuel DG ENER 2024, p.123-124 : cre.fr/fileadmin/Documents/Rapports_et_etudes/2024/Rapport_annuel_DG_ENER_2024_CRE.pdf</text>

</svg>
