<svg xmlns="http://www.w3.org/2000/svg" width="1386" height="176" viewBox="0 0 1386 176" role="img" aria-labelledby="title desc">
  <title id="title">Exemple de noeud declaratif : Rechauffeur</title>
  <desc id="desc">Flux de donnees entre une source fluide, le noeud Heater et le noeud Output.</desc>
  <defs>
    <marker id="arrow" markerWidth="10" markerHeight="10" refX="9" refY="3" orient="auto" markerUnits="strokeWidth">
      <path d="M0,0 L0,6 L9,3 z" fill="#4b5563"/>
    </marker>
    <style>
      .diagram-title { font: 700 18px Arial, sans-serif; fill: #111827; }
      .node-title { font: 700 13px Arial, sans-serif; fill: #111827; }
      .node-subtitle { font: 11px Arial, sans-serif; fill: #374151; }
      .edge-label { font: 11px Arial, sans-serif; fill: #374151; }
    </style>
  </defs>
  <rect width="100%" height="100%" fill="#ffffff"/>
  <text x="38" y="26" class="diagram-title">Exemple de noeud declaratif : Rechauffeur</text>
  <path d="M 208 83.0 C 265.5 83.0, 265.5 83.0, 323 83.0" fill="none" stroke="#4b5563" stroke-width="1.7" marker-end="url(#arrow)"/>
<text x="265.5" y="75.0" text-anchor="middle" class="edge-label">entree</text>
<path d="M 493 83.0 C 550.5 83.0, 550.5 83.0, 608 83.0" fill="none" stroke="#4b5563" stroke-width="1.7" marker-end="url(#arrow)"/>
<text x="550.5" y="75.0" text-anchor="middle" class="edge-label">Inlet</text>
<path d="M 778 83.0 C 835.5 83.0, 835.5 83.0, 893 83.0" fill="none" stroke="#4b5563" stroke-width="1.7" marker-end="url(#arrow)"/>
<text x="835.5" y="75.0" text-anchor="middle" class="edge-label">Outlet</text>
<path d="M 1063 83.0 C 1120.5 83.0, 1120.5 83.0, 1178 83.0" fill="none" stroke="#4b5563" stroke-width="1.7" marker-end="url(#arrow)"/>
<text x="1120.5" y="75.0" text-anchor="middle" class="edge-label">sortie</text>
  <rect x="38" y="50" width="170" height="66" rx="8" fill="#fff4de" stroke="#b46a00" stroke-width="1.6"/>
<text x="123.0" y="76" text-anchor="middle" class="node-title">Source</text>
<text x="123.0" y="102" text-anchor="middle" class="node-subtitle">[fluide, F, P, h]</text>
<rect x="323" y="50" width="170" height="66" rx="8" fill="#f0ecff" stroke="#6554b8" stroke-width="1.6"/>
<text x="408.0" y="76" text-anchor="middle" class="node-title">make_fluid_port</text>
<text x="408.0" y="102" text-anchor="middle" class="node-subtitle">tableau vers FluidPort</text>
<rect x="608" y="50" width="170" height="66" rx="8" fill="#eaf4ff" stroke="#2670a8" stroke-width="1.6"/>
<text x="693.0" y="76" text-anchor="middle" class="node-title">Heater.Object</text>
<text x="693.0" y="102" text-anchor="middle" class="node-subtitle">q_nom, u, calculate()</text>
<rect x="893" y="50" width="170" height="66" rx="8" fill="#f0ecff" stroke="#6554b8" stroke-width="1.6"/>
<text x="978.0" y="76" text-anchor="middle" class="node-title">fluid_out</text>
<text x="978.0" y="102" text-anchor="middle" class="node-subtitle">FluidPort vers tableau</text>
<rect x="1178" y="50" width="170" height="66" rx="8" fill="#fff0f0" stroke="#b33a3a" stroke-width="1.6"/>
<text x="1263.0" y="76" text-anchor="middle" class="node-title">Output</text>
<text x="1263.0" y="102" text-anchor="middle" class="node-subtitle">T, P, h, debit</text>
</svg>
