<?xml version="1.0" encoding="UTF-8"?>
<svg xmlns="http://www.w3.org/2000/svg" viewBox="0 0 100 100" width="100" height="100" role="img" aria-label="Gazéifieur biomasse">
  <title>Gazéifieur biomasse</title>
  <desc>Réacteur à lit fixe (hachures) alimenté par une trémie de biomasse (feuille) ; gaz de synthèse en tête, cendres en pied.</desc>
  <metadata>{"standard": "pictogramme ESM", "ref": "", "name": "Gazéifieur biomasse", "ports": [{"id": "port-n", "x": 20, "y": 10, "dir": "n", "role": "inlet"}, {"id": "port-e", "x": 92, "y": 30, "dir": "e", "role": "outlet"}, {"id": "port-s", "x": 52, "y": 92, "dir": "s", "role": "outlet"}]}</metadata>
  <g fill="none" stroke="#000000" stroke-width="2" stroke-linecap="round" stroke-linejoin="round">
    <path d="M 34 24 H 70 V 70 L 58 82 H 46 L 34 70 Z"/>
    <rect x="34" y="46" width="36" height="16"/>
    <line x1="38" y1="62" x2="50" y2="46"/>
    <line x1="48" y1="62" x2="60" y2="46"/>
    <line x1="58" y1="62" x2="70" y2="50"/>
    <polygon points="10,10 30,10 24,24 16,24"/>
    <line x1="20" y1="24" x2="20" y2="32"/>
    <line x1="20" y1="32" x2="34" y2="32"/>
    <path d="M 14 20 C 14 13 20 11 26 12 C 25 18 20 21 14 20 Z"/>
    <line x1="70" y1="30" x2="92" y2="30"/>
    <line x1="52" y1="82" x2="52" y2="92"/>
    <polygon points="92,30 86.4,26.5 86.4,33.5" fill="#000000"/>
  </g>
  <g class="ports">
    <circle class="port" cx="20" cy="10" r="2.0" fill="#000000" stroke="none" data-port="port-n" data-dir="n" data-role="inlet"/>
    <circle class="port" cx="92" cy="30" r="2.0" fill="#000000" stroke="none" data-port="port-e" data-dir="e" data-role="outlet"/>
    <circle class="port" cx="52" cy="92" r="2.0" fill="#000000" stroke="none" data-port="port-s" data-dir="s" data-role="outlet"/>
  </g>
</svg>
