<?xml version="1.0" encoding="UTF-8"?>
<svg xmlns="http://www.w3.org/2000/svg" viewBox="0 0 100 100" width="100" height="100" role="img" aria-label="MVR (recompression mécanique de vapeur)">
  <title>MVR (recompression mécanique de vapeur)</title>
  <desc>Évaporateur dont la vapeur, recomprimée par un compresseur (cercle ISO), revient chauffer sa propre calandre.</desc>
  <metadata>{"standard": "pictogramme ESM", "ref": "", "name": "MVR (recompression mécanique de vapeur)", "ports": []}</metadata>
  <g fill="none" stroke="#000000" stroke-width="2" stroke-linecap="round" stroke-linejoin="round">
    <path d="M 12 20 h 28 v 46 l -14 14 l -14 -14 z"/>
    <line x1="12" y1="42" x2="40" y2="42"/>
    <line x1="12" y1="58" x2="40" y2="58"/>
    <line x1="20" y1="42" x2="20" y2="58"/>
    <line x1="26" y1="42" x2="26" y2="58"/>
    <line x1="32" y1="42" x2="32" y2="58"/>
    <circle cx="70" cy="30" r="14"/>
    <line x1="64.5" y1="17" x2="60" y2="40"/>
    <line x1="75.5" y1="17" x2="80" y2="40"/>
    <path d="M 26 20 V 10 H 70 V 16"/>
    <path d="M 70 44 V 50 H 44"/>
    <line x1="26" y1="80" x2="26" y2="92"/>
    <polygon points="40,50 45.6,46.5 45.6,53.5" fill="#000000"/>
  </g>
</svg>
