<?xml version="1.0" encoding="UTF-8"?>
<svg xmlns="http://www.w3.org/2000/svg" viewBox="0 0 100 100" width="100" height="100" role="img" aria-label="Compresseur volumétrique à vis">
  <title>Compresseur volumétrique à vis</title>
  <desc>Compresseur (cercle ISO 14617-9) à deux rotors hélicoïdaux engrenés (vis).</desc>
  <metadata>{"standard": "ISO 14617-9", "ref": "2302 (variante)", "name": "Compresseur volumétrique à vis", "ports": [{"id": "port-n", "x": 50, "y": 8, "dir": "n", "role": "outlet"}, {"id": "port-s", "x": 50, "y": 92, "dir": "s", "role": "inlet"}]}</metadata>
  <g fill="none" stroke="#000000" stroke-width="2" stroke-linecap="round" stroke-linejoin="round">
    <circle cx="50" cy="50" r="28"/>
    <rect x="30" y="37" width="40" height="12" rx="6"/>
    <rect x="30" y="51" width="40" height="12" rx="6"/>
    <line x1="36" y1="37" x2="42" y2="49"/>
    <line x1="45" y1="37" x2="51" y2="49"/>
    <line x1="54" y1="37" x2="60" y2="49"/>
    <line x1="60" y1="37" x2="66" y2="49"/>
    <line x1="42" y1="51" x2="36" y2="63"/>
    <line x1="51" y1="51" x2="45" y2="63"/>
    <line x1="60" y1="51" x2="54" y2="63"/>
    <line x1="66" y1="51" x2="60" y2="63"/>
    <line x1="50" y1="22" x2="50" y2="8"/>
    <line x1="50" y1="78" x2="50" y2="92"/>
  </g>
  <g class="ports">
    <circle class="port" cx="50" cy="8" r="2.0" fill="#000000" stroke="none" data-port="port-n" data-dir="n" data-role="outlet"/>
    <circle class="port" cx="50" cy="92" r="2.0" fill="#000000" stroke="none" data-port="port-s" data-dir="s" data-role="inlet"/>
  </g>
</svg>
